JetBrainsMono-Regular.ufo
<glyph name="exclam" format="2">
  <advance width="600" height="975"/>
  <unicode hex="0021"/>
  <outline>
    <contour>
      <point x="247" y="720" type="line" name="at01"/>
      <point x="353" y="720" type="line"/>
      <point x="353" y="600" type="line"/>
      <point x="332" y="215" type="line"/>
      <point x="268" y="215" type="line"/>
      <point x="247" y="600" type="line"/>
    </contour>
    <contour>
      <point x="290" y="115" type="curve" smooth="yes" name="sv01"/>
      <point x="310" y="115" type="line" smooth="yes"/>
      <point x="349" y="115"/>
      <point x="375" y="90"/>
      <point x="375" y="54" type="curve" smooth="yes" name="dh02"/>
      <point x="375" y="18"/>
      <point x="349" y="-5"/>
      <point x="310" y="-5" type="curve" smooth="yes" name="ab01"/>
      <point x="290" y="-5" type="line" smooth="yes"/>
      <point x="251" y="-5"/>
      <point x="225" y="17"/>
      <point x="225" y="53.5" type="curve" smooth="yes" name="dh01"/>
      <point x="225" y="90"/>
      <point x="251" y="115"/>
    </contour>
  </outline>
</glyph>
<glyph name="quotedbl" format="2">
  <advance width="600" height="975"/>
  <unicode hex="0022"/>
  <outline>
    <contour>
      <point x="150" y="730" type="line"/>
      <point x="247" y="730" type="line"/>
      <point x="247" y="580" type="line"/>
      <point x="236" y="430" type="line"/>
      <point x="162" y="430" type="line"/>
      <point x="150" y="580" type="line"/>
    </contour>
    <contour>
      <point x="353" y="730" type="line"/>
      <point x="450" y="730" type="line"/>
      <point x="450" y="580" type="line"/>
      <point x="439" y="430" type="line"/>
      <point x="365" y="430" type="line"/>
      <point x="353" y="580" type="line"/>
    </contour>
  </outline>
</glyph>
<glyph name="numbersign" format="2">
  <advance width="600" height="975"/>
  <unicode hex="0023"/>
  <outline>
    <contour>
      <point x="420" y="200" type="line" name="dv05"/>
      <point x="383" y="0" type="line" name="ab02"/>
      <point x="313" y="0" type="line"/>
      <point x="350" y="200" type="line" name="sv01"/>
      <point x="190" y="200" type="line"/>
      <point x="153" y="0" type="line" name="ab01"/>
      <point x="83" y="0" type="line"/>
      <point x="120" y="200" type="line" name="sv02"/>
      <point x="35" y="200" type="line"/>
      <point x="35" y="265" type="line" name="sv03"/>
      <point x="132" y="265" type="line"/>
      <point x="168" y="455" type="line" name="dv07"/>
      <point x="69" y="455" type="line"/>
      <point x="69" y="520" type="line"/>
      <point x="180" y="520" type="line" name="dv08"/>
      <point x="217" y="720" type="line" name="at01"/>
      <point x="287" y="720" type="line"/>
      <point x="250" y="520" type="line" name="sv04"/>
      <point x="410" y="520" type="line"/>
      <point x="447" y="720" type="line" name="at02"/>
      <point x="517" y="720" type="line"/>
      <point x="480" y="520" type="line" name="sv05"/>
      <point x="565" y="520" type="line" name="dv02"/>
      <point x="565" y="455" type="line" name="dv01"/>
      <point x="468" y="455" type="line"/>
      <point x="432" y="265" type="line" name="dv06"/>
      <point x="530" y="265" type="line" name="dv04"/>
      <point x="530" y="200" type="line" name="dv03"/>
    </contour>
    <contour>
      <point x="362" y="265" type="line" name="sv06"/>
      <point x="398" y="455" type="line" name="sv07"/>
      <point x="238" y="455" type="line"/>
      <point x="202" y="265" type="line"/>
    </contour>
  </outline>
</glyph>
<glyph name="dollar" format="2">
  <advance width="600" height="975"/>
  <unicode hex="0024"/>
  <outline>
    <contour>
      <point x="275" y="850" type="line"/>
      <point x="335" y="850" type="line"/>
      <point x="335" y="370" type="line"/>
      <point x="275" y="370" type="line"/>
    </contour>
    <contour>
      <point x="335" y="-140" type="line"/>
      <point x="275" y="-140" type="line"/>
      <point x="275" y="340" type="line"/>
      <point x="335" y="340" type="line"/>
    </contour>
    <contour>
      <point x="300" y="-10" type="curve" smooth="yes" name="ab01"/>
      <point x="162" y="-10"/>
      <point x="72" y="66"/>
      <point x="70" y="185" type="curve" name="dh01"/>
      <point x="162" y="185" type="line" name="dh02"/>
      <point x="162" y="114"/>
      <point x="218" y="68"/>
      <point x="302" y="68" type="curve" smooth="yes" name="sv01"/>
      <point x="389" y="68"/>
      <point x="442" y="110"/>
      <point x="442" y="180" type="curve" smooth="yes" name="sh01"/>
      <point x="442" y="241"/>
      <point x="406" y="287"/>
      <point x="341" y="310" type="curve" smooth="yes"/>
      <point x="252" y="342" type="line" smooth="yes" name="sv03"/>
      <point x="146" y="380"/>
      <point x="91" y="448"/>
      <point x="91" y="541" type="curve" smooth="yes" name="ih01"/>
      <point x="91" y="656"/>
      <point x="174" y="730"/>
      <point x="305" y="730" type="curve" smooth="yes" name="at01"/>
      <point x="433" y="730"/>
      <point x="519" y="654"/>
      <point x="521" y="539" type="curve"/>
      <point x="429" y="539" type="line" name="dh03"/>
      <point x="429" y="607"/>
      <point x="378" y="652"/>
      <point x="304" y="652" type="curve" smooth="yes" name="sv02"/>
      <point x="228" y="652"/>
      <point x="179" y="611"/>
      <point x="179" y="547" type="curve" smooth="yes" name="sh02"/>
      <point x="179" y="492"/>
      <point x="212" y="453"/>
      <point x="280" y="428" type="curve" smooth="yes"/>
      <point x="373" y="394" type="line" smooth="yes" name="sv04"/>
      <point x="474" y="357"/>
      <point x="530" y="281"/>
      <point x="530" y="183" type="curve" smooth="yes" name="dh04"/>
      <point x="530" y="66"/>
      <point x="440" y="-10"/>
    </contour>
  </outline>
</glyph>
<glyph name="ampersand" format="2">
  <advance width="600" height="975"/>
  <unicode hex="0026"/>
  <outline>
    <contour>
      <point x="100" y="565.478" type="curve" smooth="yes" name="ih01"/>
      <point x="100" y="662"/>
      <point x="169" y="730"/>
      <point x="280" y="730" type="curve" smooth="yes" name="at01"/>
      <point x="398" y="730"/>
      <point x="469" y="662"/>
      <point x="469" y="559" type="curve" name="sv01"/>
      <point x="379" y="559" type="line" name="dh03"/>
      <point x="379" y="613"/>
      <point x="341" y="652"/>
      <point x="280" y="652" type="curve" smooth="yes" name="sv02"/>
      <point x="225" y="652"/>
      <point x="190" y="613"/>
      <point x="190" y="563.175" type="curve" smooth="yes" name="sh01"/>
      <point x="190" y="534"/>
      <point x="202" y="502"/>
      <point x="225" y="470" type="curve" smooth="yes"/>
      <point x="566" y="0" type="line" name="iv01"/>
      <point x="467" y="0" type="line" name="ab02"/>
      <point x="154" y="426" type="line" smooth="yes"/>
      <point x="114" y="481"/>
      <point x="100" y="522"/>
    </contour>
    <contour>
      <point x="55" y="280" type="line" smooth="yes" name="dh01"/>
      <point x="55" y="371"/>
      <point x="120" y="425"/>
      <point x="230" y="425" type="curve" smooth="yes"/>
      <point x="245" y="425" type="line" name="dv02"/>
      <point x="245" y="370" type="line" name="dv01"/>
      <point x="231" y="370" type="line" smooth="yes"/>
      <point x="177" y="370"/>
      <point x="145" y="337"/>
      <point x="145" y="280" type="curve" smooth="yes" name="dh02"/>
      <point x="145" y="155" type="line" smooth="yes"/>
      <point x="145" y="101"/>
      <point x="178" y="70"/>
      <point x="235" y="70" type="curve" smooth="yes" name="sv03"/>
      <point x="280" y="70"/>
      <point x="325" y="102"/>
      <point x="354" y="155" type="curve" smooth="yes"/>
      <point x="468" y="360" type="line" name="sv04"/>
      <point x="562" y="360" type="line" name="iv02"/>
      <point x="433" y="132" type="line"/>
      <point x="382" y="41"/>
      <point x="309" y="-10"/>
      <point x="230" y="-10" type="curve" smooth="yes" name="ab01"/>
      <point x="121" y="-10"/>
      <point x="55" y="52"/>
      <point x="55" y="155" type="curve" smooth="yes"/>
    </contour>
  </outline>
</glyph>
<glyph name="quotesingle" format="2">
  <advance width="600" height="975"/>
  <unicode hex="0027"/>
  <outline>
    <contour>
      <point x="246" y="730" type="line"/>
      <point x="343" y="730" type="line"/>
      <point x="343" y="580" type="line"/>
      <point x="332" y="430" type="line"/>
      <point x="258" y="430" type="line"/>
      <point x="246" y="580" type="line"/>
    </contour>
  </outline>
</glyph>
<glyph name="parenleft" format="2">
  <advance width="600" height="750"/>
  <unicode hex="0028"/>
  <outline>
    <contour>
      <point x="275" y="265" type="curve" smooth="yes"/>
      <point x="275" y="455" type="line" smooth="yes" name="dh02"/>
      <point x="275" y="612"/>
      <point x="357" y="730"/>
      <point x="485" y="760" type="curve"/>
      <point x="485" y="845" type="line"/>
      <point x="300" y="799"/>
      <point x="185" y="650"/>
      <point x="185" y="455" type="curve" smooth="yes" name="dh01"/>
      <point x="185" y="265" type="line" smooth="yes"/>
      <point x="185" y="66"/>
      <point x="296" y="-78"/>
      <point x="485" y="-125" type="curve"/>
      <point x="485" y="-36" type="line"/>
      <point x="356" y="-6"/>
      <point x="275" y="110"/>
    </contour>
  </outline>
</glyph>
<glyph name="hyphen" format="2">
  <advance width="600" height="975"/>
  <unicode hex="002D"/>
  <outline>
    <contour>
      <point x="100" y="370" type="line"/>
      <point x="500" y="370" type="line" name="dv02"/>
      <point x="500" y="290" type="line" name="dv01"/>
      <point x="100" y="290" type="line"/>
    </contour>
  </outline>
</glyph>
<glyph name="period" format="2">
  <advance width="600" height="975"/>
  <unicode hex="002E"/>
  <outline>
    <contour>
      <point x="214" y="79" type="curve" smooth="yes" name="dh01"/>
      <point x="214" y="131"/>
      <point x="248" y="165"/>
      <point x="300" y="165" type="curve" smooth="yes" name="av01"/>
      <point x="352" y="165"/>
      <point x="386" y="131"/>
      <point x="386" y="79" type="curve" smooth="yes" name="dh02"/>
      <point x="386" y="26"/>
      <point x="352" y="-10"/>
      <point x="300" y="-10" type="curve" smooth="yes" name="ab01"/>
      <point x="248" y="-10"/>
      <point x="214" y="26"/>
    </contour>
  </outline>
</glyph>
<glyph name="zero" format="2">
  <advance width="600" height="975"/>
  <unicode hex="0030"/>
  <outline>
    <contour>
      <point x="250" y="380" type="line" smooth="yes" name="sh02"/>
      <point x="250" y="413"/>
      <point x="270" y="435"/>
      <point x="300" y="435" type="curve" smooth="yes" name="dv02"/>
      <point x="330" y="435"/>
      <point x="350" y="413"/>
      <point x="350" y="380" type="curve" smooth="yes" name="sh03"/>
      <point x="350" y="340" type="line" smooth="yes"/>
      <point x="350" y="307"/>
      <point x="330" y="285"/>
      <point x="300" y="285" type="curve" smooth="yes" name="dv01"/>
      <point x="270" y="285"/>
      <point x="250" y="307"/>
      <point x="250" y="340" type="curve" smooth="yes"/>
    </contour>
    <contour>
      <point x="167" y="205" type="line" smooth="yes" name="sh04"/>
      <point x="167" y="124"/>
      <point x="220" y="67"/>
      <point x="300" y="67" type="curve" smooth="yes" name="sv01"/>
      <point x="380" y="67"/>
      <point x="433" y="124"/>
      <point x="433" y="205" type="curve" smooth="yes" name="sh05"/>
      <point x="433" y="515" type="line" smooth="yes" name="sh07"/>
      <point x="433" y="596"/>
      <point x="380" y="653"/>
      <point x="300" y="653" type="curve" smooth="yes" name="sv02"/>
      <point x="220" y="653"/>
      <point x="167" y="596"/>
      <point x="167" y="515" type="curve" smooth="yes"/>
    </contour>
    <contour>
      <point x="80" y="205" type="curve" smooth="yes" name="sh01"/>
      <point x="80" y="515" type="line" smooth="yes"/>
      <point x="80" y="646"/>
      <point x="165" y="730"/>
      <point x="300" y="730" type="curve" smooth="yes" name="at01"/>
      <point x="435" y="730"/>
      <point x="520" y="646"/>
      <point x="520" y="515" type="curve" smooth="yes"/>
      <point x="520" y="205" type="line" smooth="yes" name="sh06"/>
      <point x="520" y="75"/>
      <point x="434" y="-10"/>
      <point x="300" y="-10" type="curve" smooth="yes" name="ab01"/>
      <point x="165" y="-10"/>
      <point x="80" y="74"/>
    </contour>
  </outline>
</glyph>
<glyph name="two" format="2">
  <advance width="600" height="975"/>
  <unicode hex="0032"/>
  <outline>
    <contour>
      <point x="513" y="530" type="curve" smooth="yes" name="sh01"/>
      <point x="513" y="422"/>
      <point x="456" y="326"/>
      <point x="327" y="214" type="curve" smooth="yes"/>
      <point x="206" y="109" type="line" smooth="yes"/>
      <point x="194" y="99"/>
      <point x="168" y="84"/>
      <point x="168" y="84" type="curve"/>
      <point x="168" y="80" type="line"/>
      <point x="168" y="80"/>
      <point x="222" y="82"/>
      <point x="254" y="82" type="curve" smooth="yes" name="sv01"/>
      <point x="520" y="82" type="line" name="sh02"/>
      <point x="520" y="0" type="line" name="ab01"/>
      <point x="70" y="0" type="line" name="sh04"/>
      <point x="70" y="100" type="line"/>
      <point x="260" y="263" type="line" smooth="yes"/>
      <point x="375" y="362"/>
      <point x="420" y="436"/>
      <point x="420" y="529" type="curve" smooth="yes" name="ah01"/>
      <point x="420" y="603"/>
      <point x="372" y="650"/>
      <point x="296" y="650" type="curve" smooth="yes" name="sv02"/>
      <point x="213" y="650"/>
      <point x="158" y="602"/>
      <point x="158" y="530" type="curve" name="sh05"/>
      <point x="65" y="530" type="line" name="sh03"/>
      <point x="69" y="650"/>
      <point x="161" y="730"/>
      <point x="296" y="730" type="curve" smooth="yes" name="at01"/>
      <point x="428" y="730"/>
      <point x="513" y="652"/>
    </contour>
  </outline>
</glyph>
<glyph name="four" format="2">
  <advance width="600" height="975"/>
  <unicode hex="0034"/>
  <outline>
    <contour>
      <point x="175" y="275" type="line"/>
      <point x="175" y="235" type="line"/>
      <point x="410" y="235" type="line" name="dv02"/>
      <point x="410" y="410" type="line" name="dh01"/>
      <point x="500" y="410" type="line" name="dh02"/>
      <point x="500" y="0" type="line" name="ab01"/>
      <point x="410" y="0" type="line" name="sh01"/>
      <point x="410" y="155" type="line" name="dv01"/>
      <point x="85" y="155" type="line"/>
      <point x="85" y="285" type="line"/>
      <point x="369" y="720" type="line" name="at01"/>
      <point x="467" y="720" type="line" name="ih01"/>
    </contour>
  </outline>
</glyph>
<glyph name="five" format="2">
  <advance width="600" height="975"/>
  <unicode hex="0035"/>
  <outline>
    <contour>
      <point x="330.597" y="460" type="curve" smooth="yes" name="dv02"/>
      <point x="452" y="460"/>
      <point x="525" y="379"/>
      <point x="525" y="250" type="curve" smooth="yes"/>
      <point x="525" y="200" type="line" smooth="yes" name="dh02"/>
      <point x="525" y="72"/>
      <point x="436" y="-10"/>
      <point x="298" y="-10" type="curve" smooth="yes" name="ab01"/>
      <point x="176" y="-10"/>
      <point x="92" y="53"/>
      <point x="75" y="150" type="curve"/>
      <point x="170" y="150" type="line"/>
      <point x="183" y="102"/>
      <point x="230" y="70"/>
      <point x="299" y="70" type="curve" smooth="yes" name="sv01"/>
      <point x="380" y="70"/>
      <point x="432" y="120"/>
      <point x="432" y="200" type="curve" smooth="yes" name="dh01"/>
      <point x="432" y="250" type="line" smooth="yes"/>
      <point x="432" y="330"/>
      <point x="380" y="380"/>
      <point x="298" y="380" type="curve" smooth="yes" name="dv01"/>
      <point x="247" y="380"/>
      <point x="208" y="361"/>
      <point x="184" y="325" type="curve"/>
      <point x="92" y="325" type="line"/>
      <point x="97" y="720" type="line" name="at01"/>
      <point x="493" y="720" type="line"/>
      <point x="493" y="638" type="line" name="sv02"/>
      <point x="184" y="638" type="line"/>
      <point x="181" y="384" type="line" name="sv03"/>
      <point x="187" y="384" type="line"/>
      <point x="187" y="384"/>
      <point x="213" y="460"/>
    </contour>
  </outline>
</glyph>
<glyph name="six" format="2">
  <advance width="600" height="975"/>
  <unicode hex="0036"/>
  <outline>
    <contour>
      <point x="301" y="-10" type="curve" smooth="yes" name="ab01"/>
      <point x="164" y="-10"/>
      <point x="70" y="80"/>
      <point x="70" y="215" type="curve" smooth="yes" name="sh01"/>
      <point x="70" y="295"/>
      <point x="109" y="384"/>
      <point x="175" y="493" type="curve" smooth="yes"/>
      <point x="311" y="720" type="line" name="at01"/>
      <point x="420" y="720" type="line" name="ih01"/>
      <point x="268" y="480" type="line" smooth="yes"/>
      <point x="213" y="393"/>
      <point x="199" y="380"/>
      <point x="199" y="380" type="curve" name="iv01"/>
      <point x="214" y="380" type="line"/>
      <point x="214" y="380"/>
      <point x="238" y="436"/>
      <point x="329" y="436" type="curve" smooth="yes" name="dv02"/>
      <point x="446" y="436"/>
      <point x="530" y="348"/>
      <point x="530" y="215" type="curve" smooth="yes" name="sh02"/>
      <point x="530" y="82"/>
      <point x="434" y="-10"/>
    </contour>
    <contour>
      <point x="160" y="215" type="curve" smooth="yes" name="sh03"/>
      <point x="160" y="128"/>
      <point x="218" y="70"/>
      <point x="301" y="70" type="curve" smooth="yes" name="sv01"/>
      <point x="382" y="70"/>
      <point x="440" y="128"/>
      <point x="440" y="215" type="curve" smooth="yes" name="ah01"/>
      <point x="440" y="302"/>
      <point x="382" y="360"/>
      <point x="301" y="360" type="curve" smooth="yes" name="dv01"/>
      <point x="219" y="360"/>
      <point x="160" y="301"/>
    </contour>
  </outline>
</glyph>
<glyph name="eight" format="2">
  <advance width="600" height="975"/>
  <unicode hex="0038"/>
  <outline>
    <contour>
      <point x="300" y="342" type="curve" smooth="yes" name="dv01"/>
      <point x="382" y="342"/>
      <point x="437" y="287"/>
      <point x="437" y="205" type="curve" smooth="yes" name="ih01"/>
      <point x="437" y="124"/>
      <point x="382" y="65"/>
      <point x="300" y="65" type="curve" smooth="yes" name="sv01"/>
      <point x="218" y="65"/>
      <point x="163" y="124"/>
      <point x="163" y="205" type="curve" smooth="yes" name="dh02"/>
      <point x="163" y="287"/>
      <point x="218" y="342"/>
    </contour>
    <contour>
      <point x="300" y="655" type="curve" smooth="yes" name="sv02"/>
      <point x="375" y="655"/>
      <point x="422" y="607"/>
      <point x="422" y="535" type="curve" smooth="yes" name="dh03"/>
      <point x="422" y="462"/>
      <point x="373" y="408"/>
      <point x="300" y="408" type="curve" smooth="yes" name="dv02"/>
      <point x="227" y="408"/>
      <point x="178" y="462"/>
      <point x="178" y="535" type="curve" smooth="yes" name="sh01"/>
      <point x="178" y="607"/>
      <point x="225" y="655"/>
    </contour>
    <contour>
      <point x="300" y="730" type="curve" smooth="yes" name="at01"/>
      <point x="172" y="730"/>
      <point x="85" y="653"/>
      <point x="85" y="539" type="curve" smooth="yes" name="ih02"/>
      <point x="85" y="459"/>
      <point x="137" y="392"/>
      <point x="215" y="379" type="curve"/>
      <point x="215" y="374" type="line" name="iv01"/>
      <point x="128" y="360"/>
      <point x="70" y="289"/>
      <point x="70" y="197" type="curve" smooth="yes" name="dh01"/>
      <point x="70" y="73"/>
      <point x="159" y="-10"/>
      <point x="300" y="-10" type="curve" smooth="yes" name="ab01"/>
      <point x="441" y="-10"/>
      <point x="530" y="76"/>
      <point x="530" y="200" type="curve" smooth="yes" name="sh02"/>
      <point x="530" y="291"/>
      <point x="473" y="360"/>
      <point x="385" y="374" type="curve"/>
      <point x="385" y="379" type="line" name="iv02"/>
      <point x="463" y="392"/>
      <point x="515" y="458"/>
      <point x="515" y="539" type="curve" smooth="yes" name="dh04"/>
      <point x="515" y="653"/>
      <point x="428" y="730"/>
    </contour>
  </outline>
</glyph>
<glyph name="colon" format="2">
  <advance width="600" height="975"/>
  <unicode hex="003A"/>
  <outline>
    <contour>
      <point x="218" y="479" type="curve" smooth="yes" name="dh01"/>
      <point x="218" y="527"/>
      <point x="252" y="560"/>
      <point x="300" y="560" type="curve" smooth="yes" name="at01"/>
      <point x="348" y="560"/>
      <point x="382" y="527"/>
      <point x="382" y="479" type="curve" smooth="yes" name="dh02"/>
      <point x="382" y="431"/>
      <point x="348" y="398"/>
      <point x="300" y="398" type="curve" smooth="yes" name="sv01"/>
      <point x="252" y="398"/>
      <point x="218" y="431"/>
    </contour>
    <contour>
      <point x="218" y="71" type="curve" smooth="yes" name="sh01"/>
      <point x="218" y="119"/>
      <point x="252" y="152"/>
      <point x="300" y="152" type="curve" smooth="yes" name="sv02"/>
      <point x="348" y="152"/>
      <point x="382" y="119"/>
      <point x="382" y="71" type="curve" smooth="yes" name="sh02"/>
      <point x="382" y="23"/>
      <point x="348" y="-10"/>
      <point x="300" y="-10" type="curve" smooth="yes" name="ab01"/>
      <point x="252" y="-10"/>
      <point x="218" y="23"/>
    </contour>
  </outline>
</glyph>
<glyph name="semicolon" format="2">
  <advance width="600" height="975"/>
  <unicode hex="003B"/>
  <outline>
    <contour>
      <point x="380" y="151" type="line" name="iv01"/>
      <point x="250" y="-160" type="line" name="av01"/>
      <point x="170" y="-160" type="line"/>
      <point x="250" y="151" type="line"/>
    </contour>
    <contour>
      <point x="218" y="479" type="curve" smooth="yes" name="dh01"/>
      <point x="218" y="526"/>
      <point x="251" y="560"/>
      <point x="300" y="560" type="curve" smooth="yes" name="at01"/>
      <point x="349" y="560"/>
      <point x="382" y="526"/>
      <point x="382" y="479" type="curve" smooth="yes" name="dh02"/>
      <point x="382" y="430"/>
      <point x="348" y="398"/>
      <point x="300" y="398" type="curve" smooth="yes" name="sv01"/>
      <point x="251" y="398"/>
      <point x="218" y="431"/>
    </contour>
  </outline>
</glyph>
<glyph name="greater" format="2">
  <advance width="600" height="975"/>
  <unicode hex="003E"/>
  <outline>
    <contour>
      <point x="450" y="326" type="curve"/>
      <point x="450" y="333" type="line"/>
      <point x="450" y="333"/>
      <point x="427" y="335"/>
      <point x="395" y="351" type="curve" smooth="yes"/>
      <point x="85" y="505" type="line"/>
      <point x="85" y="595" type="line"/>
      <point x="515" y="380" type="line"/>
      <point x="515" y="280" type="line"/>
      <point x="85" y="65" type="line"/>
      <point x="85" y="152" type="line"/>
      <point x="395" y="303" type="line" smooth="yes"/>
      <point x="427" y="319"/>
      <point x="450" y="326"/>
    </contour>
  </outline>
</glyph>
<glyph name="A" format="2">
  <advance width="600" height="975"/>
  <unicode hex="0041"/>
  <outline>
    <contour>
      <point x="240" y="720" type="line" name="at01"/>
      <point x="366" y="720" type="line"/>
      <point x="556" y="0" type="line" name="ab01"/>
      <point x="460" y="0" type="line"/>
      <point x="410" y="203" type="line" name="dv01"/>
      <point x="189" y="203" type="line"/>
      <point x="138" y="0" type="line" name="ab02"/>
      <point x="44" y="0" type="line"/>
    </contour>
    <contour>
      <point x="208" y="278" type="line"/>
      <point x="392" y="278" type="line" name="dv02"/>
      <point x="322" y="563" type="line" smooth="yes"/>
      <point x="308" y="619"/>
      <point x="303" y="660"/>
      <point x="303" y="660" type="curve"/>
      <point x="299" y="660" type="line"/>
      <point x="299" y="660"/>
      <point x="293" y="619"/>
      <point x="279" y="563" type="curve" smooth="yes"/>
    </contour>
  </outline>
</glyph>
<glyph name="B" format="2">
  <advance width="600" height="975"/>
  <unicode hex="0042"/>
  <outline>
    <contour>
      <point x="90" y="720" type="line" name="at01"/>
      <point x="301" y="720" type="line" smooth="yes"/>
      <point x="436" y="720"/>
      <point x="519" y="647"/>
      <point x="519" y="530" type="curve" smooth="yes" name="dh03"/>
      <point x="519" y="445"/>
      <point x="466" y="386"/>
      <point x="386" y="380" type="curve"/>
      <point x="386" y="374" type="line" name="iv01"/>
      <point x="477" y="369"/>
      <point x="532" y="305"/>
      <point x="532" y="203" type="curve" smooth="yes" name="sh01"/>
      <point x="532" y="78"/>
      <point x="448" y="0"/>
      <point x="312" y="0" type="curve" smooth="yes" name="ab01"/>
      <point x="90" y="0" type="line"/>
    </contour>
    <contour>
      <point x="437" y="206" type="curve" smooth="yes" name="ih01"/>
      <point x="437" y="283"/>
      <point x="386" y="330"/>
      <point x="302" y="330" type="curve" smooth="yes" name="dv01"/>
      <point x="179" y="330" type="line" name="sh02"/>
      <point x="179" y="82" type="line" name="sv01"/>
      <point x="302" y="82" type="line" smooth="yes"/>
      <point x="387" y="82"/>
      <point x="437" y="129"/>
    </contour>
    <contour>
      <point x="424" y="523" type="curve" smooth="yes" name="dh02"/>
      <point x="424" y="594"/>
      <point x="376" y="638"/>
      <point x="301" y="638" type="curve" smooth="yes" name="sv02"/>
      <point x="179" y="638" type="line" name="dh01"/>
      <point x="179" y="408" type="line"/>
      <point x="300" y="408" type="line" smooth="yes" name="dv02"/>
      <point x="376" y="408"/>
      <point x="424" y="452"/>
    </contour>
  </outline>
</glyph>
<glyph name="C" format="2">
  <advance width="600" height="975"/>
  <unicode hex="0043"/>
  <outline>
    <contour>
      <point x="306" y="730" type="curve" smooth="yes" name="at01"/>
      <point x="171" y="730"/>
      <point x="86" y="646"/>
      <point x="86" y="515" type="curve" smooth="yes" name="dh01"/>
      <point x="86" y="205" type="line" smooth="yes"/>
      <point x="86" y="74"/>
      <point x="171" y="-10"/>
      <point x="306" y="-10" type="curve" smooth="yes" name="ab01"/>
      <point x="430" y="-10"/>
      <point x="512" y="63"/>
      <point x="526" y="185" type="curve"/>
      <point x="436" y="185" type="line"/>
      <point x="428" y="113"/>
      <point x="379" y="70"/>
      <point x="306" y="70" type="curve" smooth="yes" name="sv01"/>
      <point x="225" y="70"/>
      <point x="176" y="121"/>
      <point x="176" y="205" type="curve" smooth="yes"/>
      <point x="176" y="515" type="line" smooth="yes" name="dh02"/>
      <point x="176" y="599"/>
      <point x="226" y="650"/>
      <point x="306" y="650" type="curve" smooth="yes" name="sv02"/>
      <point x="379" y="650"/>
      <point x="428" y="607"/>
      <point x="436" y="535" type="curve"/>
      <point x="526" y="535" type="line"/>
      <point x="512" y="657"/>
      <point x="430" y="730"/>
    </contour>
  </outline>
</glyph>
<glyph name="D" format="2">
  <advance width="600" height="975"/>
  <unicode hex="0044"/>
  <outline>
    <contour>
      <point x="289" y="80" type="curve" smooth="yes" name="sv01"/>
      <point x="178" y="80" type="line"/>
      <point x="178" y="640" type="line" name="sv02"/>
      <point x="289" y="640" type="line" smooth="yes"/>
      <point x="373" y="640"/>
      <point x="429" y="584"/>
      <point x="429" y="501" type="curve" smooth="yes" name="ah01"/>
      <point x="429" y="220" type="line" smooth="yes"/>
      <point x="429" y="136"/>
      <point x="373" y="80"/>
    </contour>
    <contour>
      <point x="289" y="0" type="line" smooth="yes" name="ab01"/>
      <point x="428" y="0"/>
      <point x="520" y="88"/>
      <point x="520" y="220" type="curve" smooth="yes"/>
      <point x="520" y="501" type="line" smooth="yes" name="sh02"/>
      <point x="520" y="632"/>
      <point x="428" y="720"/>
      <point x="289" y="720" type="curve" smooth="yes" name="at01"/>
      <point x="88" y="720" type="line" name="sh01"/>
      <point x="88" y="0" type="line"/>
    </contour>
  </outline>
</glyph>
<glyph name="I" format="2">
  <advance width="600" height="975"/>
  <unicode hex="0049"/>
  <outline>
    <contour>
      <point x="95" y="720" type="line" name="at01"/>
      <point x="505" y="720" type="line"/>
      <point x="505" y="641" type="line" name="sv01"/>
      <point x="346" y="641" type="line"/>
      <point x="346" y="79" type="line" name="sv02"/>
      <point x="505" y="79" type="line"/>
      <point x="505" y="0" type="line" name="ab01"/>
      <point x="95" y="0" type="line"/>
      <point x="95" y="79" type="line" name="sv03"/>
      <point x="254" y="79" type="line" name="sv04"/>
      <point x="254" y="641" type="line" name="sv05"/>
      <point x="95" y="641" type="line" name="sv06"/>
    </contour>
  </outline>
</glyph>
<glyph name="L" format="2">
  <advance width="600" height="975"/>
  <unicode hex="004C"/>
  <outline>
    <contour>
      <point x="195" y="720" type="line" name="at01"/>
      <point x="195" y="82" type="line" name="sv01"/>
      <point x="535" y="82" type="line"/>
      <point x="535" y="0" type="line" name="ab01"/>
      <point x="105" y="0" type="line" name="dh01"/>
      <point x="105" y="720" type="line"/>
    </contour>
  </outline>
</glyph>
<glyph name="N" format="2">
  <advance width="600" height="975"/>
  <unicode hex="004E"/>
  <outline>
    <contour>
      <point x="515" y="720" type="line" name="at01"/>
      <point x="515" y="0" type="line" name="ab01"/>
      <point x="401" y="0" type="line"/>
      <point x="213" y="484" type="line" smooth="yes" name="mh02"/>
      <point x="190" y="543"/>
      <point x="172" y="621"/>
      <point x="172" y="621" type="curve" name="sh02"/>
      <point x="164" y="621" type="line" name="sh03"/>
      <point x="164" y="621"/>
      <point x="171" y="567"/>
      <point x="171" y="492" type="curve" smooth="yes"/>
      <point x="171" y="0" type="line" name="ab02"/>
      <point x="85" y="0" type="line" name="sh01"/>
      <point x="85" y="720" type="line" name="at02"/>
      <point x="199" y="720" type="line"/>
      <point x="390" y="237" type="line" smooth="yes" name="mh01"/>
      <point x="409" y="189"/>
      <point x="430" y="100"/>
      <point x="430" y="100" type="curve" name="sh04"/>
      <point x="438" y="100" type="line" name="mh03"/>
      <point x="439" y="100"/>
      <point x="429" y="160"/>
      <point x="429" y="230" type="curve" smooth="yes" name="ah01"/>
      <point x="429" y="720" type="line"/>
    </contour>
  </outline>
</glyph>
<glyph name="Q" format="2">
  <advance width="600" height="975"/>
  <unicode hex="0051"/>
  <outline>
    <contour>
      <point x="80" y="205" type="curve" smooth="yes" name="sh01"/>
      <point x="80" y="515" type="line" smooth="yes"/>
      <point x="80" y="646"/>
      <point x="165" y="730"/>
      <point x="300" y="730" type="curve" smooth="yes" name="at01"/>
      <point x="435" y="730"/>
      <point x="520" y="646"/>
      <point x="520" y="515" type="curve" smooth="yes"/>
      <point x="520" y="205" type="line" smooth="yes" name="sh02"/>
      <point x="520" y="115"/>
      <point x="479" y="46"/>
      <point x="409" y="13" type="curve"/>
      <point x="526" y="-165" type="line" name="av01"/>
      <point x="422" y="-165" type="line"/>
      <point x="315" y="-3" type="line" name="ab01"/>
      <point x="325" y="-9" type="line"/>
      <point x="325" y="-9"/>
      <point x="314" y="-10"/>
      <point x="300" y="-10" type="curve" smooth="yes" name="ab02"/>
      <point x="165" y="-10"/>
      <point x="80" y="74"/>
    </contour>
    <contour>
      <point x="170" y="515" type="curve" smooth="yes"/>
      <point x="170" y="205" type="line" smooth="yes" name="sh03"/>
      <point x="170" y="123"/>
      <point x="221" y="70"/>
      <point x="300" y="70" type="curve" smooth="yes" name="sv01"/>
      <point x="379" y="70"/>
      <point x="430" y="123"/>
      <point x="430" y="205" type="curve" smooth="yes" name="ah01"/>
      <point x="430" y="515" type="line" smooth="yes"/>
      <point x="430" y="597"/>
      <point x="379" y="650"/>
      <point x="300" y="650" type="curve" smooth="yes" name="sv02"/>
      <point x="221" y="650"/>
      <point x="170" y="597"/>
    </contour>
  </outline>
</glyph>
<glyph name="S" format="2">
  <advance width="600" height="975"/>
  <unicode hex="0053"/>
  <outline>
    <contour>
      <point x="300" y="-10" type="curve" smooth="yes" name="ab01"/>
      <point x="164" y="-10"/>
      <point x="72" y="68"/>
      <point x="70" y="185" type="curve" name="dh01"/>
      <point x="165" y="185" type="line" name="dh02"/>
      <point x="165" y="116"/>
      <point x="220" y="70"/>
      <point x="302" y="70" type="curve" smooth="yes" name="sv01"/>
      <point x="387" y="70"/>
      <point x="438" y="112"/>
      <point x="438" y="180.043" type="curve" smooth="yes" name="sh01"/>
      <point x="438" y="238"/>
      <point x="401" y="286"/>
      <point x="341" y="307" type="curve" smooth="yes"/>
      <point x="256" y="337" type="line" smooth="yes" name="sv03"/>
      <point x="147" y="376"/>
      <point x="92" y="444"/>
      <point x="92" y="540" type="curve" smooth="yes" name="ih01"/>
      <point x="92" y="656"/>
      <point x="174" y="730"/>
      <point x="305" y="730" type="curve" smooth="yes" name="at01"/>
      <point x="433" y="730"/>
      <point x="519" y="654"/>
      <point x="521" y="539" type="curve"/>
      <point x="426" y="539" type="line" name="dh03"/>
      <point x="426" y="606"/>
      <point x="377" y="650"/>
      <point x="304" y="650" type="curve" smooth="yes" name="sv02"/>
      <point x="230" y="650"/>
      <point x="182" y="610"/>
      <point x="182" y="548" type="curve" smooth="yes" name="sh02"/>
      <point x="182" y="490"/>
      <point x="212" y="452"/>
      <point x="284" y="426" type="curve" smooth="yes"/>
      <point x="373" y="394" type="line" smooth="yes" name="sv04"/>
      <point x="474" y="358"/>
      <point x="530" y="283"/>
      <point x="530" y="183" type="curve" smooth="yes" name="dh04"/>
      <point x="530" y="64"/>
      <point x="442" y="-10"/>
    </contour>
  </outline>
</glyph>
<glyph name="T" format="2">
  <advance width="600" height="975"/>
  <unicode hex="0054"/>
  <outline>
    <contour>
      <point x="45" y="720" type="line" name="at01"/>
      <point x="555" y="720" type="line"/>
      <point x="555" y="641" type="line" name="sv01"/>
      <point x="346" y="641" type="line"/>
      <point x="346" y="0" type="line" name="ab01"/>
      <point x="254" y="0" type="line" name="dh01"/>
      <point x="254" y="641" type="line" name="sv02"/>
      <point x="45" y="641" type="line" name="sv03"/>
    </contour>
  </outline>
</glyph>
<glyph name="U" format="2">
  <advance width="600" height="975"/>
  <unicode hex="0055"/>
  <outline>
    <contour>
      <point x="300" y="70" type="curve" smooth="yes" name="sv01"/>
      <point x="219" y="70"/>
      <point x="175" y="120"/>
      <point x="175" y="200" type="curve" smooth="yes"/>
      <point x="175" y="720" type="line" name="at01"/>
      <point x="85" y="720" type="line" name="sh01"/>
      <point x="85" y="200" type="line" smooth="yes"/>
      <point x="85" y="70"/>
      <point x="164" y="-10"/>
      <point x="300" y="-10" type="curve" smooth="yes" name="ab01"/>
      <point x="437" y="-10"/>
      <point x="515" y="69"/>
      <point x="515" y="200" type="curve" smooth="yes"/>
      <point x="515" y="720" type="line" name="at02"/>
      <point x="425" y="720" type="line" name="ah01"/>
      <point x="425" y="200" type="line" smooth="yes"/>
      <point x="425" y="120"/>
      <point x="380" y="70"/>
    </contour>
  </outline>
</glyph>
<glyph name="X" format="2">
  <advance width="600" height="975"/>
  <unicode hex="0058"/>
  <outline>
    <contour>
      <point x="40" y="0" type="line" name="ab01"/>
      <point x="250" y="367" type="line"/>
      <point x="51" y="720" type="line" name="at01"/>
      <point x="155" y="720" type="line"/>
      <point x="268" y="511" type="line" smooth="yes"/>
      <point x="285" y="480"/>
      <point x="300" y="447"/>
      <point x="300" y="447" type="curve"/>
      <point x="303" y="447" type="line"/>
      <point x="303" y="447"/>
      <point x="318" y="479"/>
      <point x="335" y="511" type="curve" smooth="yes"/>
      <point x="450" y="720" type="line" name="at02"/>
      <point x="549" y="720" type="line"/>
      <point x="350" y="373" type="line"/>
      <point x="560" y="0" type="line" name="ab02"/>
      <point x="457" y="0" type="line"/>
      <point x="332" y="229" type="line" smooth="yes"/>
      <point x="315" y="260"/>
      <point x="300" y="294"/>
      <point x="300" y="294" type="curve"/>
      <point x="297" y="294" type="line"/>
      <point x="297" y="294"/>
      <point x="282" y="260"/>
      <point x="266" y="230" type="curve" smooth="yes"/>
      <point x="140" y="0" type="line"/>
    </contour>
  </outline>
</glyph>
<glyph name="Z" format="2">
  <advance width="600" height="975"/>
  <unicode hex="005A"/>
  <outline>
    <contour>
      <point x="504" y="720" type="line" name="at01"/>
      <point x="504" y="639" type="line"/>
      <point x="175" y="77" type="line"/>
      <point x="175" y="75" type="line" name="sv01"/>
      <point x="245" y="79" type="line"/>
      <point x="515" y="79" type="line" name="sv02"/>
      <point x="515" y="0" type="line" name="ab01"/>
      <point x="85" y="0" type="line"/>
      <point x="85" y="80" type="line"/>
      <point x="414" y="642" type="line"/>
      <point x="414" y="644" type="line" name="sv03"/>
      <point x="342" y="641" type="line"/>
      <point x="93" y="641" type="line" name="sv04"/>
      <point x="93" y="720" type="line"/>
    </contour>
  </outline>
  <guideline angle="0" x="0" y="672"/>
  <guideline angle="0" x="0" y="32"/>
</glyph>
<glyph name="backslash" format="2">
  <advance width="600" height="975"/>
  <unicode hex="005C"/>
  <outline>
    <contour>
      <point x="170" y="830" type="line" name="av01"/>
      <point x="75" y="830" type="line"/>
      <point x="430" y="-110" type="line" name="av02"/>
      <point x="525" y="-110" type="line"/>
    </contour>
  </outline>
</glyph>
<glyph name="bracketright" format="2">
  <advance width="600" height="975"/>
  <unicode hex="005D"/>
  <outline>
    <contour>
      <point x="395" y="830" type="line" name="dh01"/>
      <point x="150" y="830" type="line" name="dv04"/>
      <point x="150" y="750" type="line" name="dv03"/>
      <point x="305" y="750" type="line" name="sh01"/>
      <point x="305" y="-30" type="line"/>
      <point x="150" y="-30" type="line" name="dv02"/>
      <point x="150" y="-110" type="line" name="dv01"/>
      <point x="395" y="-110" type="line"/>
    </contour>
  </outline>
  <guideline angle="0" x="0" y="865"/>
</glyph>
<glyph name="underscore" format="2">
  <advance width="600" height="975"/>
  <unicode hex="005F"/>
  <outline>
    <contour>
      <point x="60" y="-25" type="line" name="av02"/>
      <point x="540" y="-25" type="line"/>
      <point x="540" y="-100" type="line" name="av01"/>
      <point x="60" y="-100" type="line"/>
    </contour>
  </outline>
</glyph>
<glyph name="grave" format="2">
  <advance width="600" height="975"/>
  <unicode hex="0060"/>
  <outline>
    <contour>
      <point x="170" y="785" type="line"/>
      <point x="280" y="785" type="line"/>
      <point x="390" y="645" type="line"/>
      <point x="300" y="645" type="line"/>
    </contour>
  </outline>
</glyph>
<glyph name="a" format="2">
  <advance width="600" height="975"/>
  <unicode hex="0061"/>
  <outline>
    <contour>
      <point x="60" y="160" type="curve" smooth="yes" name="sh01"/>
      <point x="60" y="264"/>
      <point x="136" y="330"/>
      <point x="255" y="330" type="curve" smooth="yes" name="mv01"/>
      <point x="420" y="330" type="line" name="dv02"/>
      <point x="420" y="375" type="line" smooth="yes" name="ah01"/>
      <point x="420" y="443"/>
      <point x="373" y="483"/>
      <point x="290" y="483" type="curve" smooth="yes" name="sv01"/>
      <point x="229" y="483"/>
      <point x="181" y="459"/>
      <point x="167" y="419" type="curve" name="sv03"/>
      <point x="77" y="419" type="line"/>
      <point x="95" y="505"/>
      <point x="179" y="560"/>
      <point x="292" y="560" type="curve" smooth="yes" name="at01"/>
      <point x="427" y="560"/>
      <point x="510" y="492"/>
      <point x="510" y="380" type="curve" smooth="yes" name="sh02"/>
      <point x="510" y="0" type="line" name="ab02"/>
      <point x="428" y="0" type="line" name="sh06"/>
      <point x="428" y="105" type="line"/>
      <point x="420" y="105" type="line" name="sh03"/>
      <point x="403" y="35"/>
      <point x="332" y="-10"/>
      <point x="241" y="-10" type="curve" smooth="yes" name="ab01"/>
      <point x="131" y="-10"/>
      <point x="60" y="57"/>
    </contour>
    <contour>
      <point x="261" y="64" type="curve" smooth="yes" name="sv02"/>
      <point x="351" y="64"/>
      <point x="420" y="116"/>
      <point x="420" y="185" type="curve" smooth="yes" name="sh04"/>
      <point x="420" y="260" type="line" name="dv01"/>
      <point x="257" y="260" type="line" smooth="yes" name="mv02"/>
      <point x="191" y="260"/>
      <point x="150" y="223"/>
      <point x="150" y="162" type="curve" smooth="yes" name="sh05"/>
      <point x="150" y="101"/>
      <point x="191" y="64"/>
    </contour>
  </outline>
</glyph>
<glyph name="b" format="2">
  <advance width="600" height="975"/>
  <unicode hex="0062"/>
  <outline>
    <contour>
      <point x="88" y="0" type="line" name="dh01"/>
      <point x="173" y="0" type="line"/>
      <point x="173" y="95" type="line" name="sh01"/>
      <point x="181" y="95" type="line"/>
      <point x="198" y="29"/>
      <point x="254" y="-10"/>
      <point x="335" y="-10" type="curve" smooth="yes" name="ab01"/>
      <point x="446" y="-10"/>
      <point x="520" y="72"/>
      <point x="520" y="205" type="curve" smooth="yes"/>
      <point x="520" y="345" type="line" smooth="yes" name="dh04"/>
      <point x="520" y="478"/>
      <point x="446" y="560"/>
      <point x="335" y="560" type="curve" smooth="yes" name="at02"/>
      <point x="254" y="560"/>
      <point x="198" y="521"/>
      <point x="181" y="455" type="curve"/>
      <point x="173" y="455" type="line"/>
      <point x="173" y="455"/>
      <point x="178" y="521"/>
      <point x="178" y="560" type="curve" smooth="yes" name="at03"/>
      <point x="178" y="720" type="line" name="at01"/>
      <point x="88" y="720" type="line"/>
    </contour>
    <contour>
      <point x="178" y="205" type="curve" smooth="yes" name="dh02"/>
      <point x="178" y="345" type="line" smooth="yes"/>
      <point x="178" y="428"/>
      <point x="227" y="482"/>
      <point x="301" y="482" type="curve" smooth="yes" name="sv01"/>
      <point x="382" y="482"/>
      <point x="430" y="431"/>
      <point x="430" y="345" type="curve" smooth="yes" name="dh03"/>
      <point x="430" y="205" type="line" smooth="yes"/>
      <point x="430" y="121"/>
      <point x="381" y="68"/>
      <point x="301" y="68" type="curve" smooth="yes" name="sv02"/>
      <point x="227" y="68"/>
      <point x="178" y="122"/>
    </contour>
  </outline>
</glyph>
<glyph name="e" format="2">
  <advance width="600" height="975"/>
  <unicode hex="0065"/>
  <outline>
    <contour>
      <point x="169" y="249" type="line" name="dv01"/>
      <point x="520" y="249" type="line"/>
      <point x="520" y="346" type="line" smooth="yes" name="sh02"/>
      <point x="520" y="477"/>
      <point x="435" y="560"/>
      <point x="300" y="560" type="curve" smooth="yes" name="at01"/>
      <point x="165" y="560"/>
      <point x="80" y="477"/>
      <point x="80" y="346" type="curve" smooth="yes" name="sh01"/>
      <point x="80" y="205" type="line" smooth="yes"/>
      <point x="80" y="74"/>
      <point x="165" y="-10"/>
      <point x="300" y="-10" type="curve" smooth="yes" name="ab01"/>
      <point x="410" y="-10"/>
      <point x="494" y="42"/>
      <point x="517" y="125" type="curve" name="iv01"/>
      <point x="427" y="125" type="line" name="sh03"/>
      <point x="408" y="89"/>
      <point x="361" y="67"/>
      <point x="300" y="67" type="curve" smooth="yes" name="sv01"/>
      <point x="220" y="67"/>
      <point x="169" y="120"/>
      <point x="169" y="205" type="curve" smooth="yes"/>
    </contour>
    <contour>
      <point x="169" y="323" type="line" name="dv02"/>
      <point x="169" y="346" type="line" smooth="yes" name="sh04"/>
      <point x="169" y="430"/>
      <point x="220" y="484"/>
      <point x="300" y="484" type="curve" smooth="yes" name="sv02"/>
      <point x="380" y="484"/>
      <point x="431" y="430"/>
      <point x="431" y="346" type="curve" smooth="yes" name="ah01"/>
      <point x="431" y="315" type="line" name="iv02"/>
      <point x="438" y="323" type="line" name="sh05"/>
    </contour>
  </outline>
</glyph>
<glyph name="h" format="2">
  <advance width="600" height="975"/>
  <unicode hex="0068"/>
  <outline>
    <contour>
      <point x="88" y="720" type="line" name="at01"/>
      <point x="178" y="720" type="line" name="dh01"/>
      <point x="178" y="550" type="line" smooth="yes"/>
      <point x="178" y="513"/>
      <point x="173" y="455"/>
      <point x="173" y="455" type="curve"/>
      <point x="181" y="455" type="line"/>
      <point x="198" y="521"/>
      <point x="254" y="560"/>
      <point x="332" y="560" type="curve" smooth="yes" name="at02"/>
      <point x="441" y="560"/>
      <point x="513" y="483"/>
      <point x="513" y="366" type="curve" smooth="yes"/>
      <point x="513" y="0" type="line" name="ab01"/>
      <point x="423" y="0" type="line" name="dh02"/>
      <point x="423" y="351" type="line" smooth="yes"/>
      <point x="423" y="434"/>
      <point x="378" y="484"/>
      <point x="302" y="484" type="curve" smooth="yes" name="sv01"/>
      <point x="226" y="484"/>
      <point x="178" y="430"/>
      <point x="178" y="345" type="curve" smooth="yes" name="sh01"/>
      <point x="178" y="0" type="line" name="ab02"/>
      <point x="88" y="0" type="line"/>
    </contour>
  </outline>
</glyph>
<glyph name="i" format="2">
  <advance width="600" height="750"/>
  <unicode hex="0069"/>
  <outline>
    <contour>
      <point x="120" y="550" type="line" name="at01"/>
      <point x="385" y="550" type="line"/>
      <point x="385" y="82" type="line" name="sv01"/>
      <point x="550" y="82" type="line"/>
      <point x="550" y="0" type="line" name="ab01"/>
      <point x="95" y="0" type="line"/>
      <point x="95" y="82" type="line" name="sv02"/>
      <point x="295" y="82" type="line" name="sv03"/>
      <point x="295" y="468" type="line" name="sv04"/>
      <point x="120" y="468" type="line"/>
    </contour>
    <contour>
      <point x="315" y="765" type="curve" smooth="yes"/>
      <point x="335" y="765" type="line" smooth="yes" name="dv02"/>
      <point x="374" y="765"/>
      <point x="400" y="741"/>
      <point x="400" y="705" type="curve" smooth="yes" name="dh02"/>
      <point x="400" y="669"/>
      <point x="374" y="645"/>
      <point x="335" y="645" type="curve" smooth="yes" name="dv01"/>
      <point x="315" y="645" type="line" smooth="yes" name="sv05"/>
      <point x="275.566" y="645"/>
      <point x="250" y="668.398"/>
      <point x="250" y="704.534" type="curve" smooth="yes" name="dh01"/>
      <point x="250" y="740.9"/>
      <point x="275.893" y="765"/>
    </contour>
  </outline>
</glyph>
<glyph name="k" format="2">
  <advance width="600" height="975"/>
  <unicode hex="006B"/>
  <outline>
    <contour>
      <point x="180" y="720" type="line" name="at01"/>
      <point x="180" y="320" type="line"/>
      <point x="288" y="320" type="line" name="dv02"/>
      <point x="456" y="550" type="line" name="mh01"/>
      <point x="559" y="550" type="line" name="iv01"/>
      <point x="364" y="284" type="line"/>
      <point x="562" y="0" type="line" name="ab01"/>
      <point x="457" y="0" type="line" name="mh02"/>
      <point x="289" y="240" type="line" name="dv01"/>
      <point x="180" y="240" type="line"/>
      <point x="180" y="0" type="line" name="ab02"/>
      <point x="90" y="0" type="line" name="dh01"/>
      <point x="90" y="720" type="line"/>
    </contour>
  </outline>
</glyph>
<glyph name="l" format="2">
  <advance width="600" height="750"/>
  <unicode hex="006C"/>
  <outline>
    <contour>
      <point x="40" y="720" type="line" name="at01"/>
      <point x="40" y="638" type="line" name="sv01"/>
      <point x="222" y="638" type="line" name="dh01"/>
      <point x="222" y="165" type="line" smooth="yes"/>
      <point x="222" y="66"/>
      <point x="290" y="0"/>
      <point x="392" y="0" type="curve" smooth="yes" name="ab01"/>
      <point x="550" y="0" type="line"/>
      <point x="550" y="82" type="line" name="sv02"/>
      <point x="392" y="82" type="line" smooth="yes"/>
      <point x="344" y="82"/>
      <point x="312" y="115"/>
      <point x="312" y="165" type="curve" smooth="yes"/>
      <point x="312" y="720" type="line" name="dh02"/>
    </contour>
  </outline>
</glyph>
<glyph name="o" format="2">
  <advance width="600" height="750"/>
  <unicode hex="006F"/>
  <outline>
    <contour>
      <point x="170" y="205" type="curve" smooth="yes" name="sh02"/>
      <point x="170" y="345" type="line" smooth="yes"/>
      <point x="170" y="429"/>
      <point x="220" y="480"/>
      <point x="300" y="480" type="curve" smooth="yes" name="sv01"/>
      <point x="380" y="480"/>
      <point x="430" y="429"/>
      <point x="430" y="345" type="curve" smooth="yes" name="ah01"/>
      <point x="430" y="205" type="line" smooth="yes" name="mv01"/>
      <point x="430" y="121"/>
      <point x="380" y="70"/>
      <point x="300" y="70" type="curve" smooth="yes" name="sv02"/>
      <point x="219" y="70"/>
      <point x="170" y="121"/>
    </contour>
    <contour>
      <point x="80" y="205" type="line" smooth="yes" name="sh01"/>
      <point x="80" y="73"/>
      <point x="165" y="-10"/>
      <point x="300" y="-10" type="curve" smooth="yes" name="ab01"/>
      <point x="437" y="-10"/>
      <point x="520" y="72"/>
      <point x="520" y="205" type="curve" smooth="yes"/>
      <point x="520" y="346" type="line" smooth="yes" name="sh03"/>
      <point x="520" y="479"/>
      <point x="436" y="560"/>
      <point x="300" y="560" type="curve" smooth="yes" name="at01"/>
      <point x="165" y="560"/>
      <point x="80" y="477"/>
      <point x="80" y="345" type="curve" smooth="yes"/>
    </contour>
  </outline>
</glyph>
<glyph name="p" format="2">
  <advance width="600" height="750"/>
  <unicode hex="0070"/>
  <outline>
    <contour>
      <point x="88" y="550" type="line"/>
      <point x="173" y="550" type="line" name="sh02"/>
      <point x="173" y="455" type="line"/>
      <point x="181" y="455" type="line" name="sh03"/>
      <point x="198" y="521"/>
      <point x="254" y="560"/>
      <point x="335" y="560" type="curve" smooth="yes" name="at01"/>
      <point x="446" y="560"/>
      <point x="520" y="478"/>
      <point x="520" y="345" type="curve" smooth="yes"/>
      <point x="520" y="205" type="line" smooth="yes" name="sh04"/>
      <point x="520" y="72"/>
      <point x="446" y="-10"/>
      <point x="335" y="-10" type="curve" smooth="yes" name="ab02"/>
      <point x="254" y="-10"/>
      <point x="198" y="29"/>
      <point x="181" y="95" type="curve" name="sh05"/>
      <point x="173" y="95" type="line" name="sh06"/>
      <point x="173" y="95"/>
      <point x="178" y="35"/>
      <point x="178" y="0" type="curve" smooth="yes"/>
      <point x="178" y="-170" type="line" name="ab01"/>
      <point x="88" y="-170" type="line" name="sh01"/>
    </contour>
    <contour>
      <point x="178" y="345" type="curve" smooth="yes"/>
      <point x="178" y="205" type="line" smooth="yes" name="sh07"/>
      <point x="178" y="122"/>
      <point x="227" y="68"/>
      <point x="301" y="68" type="curve" smooth="yes" name="sv01"/>
      <point x="381" y="68"/>
      <point x="430" y="121"/>
      <point x="430" y="205" type="curve" smooth="yes" name="ah01"/>
      <point x="430" y="345" type="line" smooth="yes"/>
      <point x="430" y="431"/>
      <point x="382" y="482"/>
      <point x="301" y="482" type="curve" smooth="yes" name="sv02"/>
      <point x="227" y="482"/>
      <point x="178" y="428"/>
    </contour>
  </outline>
</glyph>
<glyph name="r" format="2">
  <advance width="600" height="975"/>
  <unicode hex="0072"/>
  <outline>
    <contour>
      <point x="112" y="0" type="line" name="ab01"/>
      <point x="202" y="0" type="line" name="sh01"/>
      <point x="202" y="345" type="line" smooth="yes"/>
      <point x="202" y="427.939"/>
      <point x="251.94" y="481"/>
      <point x="330" y="481" type="curve" smooth="yes" name="sv01"/>
      <point x="410.852" y="481"/>
      <point x="456" y="434.061"/>
      <point x="456" y="350" type="curve" smooth="yes" name="ah01"/>
      <point x="456" y="325" type="line" name="sv02"/>
      <point x="546" y="325" type="line"/>
      <point x="546" y="361" type="line" smooth="yes" name="sh02"/>
      <point x="546" y="485.52"/>
      <point x="476.385" y="560"/>
      <point x="360" y="560" type="curve" smooth="yes" name="at01"/>
      <point x="283" y="560"/>
      <point x="224" y="520"/>
      <point x="207" y="455" type="curve" name="sh03"/>
      <point x="197" y="455" type="line" name="sh04"/>
      <point x="197" y="550" type="line"/>
      <point x="112" y="550" type="line"/>
    </contour>
  </outline>
</glyph>
<glyph name="s" format="2">
  <advance width="600" height="975"/>
  <unicode hex="0073"/>
  <outline>
    <contour>
      <point x="285" y="-10" type="line" smooth="yes" name="ab01"/>
      <point x="170" y="-10"/>
      <point x="87" y="48"/>
      <point x="77" y="135" type="curve"/>
      <point x="172" y="135" type="line"/>
      <point x="180" y="96"/>
      <point x="226" y="70"/>
      <point x="285" y="70" type="curve" smooth="yes" name="sv01"/>
      <point x="313" y="70" type="line" smooth="yes"/>
      <point x="384" y="70"/>
      <point x="427" y="102"/>
      <point x="427" y="153.377" type="curve" smooth="yes" name="ah01"/>
      <point x="427" y="197"/>
      <point x="396" y="223"/>
      <point x="335" y="232" type="curve" smooth="yes" name="fh03"/>
      <point x="252" y="244" type="line" smooth="yes" name="fh02"/>
      <point x="144" y="260"/>
      <point x="91" y="311"/>
      <point x="91" y="404" type="curve" smooth="yes" name="sh01"/>
      <point x="91" y="502"/>
      <point x="165" y="560"/>
      <point x="290" y="560" type="curve" smooth="yes" name="at01"/>
      <point x="318" y="560" type="line" smooth="yes"/>
      <point x="424" y="560"/>
      <point x="503" y="504"/>
      <point x="516" y="421" type="curve" name="sh03"/>
      <point x="421" y="421" type="line" name="sh04"/>
      <point x="413" y="456"/>
      <point x="372" y="480"/>
      <point x="318" y="480" type="curve" smooth="yes" name="sv02"/>
      <point x="290" y="480" type="line" smooth="yes"/>
      <point x="222" y="480"/>
      <point x="182" y="453"/>
      <point x="182" y="399.944" type="curve" smooth="yes" name="sh05"/>
      <point x="182" y="358"/>
      <point x="207" y="337"/>
      <point x="265" y="329" type="curve" smooth="yes" name="mh01"/>
      <point x="348" y="317" type="line" smooth="yes" name="fh01"/>
      <point x="466" y="300"/>
      <point x="518" y="250"/>
      <point x="518" y="154" type="curve" smooth="yes" name="sh02"/>
      <point x="518" y="52"/>
      <point x="443" y="-10"/>
      <point x="313" y="-10" type="curve" smooth="yes"/>
    </contour>
  </outline>
</glyph>
<glyph name="t" format="2">
  <advance width="600" height="975"/>
  <unicode hex="0074"/>
  <outline>
    <contour>
      <point x="375" y="82" type="curve" smooth="yes" name="sv01"/>
      <point x="515" y="82" type="line"/>
      <point x="515" y="0" type="line" name="ab01"/>
      <point x="375" y="0" type="line" smooth="yes"/>
      <point x="281" y="0"/>
      <point x="220" y="57"/>
      <point x="220" y="142" type="curve" smooth="yes" name="dh01"/>
      <point x="220" y="468" type="line" name="sv02"/>
      <point x="60" y="468" type="line" name="sv03"/>
      <point x="60" y="550" type="line" name="at02"/>
      <point x="220" y="550" type="line" name="sh01"/>
      <point x="220" y="720" type="line" name="at01"/>
      <point x="310" y="720" type="line" name="sh02"/>
      <point x="310" y="550" type="line" name="at03"/>
      <point x="525" y="550" type="line"/>
      <point x="525" y="468" type="line" name="sv04"/>
      <point x="310" y="468" type="line" name="sv05"/>
      <point x="310" y="142" type="line" smooth="yes" name="dh02"/>
      <point x="310" y="105"/>
      <point x="335" y="82"/>
    </contour>
  </outline>
</glyph>
<glyph name="u" format="2">
  <advance width="600" height="975"/>
  <unicode hex="0075"/>
  <outline>
    <contour>
      <point x="299" y="69" type="curve" smooth="yes" name="sv01"/>
      <point x="380" y="69"/>
      <point x="420" y="111"/>
      <point x="420" y="194" type="curve" smooth="yes" name="ah01"/>
      <point x="420" y="550" type="line" name="at01"/>
      <point x="510" y="550" type="line"/>
      <point x="510" y="194" type="line" smooth="yes" name="sh01"/>
      <point x="510" y="64"/>
      <point x="434" y="-10"/>
      <point x="299" y="-10" type="curve" smooth="yes" name="ab01"/>
      <point x="167" y="-10"/>
      <point x="90" y="65"/>
      <point x="90" y="194" type="curve" smooth="yes" name="sh02"/>
      <point x="90" y="550" type="line" name="at02"/>
      <point x="180" y="550" type="line"/>
      <point x="180" y="194" type="line" smooth="yes" name="sh03"/>
      <point x="180" y="110"/>
      <point x="219" y="69"/>
    </contour>
  </outline>
</glyph>
<glyph name="v" format="2">
  <advance width="600" height="975"/>
  <unicode hex="0076"/>
  <outline>
    <contour>
      <point x="299" y="65" type="curve"/>
      <point x="308" y="65" type="line"/>
      <point x="308" y="65"/>
      <point x="305" y="101"/>
      <point x="325" y="161" type="curve" smooth="yes"/>
      <point x="452" y="550" type="line" name="at01"/>
      <point x="550" y="550" type="line"/>
      <point x="353" y="0" type="line" name="ab01"/>
      <point x="251" y="0" type="line"/>
      <point x="50" y="550" type="line" name="at02"/>
      <point x="145" y="550" type="line"/>
      <point x="279" y="161" type="line" smooth="yes"/>
      <point x="300" y="101"/>
      <point x="299" y="65"/>
    </contour>
  </outline>
</glyph>
<glyph name="y" format="2">
  <advance width="600" height="975"/>
  <unicode hex="0079"/>
  <outline>
    <contour>
      <point x="279" y="-170" type="line" name="ab01"/>
      <point x="183" y="-170" type="line"/>
      <point x="260" y="40" type="line"/>
      <point x="47" y="550" type="line" name="at01"/>
      <point x="147" y="550" type="line"/>
      <point x="275" y="229" type="line" smooth="yes"/>
      <point x="299" y="169"/>
      <point x="303" y="117"/>
      <point x="303" y="117" type="curve"/>
      <point x="310" y="117" type="line"/>
      <point x="310" y="117"/>
      <point x="313" y="168"/>
      <point x="336" y="229" type="curve" smooth="yes"/>
      <point x="456" y="550" type="line" name="at02"/>
      <point x="553" y="550" type="line"/>
    </contour>
  </outline>
</glyph>
<glyph name="z" format="2">
  <advance width="600" height="975"/>
  <unicode hex="007A"/>
  <outline>
    <contour>
      <point x="88" y="550" type="line" name="at01"/>
      <point x="509" y="550" type="line"/>
      <point x="509" y="449" type="line"/>
      <point x="170" y="82" type="line" name="sv03"/>
      <point x="170" y="76" type="line"/>
      <point x="170" y="76"/>
      <point x="208" y="80"/>
      <point x="245" y="80" type="curve" smooth="yes" name="sv01"/>
      <point x="520" y="80" type="line"/>
      <point x="520" y="0" type="line" name="ab01"/>
      <point x="80" y="0" type="line"/>
      <point x="80" y="100" type="line"/>
      <point x="415" y="467" type="line" name="sv04"/>
      <point x="415" y="473" type="line"/>
      <point x="415" y="473"/>
      <point x="379" y="470"/>
      <point x="341" y="470" type="curve" smooth="yes" name="sv02"/>
      <point x="88" y="470" type="line"/>
    </contour>
  </outline>
</glyph>
<glyph name="bar" format="2">
  <advance width="600" height="975"/>
  <unicode hex="007C"/>
  <outline>
    <contour>
      <point x="255" y="830" type="line" name="av01"/>
      <point x="345" y="830" type="line" name="dh01"/>
      <point x="345" y="-110" type="line" name="av02"/>
      <point x="255" y="-110" type="line"/>
    </contour>
  </outline>
</glyph>
<glyph name="braceright" format="2">
  <advance width="600" height="975"/>
  <unicode hex="007D"/>
  <outline>
    <contour>
      <point x="85" y="830" type="line" name="at01"/>
      <point x="130" y="830" type="line" smooth="yes" name="dv04"/>
      <point x="248" y="830"/>
      <point x="321" y="769"/>
      <point x="315" y="664" type="curve" smooth="yes"/>
      <point x="305" y="500" type="line" smooth="yes"/>
      <point x="301" y="429"/>
      <point x="318" y="400"/>
      <point x="405" y="400" type="curve" smooth="yes" name="dv08"/>
      <point x="515" y="400" type="line"/>
      <point x="515" y="320" type="line"/>
      <point x="405" y="320" type="line" smooth="yes" name="dv05"/>
      <point x="319" y="320"/>
      <point x="301" y="291"/>
      <point x="305" y="220" type="curve" smooth="yes"/>
      <point x="315" y="56" type="line" smooth="yes"/>
      <point x="321" y="-49"/>
      <point x="248" y="-110"/>
      <point x="130" y="-110" type="curve" smooth="yes" name="dv01"/>
      <point x="85" y="-110" type="line"/>
      <point x="85" y="-30" type="line" name="sv01"/>
      <point x="130" y="-30" type="line" smooth="yes" name="dv02"/>
      <point x="193" y="-30"/>
      <point x="228" y="-1"/>
      <point x="225" y="56" type="curve" smooth="yes"/>
      <point x="215" y="220" type="line" smooth="yes"/>
      <point x="211" y="293"/>
      <point x="251" y="353"/>
      <point x="330" y="356" type="curve" name="dv06"/>
      <point x="330" y="361" type="line" name="dv07"/>
      <point x="250" y="364"/>
      <point x="211" y="427"/>
      <point x="215" y="500" type="curve" smooth="yes"/>
      <point x="225" y="664" type="line" smooth="yes"/>
      <point x="228" y="721"/>
      <point x="193" y="750"/>
      <point x="130" y="750" type="curve" smooth="yes" name="dv03"/>
      <point x="85" y="750" type="line"/>
    </contour>
  </outline>
  <guideline angle="0" x="0" y="830"/>
  <guideline angle="0" x="0" y="-110"/>
</glyph>
<glyph name="asciitilde" format="2">
  <advance width="600" height="975"/>
  <unicode hex="007E"/>
  <outline>
    <contour>
      <point x="405" y="250" type="curve" smooth="yes" name="dv01"/>
      <point x="280" y="250"/>
      <point x="265" y="380"/>
      <point x="197" y="380" type="curve" smooth="yes" name="dv03"/>
      <point x="167" y="380"/>
      <point x="150" y="361"/>
      <point x="150" y="325" type="curve" smooth="yes"/>
      <point x="150" y="255" type="line" name="sv01"/>
      <point x="65" y="255" type="line" name="sh01"/>
      <point x="65" y="325" type="line" smooth="yes"/>
      <point x="65" y="403"/>
      <point x="117" y="455"/>
      <point x="195" y="455" type="curve" smooth="yes" name="dv04"/>
      <point x="320" y="455"/>
      <point x="335" y="325"/>
      <point x="403" y="325" type="curve" smooth="yes" name="dv02"/>
      <point x="433" y="325"/>
      <point x="450" y="344"/>
      <point x="450" y="380" type="curve" smooth="yes" name="ah01"/>
      <point x="450" y="450" type="line" name="sv02"/>
      <point x="535" y="450" type="line"/>
      <point x="535" y="380" type="line" smooth="yes" name="sh02"/>
      <point x="535" y="303"/>
      <point x="483" y="250"/>
    </contour>
  </outline>
</glyph>
<glyph name="exclamdown" format="2">
  <advance width="600" height="975"/>
  <unicode hex="00A1"/>
  <outline>
    <contour>
      <point x="353" y="-170" type="line"/>
      <point x="247" y="-170" type="line"/>
      <point x="247" y="-50" type="line"/>
      <point x="268" y="335" type="line"/>
      <point x="332" y="335" type="line"/>
      <point x="353" y="-50" type="line"/>
    </contour>
    <contour>
      <point x="310" y="435" type="curve" smooth="yes"/>
      <point x="290" y="435" type="line" smooth="yes"/>
      <point x="251" y="435"/>
      <point x="225" y="460"/>
      <point x="225" y="496" type="curve" smooth="yes"/>
      <point x="225" y="532"/>
      <point x="251" y="555"/>
      <point x="290" y="555" type="curve" smooth="yes"/>
      <point x="310" y="555" type="line" smooth="yes"/>
      <point x="349" y="555"/>
      <point x="375" y="533"/>
      <point x="375" y="496.5" type="curve" smooth="yes"/>
      <point x="375" y="460"/>
      <point x="349" y="435"/>
    </contour>
  </outline>
</glyph>
<glyph name="cent" format="2">
  <advance width="600" height="985"/>
  <unicode hex="00A2"/>
  <outline>
    <contour>
      <point x="275" y="690" type="line"/>
      <point x="340" y="690" type="line"/>
      <point x="340" y="-140" type="line"/>
      <point x="275" y="-140" type="line"/>
    </contour>
    <contour>
      <point x="308" y="480" type="curve" smooth="yes" name="sv01"/>
      <point x="228" y="480"/>
      <point x="178" y="429"/>
      <point x="178" y="345" type="curve" smooth="yes" name="dh02"/>
      <point x="178" y="205" type="line" smooth="yes"/>
      <point x="178" y="121"/>
      <point x="227" y="70"/>
      <point x="308" y="70" type="curve" smooth="yes" name="sv02"/>
      <point x="377" y="70"/>
      <point x="429" y="112"/>
      <point x="438" y="175" type="curve"/>
      <point x="528" y="175" type="line"/>
      <point x="511" y="60"/>
      <point x="427" y="-10"/>
      <point x="308" y="-10" type="curve" smooth="yes" name="ab01"/>
      <point x="173" y="-10"/>
      <point x="88" y="74"/>
      <point x="88" y="205" type="curve" smooth="yes"/>
      <point x="88" y="345" type="line" smooth="yes" name="dh01"/>
      <point x="88" y="476"/>
      <point x="173" y="560"/>
      <point x="308" y="560" type="curve" smooth="yes" name="at01"/>
      <point x="428" y="560"/>
      <point x="512" y="489"/>
      <point x="528" y="375" type="curve"/>
      <point x="438" y="375" type="line"/>
      <point x="429" y="438"/>
      <point x="377" y="480"/>
    </contour>
  </outline>
</glyph>
<glyph name="sterling" format="2">
  <advance width="600" height="985"/>
  <unicode hex="00A3"/>
  <outline>
    <contour>
      <point x="75" y="100" type="curve"/>
      <point x="75" y="0" type="line"/>
      <point x="535" y="0" type="line"/>
      <point x="535" y="80" type="line"/>
      <point x="165" y="80" type="line"/>
      <point x="165" y="80"/>
      <point x="275" y="124"/>
      <point x="275" y="243" type="curve" smooth="yes"/>
      <point x="275" y="402"/>
      <point x="177" y="402"/>
      <point x="177" y="525" type="curve" smooth="yes"/>
      <point x="177" y="599"/>
      <point x="225" y="640"/>
      <point x="299" y="640" type="curve" smooth="yes"/>
      <point x="372" y="640"/>
      <point x="421" y="596"/>
      <point x="421" y="529" type="curve"/>
      <point x="516" y="529" type="line"/>
      <point x="514" y="648"/>
      <point x="432" y="720"/>
      <point x="300" y="720" type="curve" smooth="yes"/>
      <point x="167" y="720"/>
      <point x="86" y="648"/>
      <point x="86" y="519" type="curve" smooth="yes"/>
      <point x="86" y="402"/>
      <point x="184" y="378"/>
      <point x="184" y="234" type="curve" smooth="yes"/>
      <point x="184" y="166"/>
      <point x="75" y="100"/>
    </contour>
    <contour>
      <point x="75" y="280" type="line"/>
      <point x="435" y="280" type="line"/>
      <point x="435" y="360" type="line"/>
      <point x="75" y="360" type="line"/>
    </contour>
  </outline>
</glyph>
<glyph name="yen" format="2">
  <advance width="600" height="985"/>
  <unicode hex="00A5"/>
  <outline>
    <contour>
      <point x="474" y="720" type="line"/>
      <point x="570" y="720" type="line"/>
      <point x="345" y="270" type="line"/>
      <point x="345" y="0" type="line"/>
      <point x="255" y="0" type="line"/>
      <point x="255" y="270" type="line"/>
      <point x="30" y="720" type="line"/>
      <point x="125" y="720" type="line"/>
      <point x="273" y="423" type="line" smooth="yes"/>
      <point x="291" y="387"/>
      <point x="300" y="344"/>
      <point x="300" y="344" type="curve"/>
      <point x="304" y="344" type="line"/>
      <point x="304" y="344"/>
      <point x="314" y="387"/>
      <point x="331" y="423" type="curve" smooth="yes"/>
    </contour>
    <contour>
      <point x="60" y="195" type="line"/>
      <point x="540" y="195" type="line"/>
      <point x="540" y="120" type="line"/>
      <point x="60" y="120" type="line"/>
    </contour>
    <contour>
      <point x="60" y="345" type="line"/>
      <point x="540" y="345" type="line"/>
      <point x="540" y="270" type="line"/>
      <point x="60" y="270" type="line"/>
    </contour>
  </outline>
</glyph>
<glyph name="section" format="2">
  <advance width="600" height="985"/>
  <unicode hex="00A7"/>
  <outline>
    <contour>
      <point x="77" y="-10" type="curve"/>
      <point x="172" y="-10" type="line"/>
      <point x="184" y="-54"/>
      <point x="229" y="-84"/>
      <point x="285" y="-84" type="curve" smooth="yes"/>
      <point x="315" y="-84" type="line" smooth="yes"/>
      <point x="391" y="-84"/>
      <point x="432" y="-50"/>
      <point x="432" y="2" type="curve" smooth="yes"/>
      <point x="432" y="50"/>
      <point x="398" y="82"/>
      <point x="331" y="95" type="curve" smooth="yes"/>
      <point x="255" y="110" type="line" smooth="yes"/>
      <point x="154" y="130"/>
      <point x="86" y="196"/>
      <point x="86" y="275" type="curve" smooth="yes"/>
      <point x="86" y="351"/>
      <point x="141" y="412"/>
      <point x="215" y="419" type="curve"/>
      <point x="215" y="426" type="line"/>
      <point x="215" y="426"/>
      <point x="90" y="424"/>
      <point x="90" y="569" type="curve" smooth="yes"/>
      <point x="90" y="667"/>
      <point x="164" y="730"/>
      <point x="289" y="730" type="curve" smooth="yes"/>
      <point x="319" y="730" type="line" smooth="yes"/>
      <point x="424" y="730"/>
      <point x="503" y="672"/>
      <point x="517" y="585" type="curve"/>
      <point x="422" y="585" type="line"/>
      <point x="412" y="624"/>
      <point x="371" y="650"/>
      <point x="319" y="650" type="curve" smooth="yes"/>
      <point x="289" y="650" type="line" smooth="yes"/>
      <point x="221" y="650"/>
      <point x="181" y="618"/>
      <point x="181" y="568" type="curve" smooth="yes"/>
      <point x="181" y="525"/>
      <point x="217" y="491"/>
      <point x="278" y="479" type="curve" smooth="yes"/>
      <point x="352" y="464" type="line" smooth="yes"/>
      <point x="453" y="444"/>
      <point x="521" y="377"/>
      <point x="521" y="298" type="curve" smooth="yes"/>
      <point x="521" y="221"/>
      <point x="468" y="160"/>
      <point x="388" y="160" type="curve"/>
      <point x="388" y="153" type="line"/>
      <point x="388" y="153"/>
      <point x="523" y="145"/>
      <point x="523" y="5" type="curve" smooth="yes"/>
      <point x="523" y="-99"/>
      <point x="446" y="-164"/>
      <point x="315" y="-164" type="curve" smooth="yes"/>
      <point x="285" y="-164" type="line" smooth="yes"/>
      <point x="176" y="-164"/>
      <point x="92" y="-102"/>
    </contour>
    <contour>
      <point x="177" y="290" type="curve" smooth="yes"/>
      <point x="177" y="239"/>
      <point x="208" y="199"/>
      <point x="254" y="190" type="curve" smooth="yes"/>
      <point x="330" y="175" type="line" smooth="yes"/>
      <point x="389" y="163"/>
      <point x="430" y="218"/>
      <point x="430" y="289" type="curve" smooth="yes"/>
      <point x="430" y="336"/>
      <point x="398" y="374"/>
      <point x="351" y="384" type="curve" smooth="yes"/>
      <point x="277" y="399" type="line" smooth="yes"/>
      <point x="218" y="411"/>
      <point x="177" y="358"/>
    </contour>
  </outline>
</glyph>
<glyph name="dieresis" format="2">
  <advance width="600" height="975"/>
  <unicode hex="00A8"/>
  <outline>
    <contour>
      <point x="140" y="705" type="curve" smooth="yes"/>
      <point x="140" y="741"/>
      <point x="164" y="765"/>
      <point x="200" y="765" type="curve" smooth="yes"/>
      <point x="236" y="765"/>
      <point x="260" y="741"/>
      <point x="260" y="705" type="curve" smooth="yes"/>
      <point x="260" y="669"/>
      <point x="236" y="645"/>
      <point x="200" y="645" type="curve" smooth="yes"/>
      <point x="164" y="645"/>
      <point x="140" y="669"/>
    </contour>
    <contour>
      <point x="340" y="705" type="curve" smooth="yes"/>
      <point x="340" y="741"/>
      <point x="364" y="765"/>
      <point x="400" y="765" type="curve" smooth="yes"/>
      <point x="436" y="765"/>
      <point x="460" y="741"/>
      <point x="460" y="705" type="curve" smooth="yes"/>
      <point x="460" y="669"/>
      <point x="436" y="645"/>
      <point x="400" y="645" type="curve" smooth="yes"/>
      <point x="364" y="645"/>
      <point x="340" y="669"/>
    </contour>
  </outline>
</glyph>
<glyph name="guillemotleft" format="2">
  <advance width="600" height="975"/>
  <unicode hex="00AB"/>
  <outline>
    <contour>
      <point x="30" y="280" type="line"/>
      <point x="232" y="40" type="line"/>
      <point x="337" y="40" type="line"/>
      <point x="160" y="244" type="line" smooth="yes"/>
      <point x="139" y="268"/>
      <point x="125" y="279"/>
      <point x="125" y="279" type="curve"/>
      <point x="125" y="281" type="line"/>
      <point x="125" y="281"/>
      <point x="139" y="291"/>
      <point x="160" y="316" type="curve" smooth="yes"/>
      <point x="337" y="520" type="line"/>
      <point x="231" y="520" type="line"/>
    </contour>
    <contour>
      <point x="263" y="280" type="line"/>
      <point x="465" y="40" type="line"/>
      <point x="570" y="40" type="line"/>
      <point x="393" y="244" type="line" smooth="yes"/>
      <point x="372" y="268"/>
      <point x="358" y="279"/>
      <point x="358" y="279" type="curve"/>
      <point x="358" y="281" type="line"/>
      <point x="358" y="281"/>
      <point x="372" y="291"/>
      <point x="393" y="316" type="curve" smooth="yes"/>
      <point x="570" y="520" type="line"/>
      <point x="464" y="520" type="line"/>
    </contour>
  </outline>
</glyph>
<glyph name="macron" format="2">
  <advance width="600" height="975"/>
  <unicode hex="00AF"/>
  <outline>
    <contour>
      <point x="170" y="745" type="line"/>
      <point x="430" y="745" type="line"/>
      <point x="430" y="670" type="line"/>
      <point x="170" y="670" type="line"/>
    </contour>
  </outline>
</glyph>
<glyph name="threesuperior" format="2">
  <advance width="600" height="985"/>
  <unicode hex="00B3"/>
  <outline>
    <contour>
      <point x="288" y="645" type="curve"/>
      <point x="288" y="638" type="line"/>
      <point x="288" y="638"/>
      <point x="319" y="646"/>
      <point x="338" y="661" type="curve" smooth="yes"/>
      <point x="395" y="705" type="line"/>
      <point x="395" y="765" type="line"/>
      <point x="180" y="765" type="line"/>
      <point x="180" y="715" type="line"/>
      <point x="280" y="715" type="line" smooth="yes"/>
      <point x="316" y="715"/>
      <point x="348" y="726"/>
      <point x="348" y="726" type="curve"/>
      <point x="348" y="719" type="line"/>
      <point x="255" y="655" type="line"/>
      <point x="255" y="595" type="line"/>
      <point x="285" y="595" type="line" smooth="yes"/>
      <point x="324" y="595"/>
      <point x="350" y="573"/>
      <point x="350" y="540" type="curve" smooth="yes"/>
      <point x="350" y="507"/>
      <point x="324" y="485"/>
      <point x="284" y="485" type="curve" smooth="yes"/>
      <point x="243" y="485"/>
      <point x="215" y="507"/>
      <point x="215" y="540" type="curve"/>
      <point x="155" y="540" type="line"/>
      <point x="155" y="477"/>
      <point x="207" y="435"/>
      <point x="284" y="435" type="curve" smooth="yes"/>
      <point x="360" y="435"/>
      <point x="410" y="477"/>
      <point x="410" y="540" type="curve" smooth="yes"/>
      <point x="410" y="603"/>
      <point x="361" y="645"/>
    </contour>
  </outline>
</glyph>
<glyph name="acute" format="2">
  <advance width="600" height="975"/>
  <unicode hex="00B4"/>
  <outline>
    <contour>
      <point x="430" y="785" type="line"/>
      <point x="320" y="785" type="line"/>
      <point x="210" y="645" type="line"/>
      <point x="300" y="645" type="line"/>
    </contour>
  </outline>
</glyph>
<glyph name="paragraph" format="2">
  <advance width="600" height="975"/>
  <unicode hex="00B6"/>
  <outline>
    <contour>
      <point x="335" y="720" type="line"/>
      <point x="255" y="720" type="line" smooth="yes"/>
      <point x="141" y="720"/>
      <point x="65" y="652"/>
      <point x="65" y="550" type="curve" smooth="yes"/>
      <point x="65" y="470" type="line" smooth="yes"/>
      <point x="65" y="368"/>
      <point x="141" y="300"/>
      <point x="255" y="300" type="curve"/>
      <point x="255" y="0" type="line"/>
      <point x="335" y="0" type="line"/>
    </contour>
    <contour>
      <point x="505" y="720" type="line"/>
      <point x="425" y="720" type="line"/>
      <point x="425" y="0" type="line"/>
      <point x="505" y="0" type="line"/>
    </contour>
  </outline>
</glyph>
<glyph name="questiondown" format="2">
  <advance width="600" height="975"/>
  <unicode hex="00BF"/>
  <outline>
    <contour>
      <point x="110" y="40" type="curve" smooth="yes"/>
      <point x="110" y="154"/>
      <point x="186" y="234"/>
      <point x="299" y="240" type="curve"/>
      <point x="299" y="345" type="line"/>
      <point x="389" y="345" type="line"/>
      <point x="389" y="165" type="line"/>
      <point x="339" y="165" type="line" smooth="yes"/>
      <point x="253" y="165"/>
      <point x="200" y="118"/>
      <point x="200" y="40" type="curve" smooth="yes"/>
      <point x="200" y="-38"/>
      <point x="253" y="-85"/>
      <point x="340" y="-85" type="curve" smooth="yes"/>
      <point x="465" y="-85" type="line"/>
      <point x="465" y="-170" type="line"/>
      <point x="340" y="-170" type="line" smooth="yes"/>
      <point x="198" y="-170"/>
      <point x="110" y="-89"/>
    </contour>
    <contour>
      <point x="355" y="435" type="curve" smooth="yes"/>
      <point x="335" y="435" type="line" smooth="yes"/>
      <point x="296" y="435"/>
      <point x="270" y="460"/>
      <point x="270" y="496" type="curve" smooth="yes"/>
      <point x="270" y="532"/>
      <point x="296" y="555"/>
      <point x="335" y="555" type="curve" smooth="yes"/>
      <point x="355" y="555" type="line" smooth="yes"/>
      <point x="394" y="555"/>
      <point x="420" y="533"/>
      <point x="420" y="496.5" type="curve" smooth="yes"/>
      <point x="420" y="460"/>
      <point x="394" y="435"/>
    </contour>
  </outline>
</glyph>
<glyph name="Thorn" format="2">
  <advance width="600" height="975"/>
  <unicode hex="00DE"/>
  <outline>
    <contour>
      <point x="180" y="0" type="line"/>
      <point x="90" y="0" type="line"/>
      <point x="90" y="710" type="line"/>
      <point x="180" y="710" type="line"/>
      <point x="180" y="575" type="line"/>
      <point x="333" y="575" type="line" smooth="yes"/>
      <point x="464" y="575"/>
      <point x="550" y="495"/>
      <point x="550" y="375" type="curve" smooth="yes"/>
      <point x="550" y="253"/>
      <point x="465" y="175"/>
      <point x="333" y="175" type="curve" smooth="yes"/>
      <point x="180" y="175" type="line"/>
    </contour>
    <contour>
      <point x="333" y="255" type="line" smooth="yes"/>
      <point x="410" y="255"/>
      <point x="457" y="301"/>
      <point x="457" y="375" type="curve" smooth="yes"/>
      <point x="457" y="449"/>
      <point x="409" y="495"/>
      <point x="333" y="495" type="curve" smooth="yes"/>
      <point x="180" y="495" type="line"/>
      <point x="180" y="255" type="line"/>
    </contour>
  </outline>
</glyph>
<glyph name="germandbls" format="2">
  <advance width="600" height="975"/>
  <unicode hex="00DF"/>
  <outline>
    <contour>
      <point x="55" y="551" type="line" smooth="yes"/>
      <point x="55" y="658"/>
      <point x="131" y="730"/>
      <point x="244" y="730" type="curve" smooth="yes"/>
      <point x="317" y="730" type="line" smooth="yes"/>
      <point x="432" y="730"/>
      <point x="508" y="658"/>
      <point x="508" y="551" type="curve" smooth="yes"/>
      <point x="508" y="470" type="line"/>
      <point x="418" y="470" type="line" smooth="yes"/>
      <point x="359" y="470"/>
      <point x="329" y="446"/>
      <point x="329" y="400" type="curve" smooth="yes"/>
      <point x="329" y="359"/>
      <point x="351" y="335"/>
      <point x="397" y="326" type="curve" smooth="yes"/>
      <point x="431" y="319" type="line" smooth="yes"/>
      <point x="524" y="300"/>
      <point x="575" y="239"/>
      <point x="575" y="151" type="curve" smooth="yes"/>
      <point x="575" y="50"/>
      <point x="512" y="-10"/>
      <point x="405" y="-10" type="curve" smooth="yes"/>
      <point x="304" y="-10"/>
      <point x="236" y="43"/>
      <point x="225" y="130" type="curve"/>
      <point x="320" y="130" type="line"/>
      <point x="327" y="92"/>
      <point x="358" y="70"/>
      <point x="405" y="70" type="curve" smooth="yes"/>
      <point x="457" y="70"/>
      <point x="485" y="98"/>
      <point x="485" y="149" type="curve" smooth="yes"/>
      <point x="485" y="197"/>
      <point x="463" y="225"/>
      <point x="416" y="235" type="curve" smooth="yes"/>
      <point x="383" y="242" type="line" smooth="yes"/>
      <point x="287" y="262"/>
      <point x="238" y="315"/>
      <point x="238" y="399" type="curve" smooth="yes"/>
      <point x="238" y="494"/>
      <point x="304" y="550"/>
      <point x="418" y="550" type="curve"/>
      <point x="418" y="610"/>
      <point x="378" y="650"/>
      <point x="317" y="650" type="curve" smooth="yes"/>
      <point x="244" y="650" type="line" smooth="yes"/>
      <point x="185" y="650"/>
      <point x="145" y="610"/>
      <point x="145" y="550" type="curve" smooth="yes"/>
      <point x="145" y="0" type="line"/>
      <point x="55" y="0" type="line"/>
    </contour>
  </outline>
</glyph>
<glyph name="ae" format="2">
  <advance width="600" height="975"/>
  <unicode hex="00E6"/>
  <outline>
    <contour>
      <point x="343" y="325" type="line"/>
      <point x="480" y="325" type="line"/>
      <point x="480" y="400" type="line" smooth="yes"/>
      <point x="480" y="450"/>
      <point x="454" y="483"/>
      <point x="410" y="483" type="curve" smooth="yes"/>
      <point x="368" y="483"/>
      <point x="343" y="450"/>
      <point x="343" y="400" type="curve" smooth="yes"/>
    </contour>
    <contour>
      <point x="262" y="150" type="curve" smooth="yes"/>
      <point x="262" y="255" type="line"/>
      <point x="190" y="255" type="line" smooth="yes"/>
      <point x="149" y="255"/>
      <point x="125" y="230"/>
      <point x="125" y="190" type="curve" smooth="yes"/>
      <point x="125" y="130" type="line" smooth="yes"/>
      <point x="125" y="91"/>
      <point x="150" y="67"/>
      <point x="190" y="67" type="curve" smooth="yes"/>
      <point x="233" y="67"/>
      <point x="262" y="100"/>
    </contour>
    <contour>
      <point x="343" y="150" type="line" smooth="yes"/>
      <point x="343" y="100"/>
      <point x="370" y="67"/>
      <point x="410" y="67" type="curve" smooth="yes"/>
      <point x="446" y="67"/>
      <point x="474" y="90"/>
      <point x="480" y="125" type="curve"/>
      <point x="565" y="125" type="line"/>
      <point x="556" y="44"/>
      <point x="498" y="-10"/>
      <point x="420" y="-10" type="curve" smooth="yes"/>
      <point x="317" y="-10"/>
      <point x="305" y="70"/>
      <point x="305" y="70" type="curve"/>
      <point x="301" y="70" type="line"/>
      <point x="301" y="70"/>
      <point x="287" y="-10"/>
      <point x="170" y="-10" type="curve" smooth="yes"/>
      <point x="87" y="-10"/>
      <point x="35" y="44"/>
      <point x="35" y="130" type="curve" smooth="yes"/>
      <point x="35" y="190" type="line" smooth="yes"/>
      <point x="35" y="272"/>
      <point x="95" y="325"/>
      <point x="188" y="325" type="curve" smooth="yes"/>
      <point x="262" y="325" type="line"/>
      <point x="262" y="399" type="line" smooth="yes"/>
      <point x="262" y="457"/>
      <point x="241" y="483"/>
      <point x="195" y="483" type="curve" smooth="yes"/>
      <point x="158" y="483"/>
      <point x="136" y="464"/>
      <point x="132" y="425" type="curve"/>
      <point x="47" y="425" type="line"/>
      <point x="56" y="510"/>
      <point x="106" y="560"/>
      <point x="180" y="560" type="curve" smooth="yes"/>
      <point x="287" y="560"/>
      <point x="301" y="480"/>
      <point x="301" y="480" type="curve"/>
      <point x="305" y="480" type="line"/>
      <point x="305" y="480"/>
      <point x="319" y="560"/>
      <point x="420" y="560" type="curve" smooth="yes"/>
      <point x="510" y="560"/>
      <point x="565" y="499"/>
      <point x="565" y="400" type="curve" smooth="yes"/>
      <point x="565" y="255" type="line"/>
      <point x="343" y="255" type="line"/>
    </contour>
  </outline>
  <guideline angle="90" x="303" y="0"/>
</glyph>
<glyph name="eth" format="2">
  <advance width="600" height="975"/>
  <unicode hex="00F0"/>
  <outline>
    <contour>
      <point x="299" y="-10" type="curve" smooth="yes"/>
      <point x="437" y="-10"/>
      <point x="530" y="81"/>
      <point x="530" y="215" type="curve" smooth="yes"/>
      <point x="530" y="294"/>
      <point x="496" y="385"/>
      <point x="425" y="493" type="curve" smooth="yes"/>
      <point x="269" y="730" type="line"/>
      <point x="160" y="730" type="line"/>
      <point x="332" y="480" type="line" smooth="yes"/>
      <point x="380" y="410"/>
      <point x="407" y="380"/>
      <point x="407" y="380" type="curve"/>
      <point x="393" y="380" type="line"/>
      <point x="393" y="380"/>
      <point x="361" y="436"/>
      <point x="281" y="436" type="curve" smooth="yes"/>
      <point x="154" y="436"/>
      <point x="70" y="348"/>
      <point x="70" y="215" type="curve" smooth="yes"/>
      <point x="70" y="79"/>
      <point x="161" y="-10"/>
    </contour>
    <contour>
      <point x="440" y="215" type="curve" smooth="yes"/>
      <point x="440" y="128"/>
      <point x="384" y="70"/>
      <point x="299" y="70" type="curve" smooth="yes"/>
      <point x="216" y="70"/>
      <point x="160" y="128"/>
      <point x="160" y="215" type="curve" smooth="yes"/>
      <point x="160" y="302"/>
      <point x="216" y="360"/>
      <point x="299" y="360" type="curve" smooth="yes"/>
      <point x="384" y="360"/>
      <point x="440" y="302"/>
    </contour>
    <contour>
      <point x="117" y="495" type="line"/>
      <point x="461" y="655" type="line"/>
      <point x="461" y="735" type="line"/>
      <point x="117" y="575" type="line"/>
    </contour>
  </outline>
</glyph>
<glyph name="thorn" format="2">
  <advance width="600" height="975"/>
  <unicode hex="00FE"/>
  <outline>
    <component base="b" xOffset="-5"/>
    <contour>
      <point x="83" y="59" type="line"/>
      <point x="168" y="59" type="line"/>
      <point x="168" y="-170" type="line"/>
      <point x="83" y="-170" type="line"/>
    </contour>
  </outline>
</glyph>
<glyph name="dcaron" format="2">
  <advance width="600" height="975"/>
  <unicode hex="010F"/>
  <outline>
    <component base="d" xOffset="-20"/>
    <contour>
      <point x="654" y="756" type="line"/>
      <point x="584" y="610" type="line"/>
      <point x="514" y="610" type="line"/>
      <point x="564" y="756" type="line"/>
    </contour>
  </outline>
</glyph>
<glyph name="hbar" format="2">
  <advance width="600" height="975"/>
  <unicode hex="0127"/>
  <outline>
    <contour>
      <point x="178" y="600" type="line"/>
      <point x="178" y="550" type="line" smooth="yes"/>
      <point x="178" y="513"/>
      <point x="173" y="455"/>
      <point x="173" y="455" type="curve"/>
      <point x="181" y="455" type="line"/>
      <point x="198" y="521"/>
      <point x="254" y="560"/>
      <point x="332" y="560" type="curve" smooth="yes"/>
      <point x="441" y="560"/>
      <point x="513" y="483"/>
      <point x="513" y="366" type="curve" smooth="yes"/>
      <point x="513" y="0" type="line"/>
      <point x="423" y="0" type="line"/>
      <point x="423" y="351" type="line" smooth="yes"/>
      <point x="423" y="434"/>
      <point x="378" y="484"/>
      <point x="302" y="484" type="curve" smooth="yes"/>
      <point x="226" y="484"/>
      <point x="178" y="430"/>
      <point x="178" y="345" type="curve" smooth="yes"/>
      <point x="178" y="0" type="line"/>
      <point x="88" y="0" type="line"/>
      <point x="88" y="600" type="line"/>
      <point x="20" y="600" type="line"/>
      <point x="20" y="675" type="line"/>
      <point x="88" y="675" type="line"/>
      <point x="88" y="730" type="line"/>
      <point x="178" y="730" type="line"/>
      <point x="178" y="675" type="line"/>
      <point x="280" y="675" type="line"/>
      <point x="280" y="600" type="line"/>
    </contour>
  </outline>
  <guideline angle="0" x="0" y="730"/>
</glyph>
<glyph name="dotlessi" format="2">
  <advance width="600" height="975"/>
  <unicode hex="0131"/>
  <outline>
    <contour>
      <point x="115" y="550" type="line"/>
      <point x="385" y="550" type="line"/>
      <point x="385" y="82" type="line"/>
      <point x="545" y="82" type="line"/>
      <point x="545" y="0" type="line"/>
      <point x="90" y="0" type="line"/>
      <point x="90" y="82" type="line"/>
      <point x="295" y="82" type="line"/>
      <point x="295" y="468" type="line"/>
      <point x="115" y="468" type="line"/>
    </contour>
  </outline>
</glyph>
<glyph name="IJ" format="2">
  <advance width="600" height="985"/>
  <unicode hex="0132"/>
  <outline>
    <contour>
      <point x="162" y="720" type="line"/>
      <point x="162" y="0" type="line"/>
      <point x="70" y="0" type="line"/>
      <point x="70" y="720" type="line"/>
    </contour>
    <contour>
      <point x="320" y="80" type="line" smooth="yes"/>
      <point x="400" y="80"/>
      <point x="445" y="124"/>
      <point x="445" y="201" type="curve" smooth="yes"/>
      <point x="445" y="640" type="line"/>
      <point x="300" y="640" type="line"/>
      <point x="300" y="720" type="line"/>
      <point x="535" y="720" type="line"/>
      <point x="535" y="201" type="line" smooth="yes"/>
      <point x="535" y="72"/>
      <point x="457" y="0"/>
      <point x="320" y="0" type="curve" smooth="yes"/>
      <point x="260" y="0" type="line"/>
      <point x="260" y="80" type="line"/>
    </contour>
  </outline>
</glyph>
<glyph name="ij" format="2">
  <advance width="600" height="985"/>
  <unicode hex="0133"/>
  <outline>
    <contour>
      <point x="105" y="550" type="line"/>
      <point x="105" y="0" type="line"/>
      <point x="195" y="0" type="line"/>
      <point x="195" y="550" type="line"/>
    </contour>
    <contour>
      <point x="140" y="765" type="line" smooth="yes"/>
      <point x="101" y="765"/>
      <point x="75" y="740"/>
      <point x="75" y="703.5" type="curve" smooth="yes"/>
      <point x="75" y="667"/>
      <point x="101" y="645"/>
      <point x="140" y="645" type="curve" smooth="yes"/>
      <point x="160" y="645" type="line" smooth="yes"/>
      <point x="199" y="645"/>
      <point x="225" y="668"/>
      <point x="225" y="704" type="curve" smooth="yes"/>
      <point x="225" y="740"/>
      <point x="199" y="765"/>
      <point x="160" y="765" type="curve" smooth="yes"/>
    </contour>
    <contour>
      <point x="440" y="765" type="line" smooth="yes"/>
      <point x="401" y="765"/>
      <point x="375" y="740"/>
      <point x="375" y="703.5" type="curve" smooth="yes"/>
      <point x="375" y="667"/>
      <point x="401" y="645"/>
      <point x="440" y="645" type="curve" smooth="yes"/>
      <point x="460" y="645" type="line" smooth="yes"/>
      <point x="499" y="645"/>
      <point x="525" y="668"/>
      <point x="525" y="704" type="curve" smooth="yes"/>
      <point x="525" y="740"/>
      <point x="499" y="765"/>
      <point x="460" y="765" type="curve" smooth="yes"/>
    </contour>
    <contour>
      <point x="410" y="550" type="line"/>
      <point x="410" y="30" type="line" smooth="yes"/>
      <point x="410" y="-40"/>
      <point x="366" y="-83"/>
      <point x="295" y="-83" type="curve" smooth="yes"/>
      <point x="210" y="-83" type="line"/>
      <point x="210" y="-165" type="line"/>
      <point x="295" y="-165" type="line" smooth="yes"/>
      <point x="419" y="-165"/>
      <point x="500" y="-88"/>
      <point x="500" y="30" type="curve" smooth="yes"/>
      <point x="500" y="550" type="line"/>
    </contour>
  </outline>
</glyph>
<glyph name="Lslash" format="2">
  <advance width="600" height="975"/>
  <unicode hex="0141"/>
  <outline>
    <component base="L"/>
    <contour>
      <point x="20" y="310" type="line"/>
      <point x="390" y="560" type="line"/>
      <point x="390" y="480" type="line"/>
      <point x="20" y="230" type="line"/>
    </contour>
  </outline>
</glyph>
<glyph name="lslash" format="2">
  <advance width="600" height="975"/>
  <unicode hex="0142"/>
  <outline>
    <component base="l"/>
    <contour>
      <point x="100" y="310" type="line"/>
      <point x="470" y="560" type="line"/>
      <point x="470" y="480" type="line"/>
      <point x="100" y="230" type="line"/>
    </contour>
  </outline>
</glyph>
<glyph name="Eng" format="2">
  <advance width="600"/>
  <unicode hex="014A"/>
  <outline>
    <contour>
      <point x="425" y="25" type="line"/>
      <point x="425" y="-45"/>
      <point x="381" y="-88"/>
      <point x="310" y="-88" type="curve" smooth="yes"/>
      <point x="240" y="-88" type="line"/>
      <point x="240" y="-170" type="line"/>
      <point x="310" y="-170" type="line" smooth="yes"/>
      <point x="434" y="-170"/>
      <point x="515" y="-93"/>
      <point x="515" y="25" type="curve" smooth="yes"/>
      <point x="515" y="720" type="line"/>
      <point x="429" y="720" type="line"/>
      <point x="429" y="280" type="line" smooth="yes"/>
      <point x="429" y="210"/>
      <point x="441" y="150"/>
      <point x="440" y="150" type="curve"/>
      <point x="432" y="150" type="line"/>
      <point x="432" y="150"/>
      <point x="411" y="239"/>
      <point x="390" y="287" type="curve" smooth="yes"/>
      <point x="199" y="720" type="line"/>
      <point x="85" y="720" type="line"/>
      <point x="85" y="0" type="line"/>
      <point x="171" y="0" type="line"/>
      <point x="171" y="492" type="line" smooth="yes"/>
      <point x="171" y="567"/>
      <point x="164" y="621"/>
      <point x="164" y="621" type="curve"/>
      <point x="172" y="621" type="line"/>
      <point x="172" y="621"/>
      <point x="186" y="542"/>
      <point x="213" y="484" type="curve" smooth="yes"/>
    </contour>
  </outline>
</glyph>
<glyph name="tcaron" format="2">
  <advance width="600" height="975"/>
  <unicode hex="0165"/>
  <outline>
    <component base="t"/>
    <contour>
      <point x="580" y="756" type="line"/>
      <point x="510" y="610" type="line"/>
      <point x="440" y="610" type="line"/>
      <point x="490" y="756" type="line"/>
    </contour>
  </outline>
</glyph>
<glyph name="longs" format="2">
  <advance width="600" height="985"/>
  <unicode hex="017F"/>
  <outline>
    <contour>
      <point x="510" y="720" type="line"/>
      <point x="510" y="640" type="line"/>
      <point x="334" y="640" type="line" smooth="yes"/>
      <point x="287" y="640"/>
      <point x="255" y="608"/>
      <point x="255" y="560" type="curve" smooth="yes"/>
      <point x="255" y="0" type="line"/>
      <point x="165" y="0" type="line"/>
      <point x="165" y="561" type="line" smooth="yes"/>
      <point x="165" y="656"/>
      <point x="233" y="720"/>
      <point x="334" y="720" type="curve" smooth="yes"/>
    </contour>
  </outline>
</glyph>
<glyph name="uni018F" format="2">
  <advance width="600"/>
  <unicode hex="018F"/>
  <outline>
    <contour>
      <point x="170" y="317" type="line" name="sh05"/>
      <point x="430" y="317" type="line" name="dv02"/>
      <point x="430" y="204" type="line" smooth="yes" name="sh04"/>
      <point x="430" y="119"/>
      <point x="380" y="66"/>
      <point x="300" y="66" type="curve" smooth="yes" name="sv02"/>
      <point x="220" y="66"/>
      <point x="170" y="119"/>
      <point x="170" y="204" type="curve" smooth="yes" name="ah01"/>
    </contour>
    <contour>
      <point x="300" y="730" type="curve" smooth="yes" name="ab01"/>
      <point x="176" y="730"/>
      <point x="94" y="657"/>
      <point x="80" y="535" type="curve"/>
      <point x="170" y="535" type="line"/>
      <point x="178" y="607"/>
      <point x="227" y="650"/>
      <point x="300" y="650" type="curve" smooth="yes" name="sv01"/>
      <point x="381" y="650"/>
      <point x="431" y="599"/>
      <point x="431" y="515" type="curve" smooth="yes"/>
      <point x="431" y="391" type="line" name="dv01"/>
      <point x="80" y="391" type="line"/>
      <point x="80" y="204" type="line" smooth="yes" name="sh02"/>
      <point x="80" y="73"/>
      <point x="165" y="-10"/>
      <point x="300" y="-10" type="curve" smooth="yes" name="at01"/>
      <point x="435" y="-10"/>
      <point x="520" y="73"/>
      <point x="520" y="204" type="curve" smooth="yes" name="sh01"/>
      <point x="520" y="515" type="line" smooth="yes"/>
      <point x="520" y="646"/>
      <point x="435" y="730"/>
    </contour>
  </outline>
</glyph>
<glyph name="florin" format="2">
  <advance width="600" height="985"/>
  <unicode hex="0192"/>
  <outline>
    <contour>
      <point x="220" y="25" type="line" smooth="yes"/>
      <point x="220" y="-45"/>
      <point x="176" y="-88"/>
      <point x="105" y="-88" type="curve" smooth="yes"/>
      <point x="0" y="-88" type="line"/>
      <point x="0" y="-170" type="line"/>
      <point x="105" y="-170" type="line" smooth="yes"/>
      <point x="229" y="-170"/>
      <point x="310" y="-93"/>
      <point x="310" y="25" type="curve" smooth="yes"/>
      <point x="310" y="413" type="line"/>
      <point x="535" y="413" type="line"/>
      <point x="535" y="495" type="line"/>
      <point x="310" y="495" type="line"/>
      <point x="310" y="580" type="line" smooth="yes"/>
      <point x="310" y="620"/>
      <point x="331" y="640"/>
      <point x="374" y="640" type="curve" smooth="yes"/>
      <point x="535" y="640" type="line"/>
      <point x="535" y="720" type="line"/>
      <point x="374" y="720" type="line" smooth="yes"/>
      <point x="277" y="720"/>
      <point x="220" y="669"/>
      <point x="220" y="581" type="curve" smooth="yes"/>
      <point x="220" y="495" type="line"/>
      <point x="60" y="495" type="line"/>
      <point x="60" y="413" type="line"/>
      <point x="220" y="413" type="line"/>
    </contour>
  </outline>
</glyph>
<glyph name="uni02BA" format="2">
  <advance width="600"/>
  <unicode hex="02BA"/>
  <outline>
    <contour>
      <point x="520" y="720" type="line"/>
      <point x="390" y="409" type="line"/>
      <point x="310" y="409" type="line"/>
      <point x="390" y="720" type="line"/>
    </contour>
    <contour>
      <point x="245" y="720" type="line"/>
      <point x="115" y="409" type="line"/>
      <point x="35" y="409" type="line"/>
      <point x="115" y="720" type="line"/>
    </contour>
  </outline>
</glyph>
<glyph name="uni02BC" format="2">
  <advance width="600"/>
  <unicode hex="02BC"/>
  <outline>
    <contour>
      <point x="375" y="776" type="line"/>
      <point x="245" y="465" type="line"/>
      <point x="165" y="465" type="line"/>
      <point x="245" y="776" type="line"/>
    </contour>
  </outline>
</glyph>
<glyph name="circumflex" format="2">
  <advance width="600" height="975"/>
  <unicode hex="02C6"/>
  <outline>
    <contour>
      <point x="260" y="785" type="line"/>
      <point x="341" y="785" type="line"/>
      <point x="460" y="645" type="line"/>
      <point x="378" y="645" type="line"/>
      <point x="357" y="669.966" type="line" smooth="yes"/>
      <point x="336.092" y="694.822"/>
      <point x="306" y="735"/>
      <point x="306" y="735" type="curve"/>
      <point x="294" y="735" type="line"/>
      <point x="294" y="735"/>
      <point x="263.44" y="694.875"/>
      <point x="243" y="669.666" type="curve" smooth="yes"/>
      <point x="223" y="645" type="line"/>
      <point x="140" y="645" type="line"/>
    </contour>
  </outline>
</glyph>
<glyph name="caron" format="2">
  <advance width="600" height="975"/>
  <unicode hex="02C7"/>
  <outline>
    <contour>
      <point x="340" y="645" type="line"/>
      <point x="259" y="645" type="line"/>
      <point x="140" y="785" type="line"/>
      <point x="222" y="785" type="line"/>
      <point x="243" y="760.034" type="line" smooth="yes"/>
      <point x="263.908" y="735.178"/>
      <point x="295" y="695"/>
      <point x="295" y="695" type="curve"/>
      <point x="307" y="695" type="line"/>
      <point x="307" y="695"/>
      <point x="336.56" y="735.125"/>
      <point x="357" y="760.334" type="curve" smooth="yes"/>
      <point x="377" y="785" type="line"/>
      <point x="460" y="785" type="line"/>
    </contour>
  </outline>
</glyph>
<glyph name="breve" format="2">
  <advance width="600" height="975"/>
  <unicode hex="02D8"/>
  <outline>
    <contour>
      <point x="299" y="706" type="curve" smooth="yes"/>
      <point x="356.6" y="706"/>
      <point x="395" y="735.6"/>
      <point x="395" y="780" type="curve" name="av01"/>
      <point x="465" y="780" type="line"/>
      <point x="465" y="699"/>
      <point x="399" y="645"/>
      <point x="300" y="645" type="curve" smooth="yes" name="av03"/>
      <point x="201" y="645"/>
      <point x="135" y="699"/>
      <point x="135" y="780" type="curve" name="av02"/>
      <point x="205" y="780" type="line"/>
      <point x="205" y="735.6"/>
      <point x="242.6" y="706"/>
    </contour>
  </outline>
</glyph>
<glyph name="dotaccent" format="2">
  <advance width="600" height="975"/>
  <unicode hex="02D9"/>
  <outline>
    <contour>
      <point x="280" y="761" type="curve" smooth="yes"/>
      <point x="300" y="761" type="line" smooth="yes"/>
      <point x="339" y="761"/>
      <point x="365" y="736"/>
      <point x="365" y="700" type="curve" smooth="yes"/>
      <point x="365" y="664"/>
      <point x="339" y="641"/>
      <point x="300" y="641" type="curve" smooth="yes"/>
      <point x="280" y="641" type="line" smooth="yes"/>
      <point x="241" y="641"/>
      <point x="215" y="663"/>
      <point x="215" y="699.5" type="curve" smooth="yes"/>
      <point x="215" y="736"/>
      <point x="241" y="761"/>
    </contour>
  </outline>
</glyph>
<glyph name="tilde" format="2">
  <advance width="600" height="975"/>
  <unicode hex="02DC"/>
  <outline>
    <contour>
      <point x="385" y="705" type="curve" smooth="yes"/>
      <point x="325" y="705"/>
      <point x="305" y="785"/>
      <point x="215" y="785" type="curve" smooth="yes"/>
      <point x="146" y="785"/>
      <point x="105" y="742"/>
      <point x="105" y="665" type="curve" smooth="yes"/>
      <point x="105" y="645" type="line"/>
      <point x="170" y="645" type="line"/>
      <point x="170" y="665" type="line" smooth="yes"/>
      <point x="170" y="700"/>
      <point x="187" y="720"/>
      <point x="215" y="720" type="curve" smooth="yes"/>
      <point x="275" y="720"/>
      <point x="295" y="640"/>
      <point x="385" y="640" type="curve" smooth="yes"/>
      <point x="454" y="640"/>
      <point x="495" y="683"/>
      <point x="495" y="760" type="curve" smooth="yes"/>
      <point x="495" y="780" type="line"/>
      <point x="430" y="780" type="line"/>
      <point x="430" y="760" type="line" smooth="yes"/>
      <point x="430" y="725"/>
      <point x="413" y="705"/>
    </contour>
  </outline>
</glyph>
<glyph name="hungarumlaut" format="2">
  <advance width="600" height="975"/>
  <unicode hex="02DD"/>
  <outline>
    <contour>
      <point x="350" y="785" type="line"/>
      <point x="240" y="785" type="line"/>
      <point x="130" y="645" type="line"/>
      <point x="220" y="645" type="line"/>
    </contour>
    <contour>
      <point x="550" y="785" type="line"/>
      <point x="440" y="785" type="line"/>
      <point x="330" y="645" type="line"/>
      <point x="420" y="645" type="line"/>
    </contour>
  </outline>
</glyph>
<glyph name="uni031B" format="2">
  <advance width="600"/>
  <unicode hex="031B"/>
  <outline>
    <contour>
      <point x="480" y="510" type="line"/>
      <point x="480" y="510"/>
      <point x="502" y="480"/>
      <point x="544" y="480" type="curve" smooth="yes"/>
      <point x="568" y="480"/>
      <point x="580" y="485"/>
      <point x="580" y="515" type="curve" smooth="yes"/>
      <point x="580" y="580" type="line"/>
      <point x="650" y="580" type="line"/>
      <point x="650" y="515" type="line" smooth="yes"/>
      <point x="650" y="452"/>
      <point x="617" y="420"/>
      <point x="571.203" y="420" type="curve" smooth="yes"/>
      <point x="520" y="420"/>
      <point x="480" y="460"/>
      <point x="480" y="460" type="curve"/>
    </contour>
  </outline>
</glyph>
<glyph name="commaaccent" format="2">
  <advance width="600" height="975"/>
  <unicode hex="0326"/>
  <outline>
    <contour>
      <point x="275" y="-94" type="line"/>
      <point x="385" y="-94" type="line"/>
      <point x="305" y="-240" type="line"/>
      <point x="215" y="-240" type="line"/>
    </contour>
  </outline>
</glyph>
<glyph name="lambda" format="2">
  <advance width="600"/>
  <unicode hex="03BB"/>
  <outline>
    <contour>
      <point x="276" y="720" type="line"/>
      <point x="180" y="720" type="line"/>
      <point x="256" y="515" type="line"/>
      <point x="50" y="0" type="line"/>
      <point x="151" y="0" type="line"/>
      <point x="271" y="321" type="line" smooth="yes"/>
      <point x="293" y="381"/>
      <point x="298" y="433"/>
      <point x="298" y="433" type="curve"/>
      <point x="305" y="433" type="line"/>
      <point x="305" y="433"/>
      <point x="309" y="382"/>
      <point x="332" y="321" type="curve" smooth="yes"/>
      <point x="454" y="0" type="line"/>
      <point x="550" y="0" type="line"/>
    </contour>
  </outline>
</glyph>
<glyph name="uni0411" format="2">
  <advance width="600" height="985"/>
  <unicode hex="0411"/>
  <outline>
    <contour>
      <point x="442" y="214" type="curve" smooth="yes" name="ah01"/>
      <point x="442" y="293"/>
      <point x="389" y="346"/>
      <point x="310" y="346" type="curve" smooth="yes" name="dv01"/>
      <point x="180" y="346" type="line"/>
      <point x="180" y="82" type="line" name="sv01"/>
      <point x="310" y="82" type="line" smooth="yes"/>
      <point x="388" y="82"/>
      <point x="442" y="136"/>
    </contour>
    <contour>
      <point x="505" y="720" type="line" name="at01"/>
      <point x="505" y="638" type="line" name="sv02"/>
      <point x="180" y="638" type="line" name="sh02"/>
      <point x="180" y="428" type="line"/>
      <point x="315" y="428" type="line" smooth="yes" name="dv02"/>
      <point x="447" y="428"/>
      <point x="535" y="342"/>
      <point x="535" y="214" type="curve" smooth="yes" name="sh03"/>
      <point x="535" y="86"/>
      <point x="447" y="0"/>
      <point x="315" y="0" type="curve" smooth="yes" name="ab01"/>
      <point x="90" y="0" type="line" name="sh01"/>
      <point x="90" y="720" type="line"/>
    </contour>
  </outline>
</glyph>
<glyph name="uni0416" format="2">
  <advance width="600"/>
  <unicode hex="0416"/>
  <outline>
    <contour>
      <point x="5" y="0" type="line" name="ab01"/>
      <point x="137" y="371" type="line"/>
      <point x="15" y="720" type="line" name="at01"/>
      <point x="109" y="720" type="line"/>
      <point x="214" y="402" type="line" name="sv01"/>
      <point x="260" y="402" type="line" name="dh01"/>
      <point x="260" y="720" type="line" name="at02"/>
      <point x="340" y="720" type="line"/>
      <point x="340" y="402" type="line" name="dh02"/>
      <point x="387" y="402" type="line" name="dv02"/>
      <point x="491" y="720" type="line" name="at03"/>
      <point x="585" y="720" type="line"/>
      <point x="465" y="370" type="line"/>
      <point x="595" y="0" type="line" name="ab02"/>
      <point x="502" y="0" type="line"/>
      <point x="389" y="336" type="line" name="dv01"/>
      <point x="340" y="336" type="line" name="sh01"/>
      <point x="340" y="0" type="line" name="ab03"/>
      <point x="260" y="0" type="line" name="sh02"/>
      <point x="260" y="336" type="line" name="sv02"/>
      <point x="211" y="336" type="line"/>
      <point x="97" y="0" type="line"/>
    </contour>
  </outline>
</glyph>
<glyph name="uni0423" format="2">
  <advance width="600" height="985"/>
  <unicode hex="0423"/>
  <outline>
    <contour>
      <point x="287" y="0" type="line" name="ab01"/>
      <point x="191" y="0" type="line"/>
      <point x="265" y="189" type="line"/>
      <point x="40" y="720" type="line" name="at01"/>
      <point x="140" y="720" type="line"/>
      <point x="277" y="373" type="line" smooth="yes"/>
      <point x="300" y="314"/>
      <point x="305" y="261"/>
      <point x="305" y="261" type="curve"/>
      <point x="312" y="261" type="line"/>
      <point x="312" y="261"/>
      <point x="315" y="313"/>
      <point x="337" y="373" type="curve" smooth="yes"/>
      <point x="462" y="720" type="line" name="at02"/>
      <point x="560" y="720" type="line"/>
    </contour>
  </outline>
</glyph>
<glyph name="uni0427" format="2">
  <advance width="600"/>
  <unicode hex="0427"/>
  <outline>
    <contour>
      <point x="75" y="720" type="line" name="at01"/>
      <point x="75" y="471" type="line" smooth="yes"/>
      <point x="75" y="343"/>
      <point x="155" y="261"/>
      <point x="280" y="261" type="curve" smooth="yes" name="dv01"/>
      <point x="420" y="261" type="line" name="sh01"/>
      <point x="420" y="0" type="line" name="ab01"/>
      <point x="510" y="0" type="line" name="sh02"/>
      <point x="510" y="720" type="line" name="at02"/>
      <point x="420" y="720" type="line" name="sh03"/>
      <point x="420" y="341" type="line"/>
      <point x="295" y="341" type="line" smooth="yes" name="dv02"/>
      <point x="216" y="341"/>
      <point x="165" y="392"/>
      <point x="165" y="471" type="curve" smooth="yes"/>
      <point x="165" y="720" type="line" name="sh04"/>
    </contour>
  </outline>
</glyph>
<glyph name="uni0429" format="2">
  <advance width="600"/>
  <unicode hex="0429"/>
  <outline>
    <contour>
      <point x="53" y="720" type="line" name="at01"/>
      <point x="53" y="0" type="line" name="ab01"/>
      <point x="495" y="0" type="line" name="ih01"/>
      <point x="495" y="-140" type="line"/>
      <point x="575" y="-140" type="line" name="dv01"/>
      <point x="575" y="76" type="line" name="sv01"/>
      <point x="537" y="76" type="line" name="dv02"/>
      <point x="537" y="720" type="line" name="at02"/>
      <point x="455" y="720" type="line" name="dh03"/>
      <point x="455" y="76" type="line" name="sv02"/>
      <point x="330" y="76" type="line" name="sv03"/>
      <point x="330" y="720" type="line" name="at03"/>
      <point x="260" y="720" type="line" name="dh02"/>
      <point x="260" y="76" type="line" name="sv04"/>
      <point x="135" y="76" type="line" name="sv05"/>
      <point x="135" y="720" type="line" name="dh01"/>
    </contour>
  </outline>
</glyph>
<glyph name="uni042A" format="2">
  <advance width="600" height="985"/>
  <unicode hex="042A"/>
  <outline>
    <contour>
      <point x="-5" y="638" type="line" name="sv01"/>
      <point x="-5" y="720" type="line" name="at01"/>
      <point x="225" y="720" type="line" name="dh01"/>
      <point x="225" y="428" type="line"/>
      <point x="345" y="428" type="line" smooth="yes" name="dv02"/>
      <point x="477" y="428"/>
      <point x="565" y="342"/>
      <point x="565" y="214" type="curve" smooth="yes" name="dh03"/>
      <point x="565" y="86"/>
      <point x="477" y="0"/>
      <point x="345" y="0" type="curve" smooth="yes" name="ab01"/>
      <point x="135" y="0" type="line" name="sh01"/>
      <point x="135" y="638" type="line"/>
    </contour>
    <contour>
      <point x="472" y="214" type="curve" smooth="yes" name="dh02"/>
      <point x="472" y="293"/>
      <point x="419" y="346"/>
      <point x="340" y="346" type="curve" smooth="yes" name="dv01"/>
      <point x="225" y="346" type="line" name="sh02"/>
      <point x="225" y="82" type="line"/>
      <point x="340" y="82" type="line" smooth="yes" name="sv02"/>
      <point x="418" y="82"/>
      <point x="472" y="136"/>
    </contour>
  </outline>
</glyph>
<glyph name="uni042D" format="2">
  <advance width="600" height="985"/>
  <unicode hex="042D"/>
  <outline>
    <contour>
      <point x="74" y="185" type="line"/>
      <point x="88" y="63"/>
      <point x="170" y="-10"/>
      <point x="294" y="-10" type="curve" smooth="yes" name="ab01"/>
      <point x="430" y="-10"/>
      <point x="514" y="70"/>
      <point x="514" y="200" type="curve" smooth="yes"/>
      <point x="514" y="520" type="line" smooth="yes" name="dh02"/>
      <point x="514" y="650"/>
      <point x="430" y="730"/>
      <point x="294" y="730" type="curve" smooth="yes" name="at01"/>
      <point x="170" y="730"/>
      <point x="88" y="657"/>
      <point x="74" y="535" type="curve"/>
      <point x="164" y="535" type="line"/>
      <point x="172" y="607"/>
      <point x="221" y="650"/>
      <point x="294" y="650" type="curve" smooth="yes" name="sv01"/>
      <point x="374" y="650"/>
      <point x="424" y="599"/>
      <point x="424" y="515" type="curve" smooth="yes" name="dh01"/>
      <point x="424" y="405" type="line"/>
      <point x="176" y="405" type="line" name="dv02"/>
      <point x="176" y="325" type="line" name="dv01"/>
      <point x="424" y="325" type="line" name="sh01"/>
      <point x="424" y="205" type="line" smooth="yes"/>
      <point x="424" y="121"/>
      <point x="375" y="70"/>
      <point x="294" y="70" type="curve" smooth="yes" name="sv02"/>
      <point x="221" y="70"/>
      <point x="172" y="113"/>
      <point x="164" y="185" type="curve"/>
    </contour>
  </outline>
</glyph>
<glyph name="uni0432" format="2">
  <advance width="600" height="985"/>
  <unicode hex="0432"/>
  <outline>
    <contour>
      <point x="90" y="550" type="line" name="at01"/>
      <point x="337" y="550" type="line" smooth="yes"/>
      <point x="451" y="550"/>
      <point x="517" y="496"/>
      <point x="517" y="404" type="curve" smooth="yes" name="dh03"/>
      <point x="517" y="336"/>
      <point x="474" y="294"/>
      <point x="400" y="290" type="curve"/>
      <point x="400" y="284" type="line" name="iv01"/>
      <point x="484" y="283"/>
      <point x="530" y="238"/>
      <point x="530" y="157" type="curve" smooth="yes" name="sh01"/>
      <point x="530" y="58"/>
      <point x="460" y="0"/>
      <point x="340" y="0" type="curve" smooth="yes" name="ab01"/>
      <point x="90" y="0" type="line"/>
    </contour>
    <contour>
      <point x="440" y="159" type="curve" smooth="yes" name="ih01"/>
      <point x="440" y="211"/>
      <point x="404" y="240"/>
      <point x="340" y="240" type="curve" smooth="yes" name="dv01"/>
      <point x="179" y="240" type="line" name="sh02"/>
      <point x="179" y="79" type="line" name="sv01"/>
      <point x="340" y="79" type="line" smooth="yes"/>
      <point x="404" y="79"/>
      <point x="440" y="108"/>
    </contour>
    <contour>
      <point x="427" y="394" type="curve" smooth="yes" name="dh02"/>
      <point x="427" y="442"/>
      <point x="394" y="471"/>
      <point x="337" y="471" type="curve" smooth="yes" name="sv02"/>
      <point x="179" y="471" type="line" name="dh01"/>
      <point x="179" y="318" type="line"/>
      <point x="337" y="318" type="line" smooth="yes" name="dv02"/>
      <point x="393" y="318"/>
      <point x="427" y="346"/>
    </contour>
  </outline>
</glyph>
<glyph name="uni043C" format="2">
  <advance width="600"/>
  <unicode hex="043C"/>
  <outline>
    <contour>
      <point x="75" y="550" type="line" name="at01"/>
      <point x="192" y="550" type="line"/>
      <point x="273" y="331" type="line" smooth="yes"/>
      <point x="288" y="291"/>
      <point x="298" y="235"/>
      <point x="298" y="235" type="curve"/>
      <point x="306" y="235" type="line"/>
      <point x="306" y="235"/>
      <point x="318" y="291"/>
      <point x="332" y="331" type="curve" smooth="yes"/>
      <point x="408" y="550" type="line" name="at02"/>
      <point x="525" y="550" type="line"/>
      <point x="525" y="0" type="line" name="ab01"/>
      <point x="437" y="0" type="line" name="ah01"/>
      <point x="437" y="335" type="line" smooth="yes"/>
      <point x="437" y="405"/>
      <point x="448" y="474"/>
      <point x="448" y="474" type="curve" name="sh01"/>
      <point x="438" y="474" type="line"/>
      <point x="438" y="474"/>
      <point x="423" y="409"/>
      <point x="397" y="335" type="curve" smooth="yes"/>
      <point x="340" y="175" type="line"/>
      <point x="262" y="175" type="line"/>
      <point x="205" y="335" type="line" smooth="yes"/>
      <point x="175" y="419"/>
      <point x="161" y="475"/>
      <point x="161" y="475" type="curve" name="sh03"/>
      <point x="154" y="475" type="line"/>
      <point x="154" y="475"/>
      <point x="163" y="405"/>
      <point x="163" y="335" type="curve" smooth="yes" name="sh02"/>
      <point x="163" y="0" type="line" name="ab02"/>
      <point x="75" y="0" type="line"/>
    </contour>
  </outline>
</glyph>
<glyph name="uni043F" format="2">
  <advance width="600" height="985"/>
  <unicode hex="043F"/>
  <outline>
    <contour>
      <point x="90" y="550" type="line" name="at01"/>
      <point x="90" y="0" type="line" name="ab01"/>
      <point x="180" y="0" type="line"/>
      <point x="180" y="468" type="line" name="sv01"/>
      <point x="420" y="468" type="line" name="ah01"/>
      <point x="420" y="0" type="line" name="ab02"/>
      <point x="510" y="0" type="line"/>
      <point x="510" y="550" type="line" name="sh01"/>
    </contour>
  </outline>
</glyph>
<glyph name="uni0442" format="2">
  <advance width="600" height="985"/>
  <unicode hex="0442"/>
  <outline>
    <contour>
      <point x="45" y="550" type="line" name="at01"/>
      <point x="555" y="550" type="line"/>
      <point x="555" y="471" type="line" name="sv01"/>
      <point x="346" y="471" type="line"/>
      <point x="346" y="0" type="line" name="ab01"/>
      <point x="254" y="0" type="line" name="dh01"/>
      <point x="254" y="471" type="line" name="sv02"/>
      <point x="45" y="471" type="line" name="sv03"/>
    </contour>
  </outline>
</glyph>
<glyph name="uni0444" format="2">
  <advance width="600"/>
  <unicode hex="0444"/>
  <outline>
    <contour>
      <point x="260" y="0" type="curve" name="ab01"/>
      <point x="260" y="-170" type="line" name="av01"/>
      <point x="340" y="-170" type="line"/>
      <point x="340" y="0" type="line" name="ab02"/>
      <point x="469" y="0"/>
      <point x="550" y="78"/>
      <point x="550" y="202" type="curve" smooth="yes"/>
      <point x="550" y="350" type="line" smooth="yes" name="sh03"/>
      <point x="550" y="473"/>
      <point x="469" y="550"/>
      <point x="340" y="550" type="curve" name="at02"/>
      <point x="340" y="720" type="line" name="at01"/>
      <point x="260" y="720" type="line" name="sh04"/>
      <point x="260" y="550" type="line" name="at03"/>
      <point x="131" y="550"/>
      <point x="50" y="472"/>
      <point x="50" y="350" type="curve" smooth="yes" name="sh01"/>
      <point x="50" y="202" type="line" smooth="yes"/>
      <point x="50" y="78"/>
      <point x="131" y="0"/>
    </contour>
    <contour>
      <point x="466" y="350" type="curve" smooth="yes" name="sh02"/>
      <point x="466" y="202" type="line" smooth="yes"/>
      <point x="466" y="121"/>
      <point x="417" y="71"/>
      <point x="338" y="71" type="curve" name="sv01"/>
      <point x="338" y="479" type="line" name="sv02"/>
      <point x="417" y="479"/>
      <point x="466" y="430"/>
    </contour>
    <contour>
      <point x="134" y="350" type="line" smooth="yes" name="sh05"/>
      <point x="134" y="430"/>
      <point x="183" y="479"/>
      <point x="262" y="479" type="curve" name="sv03"/>
      <point x="262" y="71" type="line" name="sv04"/>
      <point x="183" y="71"/>
      <point x="134" y="121"/>
      <point x="134" y="202" type="curve" smooth="yes"/>
    </contour>
  </outline>
</glyph>
<glyph name="uni0446" format="2">
  <advance width="600" height="985"/>
  <unicode hex="0446"/>
  <outline>
    <contour>
      <point x="90" y="0" type="line" name="ab01"/>
      <point x="495" y="0" type="line" name="sh01"/>
      <point x="495" y="-140" type="line" name="dv01"/>
      <point x="575" y="-140" type="line"/>
      <point x="575" y="80" type="line" name="sv01"/>
      <point x="500" y="80" type="line" name="dv02"/>
      <point x="500" y="550" type="line" name="at01"/>
      <point x="410" y="550" type="line" name="dh01"/>
      <point x="410" y="80" type="line" name="sv02"/>
      <point x="180" y="80" type="line" name="sv03"/>
      <point x="180" y="550" type="line" name="at02"/>
      <point x="90" y="550" type="line"/>
    </contour>
  </outline>
</glyph>
<glyph name="uni044A" format="2">
  <advance width="600" height="985"/>
  <unicode hex="044A"/>
  <outline>
    <contour>
      <point x="230" y="266" type="line" name="dv01"/>
      <point x="230" y="82" type="line" name="sv01"/>
      <point x="368" y="82" type="line" smooth="yes"/>
      <point x="433" y="82"/>
      <point x="472" y="116"/>
      <point x="472" y="174" type="curve" smooth="yes" name="dh02"/>
      <point x="472" y="232"/>
      <point x="433" y="266"/>
      <point x="368" y="266" type="curve" smooth="yes"/>
    </contour>
    <contour>
      <point x="0" y="550" type="line" name="at01"/>
      <point x="230" y="550" type="line" name="dh01"/>
      <point x="230" y="348" type="line" name="dv02"/>
      <point x="369" y="348" type="line" smooth="yes"/>
      <point x="492" y="348"/>
      <point x="565" y="283"/>
      <point x="565" y="174" type="curve" smooth="yes" name="dh03"/>
      <point x="565" y="64"/>
      <point x="493" y="0"/>
      <point x="369" y="0" type="curve" smooth="yes" name="ab01"/>
      <point x="140" y="0" type="line" name="sh01"/>
      <point x="140" y="470" type="line" name="sv02"/>
      <point x="0" y="470" type="line"/>
    </contour>
  </outline>
</glyph>
<glyph name="uni044B" format="2">
  <advance width="600" height="985"/>
  <unicode hex="044B"/>
  <outline>
    <contour>
      <point x="146" y="276" type="line" name="dv01"/>
      <point x="194" y="276" type="line" smooth="yes"/>
      <point x="261" y="276"/>
      <point x="305" y="235"/>
      <point x="305" y="174" type="curve" smooth="yes" name="dh02"/>
      <point x="305" y="112"/>
      <point x="262" y="72"/>
      <point x="194" y="72" type="curve" smooth="yes" name="sv01"/>
      <point x="146" y="72" type="line"/>
    </contour>
    <contour>
      <point x="62" y="550" type="line" name="at01"/>
      <point x="62" y="0" type="line" name="ab01"/>
      <point x="194" y="0" type="line" smooth="yes"/>
      <point x="317" y="0"/>
      <point x="389" y="65"/>
      <point x="389" y="174" type="curve" smooth="yes" name="dh03"/>
      <point x="389" y="284"/>
      <point x="318" y="348"/>
      <point x="194" y="348" type="curve" smooth="yes"/>
      <point x="146" y="348" type="line" name="dv02"/>
      <point x="146" y="550" type="line" name="dh01"/>
    </contour>
    <contour>
      <point x="454" y="550" type="line" name="at02"/>
      <point x="454" y="0" type="line" name="ab02"/>
      <point x="538" y="0" type="line"/>
      <point x="538" y="550" type="line" name="dh04"/>
    </contour>
  </outline>
</glyph>
<glyph name="uni044D" format="2">
  <advance width="600" height="985"/>
  <unicode hex="044D"/>
  <outline>
    <contour>
      <point x="72" y="385" type="curve"/>
      <point x="162" y="385" type="line"/>
      <point x="175" y="444"/>
      <point x="225" y="480"/>
      <point x="292" y="480" type="curve" smooth="yes" name="sv01"/>
      <point x="372" y="480"/>
      <point x="422" y="429"/>
      <point x="422" y="345" type="curve" smooth="yes" name="dh01"/>
      <point x="422" y="320" type="line"/>
      <point x="225" y="320" type="line" name="dv02"/>
      <point x="225" y="240" type="line" name="dv01"/>
      <point x="422" y="240" type="line" name="sh01"/>
      <point x="422" y="205" type="line" smooth="yes"/>
      <point x="422" y="121"/>
      <point x="373" y="70"/>
      <point x="292" y="70" type="curve" smooth="yes" name="sv02"/>
      <point x="225" y="70"/>
      <point x="175" y="106"/>
      <point x="162" y="165" type="curve"/>
      <point x="72" y="165" type="line"/>
      <point x="92" y="52"/>
      <point x="171" y="-10"/>
      <point x="292" y="-10" type="curve" smooth="yes" name="ab01"/>
      <point x="428" y="-10"/>
      <point x="512" y="70"/>
      <point x="512" y="200" type="curve" smooth="yes"/>
      <point x="512" y="350" type="line" smooth="yes" name="dh02"/>
      <point x="512" y="480"/>
      <point x="428" y="560"/>
      <point x="292" y="560" type="curve" smooth="yes" name="at01"/>
      <point x="171" y="560"/>
      <point x="92" y="498"/>
    </contour>
  </outline>
</glyph>
<glyph name="uni044F" format="2">
  <advance width="600"/>
  <unicode hex="044F"/>
  <outline>
    <contour>
      <point x="510" y="550" type="line" name="at01"/>
      <point x="265" y="550" type="line" smooth="yes"/>
      <point x="141" y="550"/>
      <point x="65" y="485"/>
      <point x="65" y="377" type="curve" smooth="yes" name="sh01"/>
      <point x="65" y="291"/>
      <point x="115" y="232"/>
      <point x="199" y="212" type="curve" name="sv01"/>
      <point x="55" y="0" type="line" name="ab01"/>
      <point x="161" y="0" type="line" name="sh03"/>
      <point x="292" y="205" type="line" name="dv01"/>
      <point x="420" y="205" type="line"/>
      <point x="420" y="0" type="line" name="ab02"/>
      <point x="510" y="0" type="line" name="sh04"/>
    </contour>
    <contour>
      <point x="157" y="377" type="curve" smooth="yes" name="sh02"/>
      <point x="157" y="435"/>
      <point x="198" y="470"/>
      <point x="265" y="470" type="curve" smooth="yes" name="sv02"/>
      <point x="420" y="470" type="line" name="sh05"/>
      <point x="420" y="285" type="line"/>
      <point x="265" y="285" type="line" smooth="yes" name="dv02"/>
      <point x="198" y="285"/>
      <point x="157" y="320"/>
    </contour>
  </outline>
</glyph>
<glyph name="uni0452" format="2">
  <advance width="600" height="985"/>
  <unicode hex="0452"/>
  <outline>
    <contour>
      <point x="88" y="730" type="line"/>
      <point x="88" y="625" type="line"/>
      <point x="20" y="625" type="line"/>
      <point x="20" y="550" type="line"/>
      <point x="88" y="550" type="line"/>
      <point x="88" y="0" type="line"/>
      <point x="178" y="0" type="line"/>
      <point x="178" y="305" type="line" smooth="yes"/>
      <point x="178" y="385"/>
      <point x="226" y="434"/>
      <point x="302" y="434" type="curve" smooth="yes"/>
      <point x="377" y="434"/>
      <point x="423" y="384"/>
      <point x="423" y="301" type="curve" smooth="yes"/>
      <point x="423" y="25" type="line" smooth="yes"/>
      <point x="423" y="-45"/>
      <point x="379" y="-88"/>
      <point x="308" y="-88" type="curve" smooth="yes"/>
      <point x="238" y="-88" type="line"/>
      <point x="238" y="-170" type="line"/>
      <point x="308" y="-170" type="line" smooth="yes"/>
      <point x="432" y="-170"/>
      <point x="513" y="-93"/>
      <point x="513" y="25" type="curve" smooth="yes"/>
      <point x="513" y="321" type="line"/>
      <point x="509" y="435"/>
      <point x="441" y="510"/>
      <point x="332" y="510" type="curve" smooth="yes"/>
      <point x="254" y="510"/>
      <point x="198" y="471"/>
      <point x="181" y="405" type="curve"/>
      <point x="173" y="405" type="line"/>
      <point x="173" y="405"/>
      <point x="178" y="463"/>
      <point x="178" y="500" type="curve" smooth="yes"/>
      <point x="178" y="550" type="line"/>
      <point x="280" y="550" type="line"/>
      <point x="280" y="625" type="line"/>
      <point x="178" y="625" type="line"/>
      <point x="178" y="730" type="line"/>
    </contour>
  </outline>
</glyph>
<glyph name="uni0459" format="2">
  <advance width="600"/>
  <unicode hex="0459"/>
  <outline>
    <contour>
      <point x="360" y="276" type="line" name="dv01"/>
      <point x="420" y="276" type="line" smooth="yes"/>
      <point x="468" y="276"/>
      <point x="500" y="244"/>
      <point x="500" y="196" type="curve" smooth="yes" name="dh02"/>
      <point x="500" y="154" type="line" smooth="yes"/>
      <point x="500" y="106"/>
      <point x="468" y="74"/>
      <point x="420" y="74" type="curve" smooth="yes" name="sv01"/>
      <point x="360" y="74" type="line"/>
    </contour>
    <contour>
      <point x="153" y="473" type="line" name="sv02"/>
      <point x="280" y="473" type="line" name="dh01"/>
      <point x="280" y="0" type="line" name="ab01"/>
      <point x="420" y="0" type="line" smooth="yes"/>
      <point x="516" y="0"/>
      <point x="580" y="62"/>
      <point x="580" y="154" type="curve" smooth="yes"/>
      <point x="580" y="196" type="line" smooth="yes" name="dh03"/>
      <point x="580" y="288"/>
      <point x="516" y="350"/>
      <point x="420" y="350" type="curve" smooth="yes"/>
      <point x="360" y="350" type="line" name="dv02"/>
      <point x="360" y="550" type="line" name="at01"/>
      <point x="73" y="550" type="line"/>
      <point x="69" y="194" type="line" smooth="yes"/>
      <point x="68" y="125"/>
      <point x="46" y="80"/>
      <point x="13" y="80" type="curve" smooth="yes" name="sv03"/>
      <point x="-5" y="80" type="line" name="sv04"/>
      <point x="-5" y="-5" type="line" name="ab02"/>
      <point x="10" y="-5" type="line" smooth="yes"/>
      <point x="96" y="-5"/>
      <point x="149" y="73"/>
      <point x="150" y="194" type="curve" smooth="yes"/>
    </contour>
  </outline>
</glyph>
<glyph name="uni045A" format="2">
  <advance width="600"/>
  <unicode hex="045A"/>
  <outline>
    <contour>
      <point x="360" y="275" type="line" name="dv01"/>
      <point x="420" y="275" type="line" smooth="yes"/>
      <point x="468" y="275"/>
      <point x="500" y="243"/>
      <point x="500" y="195" type="curve" smooth="yes" name="dh03"/>
      <point x="500" y="155" type="line" smooth="yes"/>
      <point x="500" y="107"/>
      <point x="468" y="75"/>
      <point x="420" y="75" type="curve" smooth="yes" name="sv01"/>
      <point x="360" y="75" type="line"/>
    </contour>
    <contour>
      <point x="420" y="0" type="line" smooth="yes" name="ab01"/>
      <point x="516" y="0"/>
      <point x="580" y="62"/>
      <point x="580" y="155" type="curve" smooth="yes"/>
      <point x="580" y="195" type="line" smooth="yes" name="dh04"/>
      <point x="580" y="288"/>
      <point x="516" y="350"/>
      <point x="420" y="350" type="curve" smooth="yes"/>
      <point x="360" y="350" type="line" name="dv02"/>
      <point x="360" y="550" type="line" name="at01"/>
      <point x="280" y="550" type="line" name="dh02"/>
      <point x="280" y="350" type="line" name="sv02"/>
      <point x="133" y="350" type="line"/>
      <point x="133" y="550" type="line" name="at02"/>
      <point x="53" y="550" type="line" name="dh01"/>
      <point x="53" y="0" type="line" name="ab02"/>
      <point x="133" y="0" type="line" name="sh01"/>
      <point x="133" y="275" type="line" name="sv03"/>
      <point x="280" y="275" type="line" name="sh02"/>
      <point x="280" y="0" type="line"/>
    </contour>
  </outline>
</glyph>
<glyph name="uni045F" format="2">
  <advance width="600" height="985"/>
  <unicode hex="045F"/>
  <outline>
    <contour>
      <point x="255" y="0" type="line" name="ab01"/>
      <point x="255" y="-125" type="line" name="sv03"/>
      <point x="345" y="-125" type="line"/>
      <point x="345" y="0" type="line" name="ab02"/>
      <point x="510" y="0" type="line"/>
      <point x="510" y="550" type="line" name="at01"/>
      <point x="420" y="550" type="line" name="sh02"/>
      <point x="420" y="82" type="line" name="sv01"/>
      <point x="180" y="82" type="line" name="sv02"/>
      <point x="180" y="550" type="line" name="at02"/>
      <point x="90" y="550" type="line" name="sh01"/>
      <point x="90" y="0" type="line"/>
    </contour>
  </outline>
</glyph>
<glyph name="uni04AE" format="2">
  <advance width="600"/>
  <unicode hex="04AE"/>
  <outline>
    <contour>
      <point x="474" y="720" type="line"/>
      <point x="570" y="720" type="line"/>
      <point x="345" y="250" type="line"/>
      <point x="345" y="0" type="line"/>
      <point x="255" y="0" type="line"/>
      <point x="255" y="250" type="line"/>
      <point x="30" y="720" type="line"/>
      <point x="125" y="720" type="line"/>
      <point x="273" y="403" type="line" smooth="yes"/>
      <point x="290" y="367"/>
      <point x="300" y="324"/>
      <point x="300" y="324" type="curve"/>
      <point x="304" y="324" type="line"/>
      <point x="304" y="324"/>
      <point x="315" y="367"/>
      <point x="331" y="403" type="curve" smooth="yes"/>
    </contour>
  </outline>
</glyph>
<glyph name="uni04AF" format="2">
  <advance width="600"/>
  <unicode hex="04AF"/>
  <outline>
    <contour>
      <point x="474" y="550" type="line"/>
      <point x="570" y="550" type="line"/>
      <point x="345" y="80" type="line"/>
      <point x="345" y="-170" type="line"/>
      <point x="255" y="-170" type="line"/>
      <point x="255" y="80" type="line"/>
      <point x="30" y="550" type="line"/>
      <point x="125" y="550" type="line"/>
      <point x="273" y="233" type="line" smooth="yes"/>
      <point x="290" y="197"/>
      <point x="300" y="154"/>
      <point x="300" y="154" type="curve"/>
      <point x="304" y="154" type="line"/>
      <point x="304" y="154"/>
      <point x="315" y="197"/>
      <point x="331" y="233" type="curve" smooth="yes"/>
    </contour>
  </outline>
</glyph>
<glyph name="uni04E9" format="2">
  <advance width="600"/>
  <unicode hex="04E9"/>
  <outline>
    <contour>
      <point x="300" y="-10" type="curve" smooth="yes"/>
      <point x="436" y="-10"/>
      <point x="520" y="72"/>
      <point x="520" y="205" type="curve" smooth="yes"/>
      <point x="520" y="346" type="line" smooth="yes"/>
      <point x="520" y="478"/>
      <point x="435" y="560"/>
      <point x="300" y="560" type="curve" smooth="yes"/>
      <point x="165" y="560"/>
      <point x="80" y="477"/>
      <point x="80" y="345" type="curve" smooth="yes"/>
      <point x="80" y="205" type="line" smooth="yes"/>
      <point x="80" y="73"/>
      <point x="165" y="-10"/>
    </contour>
    <contour>
      <point x="430" y="240" type="line"/>
      <point x="430" y="205" type="line" smooth="yes"/>
      <point x="430" y="121"/>
      <point x="380" y="70"/>
      <point x="300" y="70" type="curve" smooth="yes"/>
      <point x="219" y="70"/>
      <point x="170" y="121"/>
      <point x="170" y="205" type="curve" smooth="yes"/>
      <point x="170" y="240" type="line"/>
    </contour>
    <contour>
      <point x="170" y="315" type="line"/>
      <point x="170" y="345" type="line" smooth="yes"/>
      <point x="170" y="428"/>
      <point x="221" y="480"/>
      <point x="300" y="480" type="curve" smooth="yes"/>
      <point x="380" y="480"/>
      <point x="430" y="429"/>
      <point x="430" y="345" type="curve" smooth="yes"/>
      <point x="430" y="315" type="line"/>
    </contour>
  </outline>
</glyph>
<glyph name="quoteleft" format="2">
  <advance width="600" height="975"/>
  <unicode hex="2018"/>
  <outline>
    <contour>
      <point x="225" y="464" type="line"/>
      <point x="355" y="775" type="line"/>
      <point x="435" y="775" type="line"/>
      <point x="355" y="464" type="line"/>
    </contour>
  </outline>
</glyph>
<glyph name="quotedblleft" format="2">
  <advance width="600" height="975"/>
  <unicode hex="201C"/>
  <outline>
    <contour>
      <point x="80" y="464" type="line"/>
      <point x="210" y="775" type="line"/>
      <point x="290" y="775" type="line"/>
      <point x="210" y="464" type="line"/>
    </contour>
    <contour>
      <point x="355" y="464" type="line"/>
      <point x="485" y="775" type="line"/>
      <point x="565" y="775" type="line"/>
      <point x="485" y="464" type="line"/>
    </contour>
  </outline>
</glyph>
<glyph name="quotedblbase" format="2">
  <advance width="600" height="975"/>
  <unicode hex="201E"/>
  <outline>
    <contour>
      <point x="520" y="151" type="line"/>
      <point x="390" y="-160" type="line"/>
      <point x="310" y="-160" type="line"/>
      <point x="390" y="151" type="line"/>
    </contour>
    <contour>
      <point x="245" y="151" type="line"/>
      <point x="115" y="-160" type="line"/>
      <point x="35" y="-160" type="line"/>
      <point x="115" y="151" type="line"/>
    </contour>
  </outline>
</glyph>
<glyph name="perthousand" format="2">
  <advance width="600" height="985"/>
  <unicode hex="2030"/>
  <outline>
    <contour>
      <point x="570" y="495" type="line"/>
      <point x="570" y="440" type="line"/>
      <point x="30" y="280" type="line"/>
      <point x="30" y="335" type="line"/>
    </contour>
    <contour>
      <point x="208" y="105" type="curve" smooth="yes"/>
      <point x="208" y="195" type="line" smooth="yes"/>
      <point x="208" y="265"/>
      <point x="250" y="305"/>
      <point x="315" y="305" type="curve" smooth="yes"/>
      <point x="390" y="305"/>
      <point x="401" y="241"/>
      <point x="401" y="241" type="curve"/>
      <point x="401" y="241"/>
      <point x="413" y="305"/>
      <point x="488" y="305" type="curve" smooth="yes"/>
      <point x="553" y="305"/>
      <point x="595" y="265"/>
      <point x="595" y="195" type="curve" smooth="yes"/>
      <point x="595" y="105" type="line" smooth="yes"/>
      <point x="595" y="35"/>
      <point x="553" y="-5"/>
      <point x="488" y="-5" type="curve" smooth="yes"/>
      <point x="413" y="-5"/>
      <point x="402" y="59"/>
      <point x="402" y="59" type="curve"/>
      <point x="402" y="59"/>
      <point x="390" y="-5"/>
      <point x="315" y="-5" type="curve" smooth="yes"/>
      <point x="250" y="-5"/>
      <point x="208" y="35"/>
    </contour>
    <contour>
      <point x="429" y="195" type="curve" smooth="yes"/>
      <point x="429" y="105" type="line" smooth="yes"/>
      <point x="429" y="66"/>
      <point x="450" y="46"/>
      <point x="484" y="46" type="curve" smooth="yes"/>
      <point x="517" y="46"/>
      <point x="538" y="65"/>
      <point x="538" y="105" type="curve" smooth="yes"/>
      <point x="538" y="195" type="line" smooth="yes"/>
      <point x="538" y="235"/>
      <point x="517" y="254"/>
      <point x="484" y="254" type="curve" smooth="yes"/>
      <point x="450" y="254"/>
      <point x="429" y="234"/>
    </contour>
    <contour>
      <point x="319" y="46" type="curve" smooth="yes"/>
      <point x="353" y="46"/>
      <point x="374" y="66"/>
      <point x="374" y="105" type="curve" smooth="yes"/>
      <point x="374" y="195" type="line" smooth="yes"/>
      <point x="374" y="234"/>
      <point x="353" y="254"/>
      <point x="319" y="254" type="curve" smooth="yes"/>
      <point x="286" y="254"/>
      <point x="265" y="235"/>
      <point x="265" y="195" type="curve" smooth="yes"/>
      <point x="265" y="105" type="line" smooth="yes"/>
      <point x="265" y="65"/>
      <point x="286" y="46"/>
    </contour>
    <contour>
      <point x="151" y="670" type="curve" smooth="yes"/>
      <point x="105" y="670"/>
      <point x="91" y="639"/>
      <point x="91" y="600" type="curve" smooth="yes"/>
      <point x="91" y="555" type="line" smooth="yes"/>
      <point x="91" y="516"/>
      <point x="105" y="485"/>
      <point x="151" y="485" type="curve" smooth="yes"/>
      <point x="202" y="485"/>
      <point x="211" y="521"/>
      <point x="211" y="555" type="curve" smooth="yes"/>
      <point x="211" y="600" type="line" smooth="yes"/>
      <point x="211" y="639"/>
      <point x="197" y="670"/>
    </contour>
    <contour>
      <point x="151" y="430" type="curve" smooth="yes"/>
      <point x="67" y="430"/>
      <point x="31" y="481"/>
      <point x="31" y="555" type="curve" smooth="yes"/>
      <point x="31" y="600" type="line" smooth="yes"/>
      <point x="31" y="674"/>
      <point x="67" y="725"/>
      <point x="151" y="725" type="curve" smooth="yes"/>
      <point x="235" y="725"/>
      <point x="271" y="674"/>
      <point x="271" y="600" type="curve" smooth="yes"/>
      <point x="271" y="555" type="line" smooth="yes"/>
      <point x="271" y="481"/>
      <point x="235" y="430"/>
    </contour>
  </outline>
</glyph>
<glyph name="guilsinglleft" format="2">
  <advance width="600" height="975"/>
  <unicode hex="2039"/>
  <outline>
    <contour>
      <point x="147" y="280" type="line"/>
      <point x="349" y="40" type="line"/>
      <point x="454" y="40" type="line"/>
      <point x="277" y="244" type="line" smooth="yes"/>
      <point x="256" y="268"/>
      <point x="242" y="279"/>
      <point x="242" y="279" type="curve"/>
      <point x="242" y="281" type="line"/>
      <point x="242" y="281"/>
      <point x="256" y="291"/>
      <point x="277" y="316" type="curve" smooth="yes"/>
      <point x="454" y="520" type="line"/>
      <point x="348" y="520" type="line"/>
    </contour>
  </outline>
</glyph>
<glyph name="guilsinglright" format="2">
  <advance width="600" height="975"/>
  <unicode hex="203A"/>
  <outline>
    <contour>
      <point x="453" y="280" type="line"/>
      <point x="251" y="40" type="line"/>
      <point x="146" y="40" type="line"/>
      <point x="323" y="244" type="line" smooth="yes"/>
      <point x="344" y="268"/>
      <point x="358" y="279"/>
      <point x="358" y="279" type="curve"/>
      <point x="358" y="281" type="line"/>
      <point x="358" y="281"/>
      <point x="344" y="291"/>
      <point x="323" y="316" type="curve" smooth="yes"/>
      <point x="146" y="520" type="line"/>
      <point x="252" y="520" type="line"/>
    </contour>
  </outline>
</glyph>
<glyph name="uni2074" format="2">
  <advance width="600" height="985"/>
  <unicode hex="2074"/>
  <outline>
    <contour>
      <point x="235" y="576" type="line"/>
      <point x="235" y="560" type="line"/>
      <point x="351" y="560" type="line"/>
      <point x="351" y="649" type="line"/>
      <point x="411" y="649" type="line"/>
      <point x="411" y="440" type="line"/>
      <point x="351" y="440" type="line"/>
      <point x="351" y="510" type="line"/>
      <point x="175" y="510" type="line"/>
      <point x="175" y="590" type="line"/>
      <point x="301" y="765" type="line"/>
      <point x="370" y="765" type="line"/>
    </contour>
  </outline>
</glyph>
<glyph name="Euro" format="2">
  <advance width="600" height="975"/>
  <unicode hex="20AC"/>
  <outline>
    <component base="C" xOffset="10"/>
    <contour>
      <point x="25" y="470" type="line"/>
      <point x="345" y="470" type="line"/>
      <point x="345" y="410" type="line"/>
      <point x="25" y="410" type="line"/>
    </contour>
    <contour>
      <point x="25" y="310" type="line"/>
      <point x="345" y="310" type="line"/>
      <point x="345" y="250" type="line"/>
      <point x="25" y="250" type="line"/>
    </contour>
  </outline>
</glyph>
<glyph name="uni20AE" format="2">
  <advance width="600"/>
  <unicode hex="20AE"/>
  <outline>
    <contour>
      <point x="45" y="720" type="line"/>
      <point x="555" y="720" type="line"/>
      <point x="555" y="641" type="line"/>
      <point x="344" y="641" type="line"/>
      <point x="344" y="457" type="line"/>
      <point x="520" y="505" type="line"/>
      <point x="520" y="430" type="line"/>
      <point x="344" y="382" type="line"/>
      <point x="344" y="282" type="line"/>
      <point x="520" y="330" type="line"/>
      <point x="520" y="255" type="line"/>
      <point x="344" y="207" type="line"/>
      <point x="344" y="0" type="line"/>
      <point x="256" y="0" type="line"/>
      <point x="256" y="183" type="line"/>
      <point x="80" y="135" type="line"/>
      <point x="80" y="210" type="line"/>
      <point x="256" y="258" type="line"/>
      <point x="256" y="358" type="line"/>
      <point x="80" y="310" type="line"/>
      <point x="80" y="385" type="line"/>
      <point x="256" y="433" type="line"/>
      <point x="256" y="641" type="line"/>
      <point x="45" y="641" type="line"/>
    </contour>
  </outline>
</glyph>
<glyph name="uni2113" format="2">
  <advance width="600" height="985"/>
  <unicode hex="2113"/>
  <outline>
    <contour>
      <point x="322" y="730" type="curve" smooth="yes"/>
      <point x="229" y="730"/>
      <point x="167" y="668"/>
      <point x="167" y="575" type="curve" smooth="yes"/>
      <point x="167" y="160" type="line" smooth="yes"/>
      <point x="167" y="61"/>
      <point x="230" y="0"/>
      <point x="332" y="0" type="curve" smooth="yes"/>
      <point x="444" y="0"/>
      <point x="495" y="101"/>
      <point x="495" y="101" type="curve"/>
      <point x="427" y="143" type="line"/>
      <point x="427" y="143"/>
      <point x="388" y="82"/>
      <point x="332" y="82" type="curve" smooth="yes"/>
      <point x="286" y="82"/>
      <point x="257" y="111"/>
      <point x="257" y="160" type="curve" smooth="yes"/>
      <point x="257" y="575" type="line" smooth="yes"/>
      <point x="257" y="619"/>
      <point x="283" y="648"/>
      <point x="322" y="648" type="curve" smooth="yes"/>
      <point x="360" y="648"/>
      <point x="386" y="619"/>
      <point x="387" y="575" type="curve" smooth="yes"/>
      <point x="388" y="520" type="line" smooth="yes"/>
      <point x="389" y="451"/>
      <point x="349" y="395"/>
      <point x="280" y="369" type="curve" smooth="yes"/>
      <point x="65" y="288" type="line"/>
      <point x="95" y="207" type="line"/>
      <point x="308" y="290" type="line" smooth="yes"/>
      <point x="412" y="330"/>
      <point x="477" y="419"/>
      <point x="477" y="521" type="curve" smooth="yes"/>
      <point x="477" y="575" type="line" smooth="yes"/>
      <point x="477" y="668"/>
      <point x="415" y="730"/>
    </contour>
  </outline>
</glyph>
<glyph name="existential" format="2">
  <advance width="600"/>
  <unicode hex="2203"/>
  <outline>
    <contour>
      <point x="505" y="720" type="line" name="at01"/>
      <point x="80" y="720" type="line"/>
      <point x="80" y="638" type="line" name="sv01"/>
      <point x="415" y="638" type="line" name="dh01"/>
      <point x="415" y="412" type="line"/>
      <point x="115" y="412" type="line" name="dv02"/>
      <point x="115" y="330" type="line" name="dv01"/>
      <point x="415" y="330" type="line" name="sh01"/>
      <point x="415" y="82" type="line" name="sv02"/>
      <point x="80" y="82" type="line"/>
      <point x="80" y="0" type="line" name="ab01"/>
      <point x="505" y="0" type="line"/>
    </contour>
  </outline>
</glyph>
<glyph name="suchthat" format="2">
  <advance width="600"/>
  <unicode hex="220B"/>
  <outline>
    <contour>
      <point x="35" y="570" type="line" name="dh02"/>
      <point x="35" y="650" type="line" name="dh01"/>
      <point x="340" y="650" type="line" smooth="yes"/>
      <point x="465" y="650"/>
      <point x="570" y="556"/>
      <point x="570" y="432" type="curve" smooth="yes" name="dv01"/>
      <point x="570" y="288" type="line" smooth="yes" name="sv01"/>
      <point x="570" y="164"/>
      <point x="465" y="70"/>
      <point x="340" y="70" type="curve" smooth="yes"/>
      <point x="35" y="70" type="line" name="dh04"/>
      <point x="35" y="150" type="line" name="dh03"/>
      <point x="340" y="150" type="line" smooth="yes"/>
      <point x="419" y="150"/>
      <point x="480" y="216"/>
      <point x="480" y="290" type="curve" smooth="yes" name="sv03"/>
      <point x="480" y="320" type="line"/>
      <point x="35" y="320" type="line" name="dv03"/>
      <point x="35" y="400" type="line" name="sv04"/>
      <point x="480" y="400" type="line"/>
      <point x="480" y="430" type="line" smooth="yes"/>
      <point x="480" y="504"/>
      <point x="419" y="570"/>
      <point x="340" y="570" type="curve" smooth="yes"/>
    </contour>
  </outline>
</glyph>
<glyph name="uni2210" format="2">
  <advance width="600"/>
  <unicode hex="2210"/>
  <outline>
    <contour>
      <point x="90" y="0" type="line" name="at01"/>
      <point x="510" y="0" type="line" name="sh01"/>
      <point x="510" y="720" type="line"/>
      <point x="420" y="720" type="line" name="ab02"/>
      <point x="420" y="82" type="line" name="ah01"/>
      <point x="180" y="82" type="line" name="sv01"/>
      <point x="180" y="720" type="line"/>
      <point x="90" y="720" type="line" name="ab01"/>
    </contour>
  </outline>
</glyph>
<glyph name="integral" format="2">
  <advance width="600" height="985"/>
  <unicode hex="222B"/>
  <outline>
    <contour>
      <point x="570" y="720" type="line"/>
      <point x="570" y="638" type="line"/>
      <point x="460" y="638" type="line" smooth="yes"/>
      <point x="389" y="638"/>
      <point x="345" y="596"/>
      <point x="345" y="525" type="curve" smooth="yes"/>
      <point x="345" y="25" type="line" smooth="yes"/>
      <point x="345" y="-93"/>
      <point x="264" y="-170"/>
      <point x="140" y="-170" type="curve" smooth="yes"/>
      <point x="30" y="-170" type="line"/>
      <point x="30" y="-88" type="line"/>
      <point x="140" y="-88" type="line" smooth="yes"/>
      <point x="211" y="-88"/>
      <point x="255" y="-45"/>
      <point x="255" y="25" type="curve" smooth="yes"/>
      <point x="255" y="526" type="line" smooth="yes"/>
      <point x="255" y="644"/>
      <point x="336" y="720"/>
      <point x="460" y="720" type="curve" smooth="yes"/>
    </contour>
  </outline>
</glyph>
<glyph name="uni2237" format="2">
  <advance width="600"/>
  <unicode hex="2237"/>
  <outline>
    <contour>
      <point x="50" y="429" type="curve" smooth="yes" name="dh01.1"/>
      <point x="50" y="477"/>
      <point x="84" y="510"/>
      <point x="132" y="510" type="curve" smooth="yes" name="at01.1"/>
      <point x="180" y="510"/>
      <point x="214" y="477"/>
      <point x="214" y="429" type="curve" smooth="yes" name="dh02.1"/>
      <point x="214" y="381"/>
      <point x="180" y="348"/>
      <point x="132" y="348" type="curve" smooth="yes" name="sv01.1"/>
      <point x="84" y="348"/>
      <point x="50" y="381"/>
    </contour>
    <contour>
      <point x="50" y="71" type="curve" smooth="yes" name="sh01.1"/>
      <point x="50" y="119"/>
      <point x="84" y="152"/>
      <point x="132" y="152" type="curve" smooth="yes" name="sv02.1"/>
      <point x="180" y="152"/>
      <point x="214" y="119"/>
      <point x="214" y="71" type="curve" smooth="yes" name="sh02.1"/>
      <point x="214" y="23"/>
      <point x="180" y="-10"/>
      <point x="132" y="-10" type="curve" smooth="yes" name="ab01.1"/>
      <point x="84" y="-10"/>
      <point x="50" y="23"/>
    </contour>
    <contour>
      <point x="386" y="429" type="curve" smooth="yes" name="dh01"/>
      <point x="386" y="477"/>
      <point x="420" y="510"/>
      <point x="468" y="510" type="curve" smooth="yes" name="at01"/>
      <point x="516" y="510"/>
      <point x="550" y="477"/>
      <point x="550" y="429" type="curve" smooth="yes" name="dh02"/>
      <point x="550" y="381"/>
      <point x="516" y="348"/>
      <point x="468" y="348" type="curve" smooth="yes" name="sv01"/>
      <point x="420" y="348"/>
      <point x="386" y="381"/>
    </contour>
    <contour>
      <point x="386" y="71" type="curve" smooth="yes" name="sh01"/>
      <point x="386" y="119"/>
      <point x="420" y="152"/>
      <point x="468" y="152" type="curve" smooth="yes" name="sv02"/>
      <point x="516" y="152"/>
      <point x="550" y="119"/>
      <point x="550" y="71" type="curve" smooth="yes" name="sh02"/>
      <point x="550" y="23"/>
      <point x="516" y="-10"/>
      <point x="468" y="-10" type="curve" smooth="yes" name="ab01"/>
      <point x="420" y="-10"/>
      <point x="386" y="23"/>
    </contour>
  </outline>
</glyph>
<glyph name="lessequal" format="2">
  <advance width="600" height="985"/>
  <unicode hex="2264"/>
  <outline>
    <component base="less" yOffset="125"/>
    <contour>
      <point x="85" y="80" type="line"/>
      <point x="515" y="80" type="line"/>
      <point x="515" y="0" type="line"/>
      <point x="85" y="0" type="line"/>
    </contour>
  </outline>
</glyph>
<glyph name="propersuperset" format="2">
  <advance width="600"/>
  <unicode hex="2283"/>
  <outline>
    <contour>
      <point x="30" y="600" type="line" name="dh01"/>
      <point x="335" y="600" type="line" smooth="yes"/>
      <point x="473" y="600"/>
      <point x="565" y="512.8"/>
      <point x="565" y="382" type="curve" smooth="yes" name="dv01"/>
      <point x="565" y="338" type="line" smooth="yes" name="sv01"/>
      <point x="565" y="207.2"/>
      <point x="473" y="120"/>
      <point x="335" y="120" type="curve" smooth="yes"/>
      <point x="30" y="120" type="line" name="dh04"/>
      <point x="30" y="202" type="line" name="dh03"/>
      <point x="335" y="202" type="line" smooth="yes"/>
      <point x="423.839" y="202"/>
      <point x="475" y="252.43"/>
      <point x="475" y="340" type="curve" smooth="yes" name="sv03"/>
      <point x="475" y="380" type="line" smooth="yes"/>
      <point x="475" y="467.57"/>
      <point x="423.839" y="518"/>
      <point x="335" y="518" type="curve" smooth="yes"/>
      <point x="30" y="518" type="line" name="dh02"/>
    </contour>
  </outline>
</glyph>
<glyph name="uni2503" format="2">
  <advance width="600"/>
  <unicode hex="2503"/>
  <outline>
    <contour>
      <point x="200" y="1010" type="line"/>
      <point x="400" y="1010" type="line"/>
      <point x="400" y="-310" type="line"/>
      <point x="200" y="-310" type="line"/>
    </contour>
  </outline>
</glyph>
<glyph name="uni2508" format="2">
  <advance width="600"/>
  <unicode hex="2508"/>
  <outline>
    <contour>
      <point x="25" y="410" type="line"/>
      <point x="125" y="410" type="line"/>
      <point x="125" y="310" type="line"/>
      <point x="25" y="310" type="line"/>
    </contour>
    <contour>
      <point x="175" y="410" type="line"/>
      <point x="275" y="410" type="line"/>
      <point x="275" y="310" type="line"/>
      <point x="175" y="310" type="line"/>
    </contour>
    <contour>
      <point x="325" y="410" type="line"/>
      <point x="425" y="410" type="line"/>
      <point x="425" y="310" type="line"/>
      <point x="325" y="310" type="line"/>
    </contour>
    <contour>
      <point x="475" y="410" type="line"/>
      <point x="575" y="410" type="line"/>
      <point x="575" y="310" type="line"/>
      <point x="475" y="310" type="line"/>
    </contour>
  </outline>
</glyph>
<glyph name="uni2509" format="2">
  <advance width="600"/>
  <unicode hex="2509"/>
  <outline>
    <contour>
      <point x="25" y="460" type="line"/>
      <point x="125" y="460" type="line"/>
      <point x="125" y="260" type="line"/>
      <point x="25" y="260" type="line"/>
    </contour>
    <contour>
      <point x="175" y="460" type="line"/>
      <point x="275" y="460" type="line"/>
      <point x="275" y="260" type="line"/>
      <point x="175" y="260" type="line"/>
    </contour>
    <contour>
      <point x="325" y="460" type="line"/>
      <point x="425" y="460" type="line"/>
      <point x="425" y="260" type="line"/>
      <point x="325" y="260" type="line"/>
    </contour>
    <contour>
      <point x="475" y="460" type="line"/>
      <point x="575" y="460" type="line"/>
      <point x="575" y="260" type="line"/>
      <point x="475" y="260" type="line"/>
    </contour>
  </outline>
</glyph>
<glyph name="uni252D" format="2">
  <advance width="600"/>
  <unicode hex="252D"/>
  <outline>
    <contour>
      <point x="-20" y="460" type="line"/>
      <point x="350" y="460" type="line"/>
      <point x="350" y="410" type="line"/>
      <point x="620" y="410" type="line"/>
      <point x="620" y="310" type="line"/>
      <point x="350" y="310" type="line"/>
      <point x="350" y="-310" type="line"/>
      <point x="250" y="-310" type="line"/>
      <point x="250" y="260" type="line"/>
      <point x="-20" y="260" type="line"/>
    </contour>
  </outline>
</glyph>
<glyph name="uni253E" format="2">
  <advance width="600"/>
  <unicode hex="253E"/>
  <outline>
    <contour>
      <point x="620" y="460" type="line"/>
      <point x="620" y="260" type="line"/>
      <point x="350" y="260" type="line"/>
      <point x="350" y="-311" type="line"/>
      <point x="250" y="-311" type="line"/>
      <point x="250" y="310" type="line"/>
      <point x="-20" y="310" type="line"/>
      <point x="-20" y="410" type="line"/>
      <point x="250" y="410" type="line"/>
      <point x="250" y="1010" type="line"/>
      <point x="350" y="1010" type="line"/>
      <point x="350" y="460" type="line"/>
    </contour>
  </outline>
</glyph>
<glyph name="SF210000" format="2">
  <advance width="600"/>
  <unicode hex="2556"/>
  <outline>
    <contour>
      <point x="150" y="310" type="line"/>
      <point x="-20" y="310" type="line"/>
      <point x="-20" y="410" type="line"/>
      <point x="450" y="410" type="line"/>
      <point x="450" y="-310" type="line"/>
      <point x="350" y="-310" type="line"/>
      <point x="350" y="310" type="line"/>
      <point x="250" y="310" type="line"/>
      <point x="250" y="-310" type="line"/>
      <point x="150" y="-310" type="line"/>
    </contour>
  </outline>
</glyph>
<glyph name="SF500000" format="2">
  <advance width="600"/>
  <unicode hex="2558"/>
  <outline>
    <contour>
      <point x="350" y="1010" type="line"/>
      <point x="350" y="510" type="line"/>
      <point x="620" y="510" type="line"/>
      <point x="620" y="410" type="line"/>
      <point x="350" y="410" type="line"/>
      <point x="350" y="310" type="line"/>
      <point x="620" y="310" type="line"/>
      <point x="620" y="210" type="line"/>
      <point x="250" y="210" type="line"/>
      <point x="250" y="1010" type="line"/>
    </contour>
  </outline>
</glyph>
<glyph name="SF260000" format="2">
  <advance width="600"/>
  <unicode hex="255D"/>
  <outline>
    <contour>
      <point x="450" y="210" type="line"/>
      <point x="-20" y="210" type="line"/>
      <point x="-20" y="310" type="line"/>
      <point x="350" y="310" type="line"/>
      <point x="350" y="1010" type="line"/>
      <point x="450" y="1010" type="line"/>
    </contour>
    <contour>
      <point x="250" y="1010" type="line"/>
      <point x="250" y="410" type="line"/>
      <point x="-20" y="410" type="line"/>
      <point x="-20" y="510" type="line"/>
      <point x="150" y="510" type="line"/>
      <point x="150" y="1010" type="line"/>
    </contour>
  </outline>
</glyph>
<glyph name="SF450000" format="2">
  <advance width="600"/>
  <unicode hex="2567"/>
  <outline>
    <contour>
      <point x="-20" y="510" type="line"/>
      <point x="250" y="510" type="line"/>
      <point x="250" y="1010" type="line"/>
      <point x="350" y="1010" type="line"/>
      <point x="350" y="510" type="line"/>
      <point x="620" y="510" type="line"/>
      <point x="620" y="410" type="line"/>
      <point x="-20" y="410" type="line"/>
    </contour>
    <contour>
      <point x="-20" y="210" type="line"/>
      <point x="-20" y="310" type="line"/>
      <point x="620" y="310" type="line"/>
      <point x="620" y="210" type="line"/>
    </contour>
  </outline>
</glyph>
<glyph name="uni2570" format="2">
  <advance width="600"/>
  <unicode hex="2570"/>
  <outline>
    <contour>
      <point x="350" y="650" type="line" smooth="yes"/>
      <point x="350" y="504"/>
      <point x="443" y="410"/>
      <point x="585" y="410" type="curve" smooth="yes"/>
      <point x="620" y="410" type="line"/>
      <point x="620" y="310" type="line"/>
      <point x="585" y="310" type="line" smooth="yes"/>
      <point x="383" y="310"/>
      <point x="250" y="444"/>
      <point x="250" y="650" type="curve" smooth="yes"/>
      <point x="250" y="1010" type="line"/>
      <point x="350" y="1010" type="line"/>
    </contour>
  </outline>
</glyph>
<glyph name="uni2589" format="2">
  <advance width="600"/>
  <unicode hex="2589"/>
  <outline>
    <contour>
      <point x="-20" y="1010" type="line"/>
      <point x="525" y="1010" type="line"/>
      <point x="525" y="-310" type="line"/>
      <point x="-20" y="-310" type="line"/>
    </contour>
  </outline>
</glyph>
<glyph name="uni258D" format="2">
  <advance width="600"/>
  <unicode hex="258D"/>
  <outline>
    <contour>
      <point x="-20" y="1010" type="line"/>
      <point x="200" y="1010" type="line"/>
      <point x="200" y="-310" type="line"/>
      <point x="-20" y="-310" type="line"/>
    </contour>
  </outline>
</glyph>
<glyph name="uni2595" format="2">
  <advance width="600"/>
  <unicode hex="2595"/>
  <outline>
    <contour>
      <point x="525" y="1010" type="line"/>
      <point x="620" y="1010" type="line"/>
      <point x="620" y="-310" type="line"/>
      <point x="525" y="-310" type="line"/>
    </contour>
  </outline>
</glyph>
<glyph name="version" format="2">
  <advance width="600" height="985"/>
  <unicode hex="E000"/>
  <outline>
    <contour>
      <point x="211" y="545" type="curve" smooth="yes"/>
      <point x="211" y="725" type="line" smooth="yes"/>
      <point x="211" y="800"/>
      <point x="233" y="850"/>
      <point x="266" y="850" type="curve" smooth="yes"/>
      <point x="299" y="850"/>
      <point x="321" y="800"/>
      <point x="321" y="725" type="curve" smooth="yes"/>
      <point x="321" y="545" type="line" smooth="yes"/>
      <point x="321" y="470"/>
      <point x="299" y="420"/>
      <point x="266" y="420" type="curve" smooth="yes"/>
      <point x="233" y="420"/>
      <point x="211" y="470"/>
    </contour>
    <contour>
      <point x="-79" y="744" type="line"/>
      <point x="-13" y="790" type="line"/>
      <point x="-13" y="369" type="line"/>
      <point x="51" y="369" type="line"/>
      <point x="51" y="905" type="line"/>
      <point x="-80" y="809" type="line"/>
    </contour>
    <contour>
      <point x="91" y="423" type="line"/>
      <point x="91" y="368" type="line"/>
      <point x="148" y="368" type="line"/>
      <point x="148" y="423" type="line"/>
    </contour>
    <contour>
      <point x="151" y="545" type="line" smooth="yes"/>
      <point x="151" y="437"/>
      <point x="197" y="365"/>
      <point x="266" y="365" type="curve" smooth="yes"/>
      <point x="335" y="365"/>
      <point x="381" y="437"/>
      <point x="381" y="545" type="curve" smooth="yes"/>
      <point x="381" y="725" type="line" smooth="yes"/>
      <point x="381" y="833"/>
      <point x="335" y="905"/>
      <point x="266" y="905" type="curve" smooth="yes"/>
      <point x="197" y="905"/>
      <point x="151" y="833"/>
      <point x="151" y="725" type="curve" smooth="yes"/>
    </contour>
    <contour>
      <point x="384" y="423" type="line"/>
      <point x="384" y="368" type="line"/>
      <point x="441" y="368" type="line"/>
      <point x="441" y="423" type="line"/>
    </contour>
    <contour>
      <point x="442" y="575" type="curve" smooth="yes"/>
      <point x="442" y="773"/>
      <point x="529.2" y="905"/>
      <point x="660" y="905" type="curve"/>
      <point x="660" y="840" type="line"/>
      <point x="564.854" y="840"/>
      <point x="502" y="734.58"/>
      <point x="502" y="575" type="curve" smooth="yes"/>
      <point x="502" y="482"/>
      <point x="524" y="420"/>
      <point x="557" y="420" type="curve" smooth="yes"/>
      <point x="590" y="420"/>
      <point x="612" y="474"/>
      <point x="612" y="540" type="curve" smooth="yes"/>
      <point x="612" y="650"/>
      <point x="540" y="700"/>
      <point x="540" y="700" type="curve"/>
      <point x="610" y="700" type="line"/>
      <point x="610" y="700"/>
      <point x="672" y="650"/>
      <point x="672" y="540" type="curve" smooth="yes"/>
      <point x="672" y="440"/>
      <point x="626" y="365"/>
      <point x="557" y="365" type="curve" smooth="yes"/>
      <point x="488" y="365"/>
      <point x="442" y="449"/>
    </contour>
    <contour>
      <point x="85.253" y="206.746" type="curve"/>
      <point x="25.1336" y="173.692"/>
      <point x="0" y="117.999"/>
      <point x="0" y="35" type="curve" smooth="yes"/>
      <point x="0" y="-99.8275"/>
      <point x="81.4196" y="-196.34"/>
      <point x="212" y="-225.674" type="curve"/>
      <point x="212" y="-270" type="line"/>
      <point x="250" y="-270" type="line"/>
      <point x="250" y="-232.13" type="line"/>
      <point x="266.071" y="-234.029"/>
      <point x="282.754" y="-235"/>
      <point x="300" y="-235" type="curve" smooth="yes"/>
      <point x="317.246" y="-235"/>
      <point x="333.929" y="-234.029"/>
      <point x="350" y="-232.129" type="curve"/>
      <point x="350" y="-270" type="line"/>
      <point x="388" y="-270" type="line"/>
      <point x="388" y="-225.669" type="line"/>
      <point x="518.58" y="-196.31"/>
      <point x="600" y="-99.6547"/>
      <point x="600" y="36" type="curve" smooth="yes"/>
      <point x="600" y="118.035"/>
      <point x="574.774" y="173.598"/>
      <point x="514.416" y="206.687" type="curve"/>
      <point x="529.596" y="209.735"/>
      <point x="542.405" y="223.554"/>
      <point x="547" y="245" type="curve"/>
      <point x="552" y="272"/>
      <point x="541" y="294"/>
      <point x="520" y="298" type="curve"/>
      <point x="497" y="303"/>
      <point x="478" y="288"/>
      <point x="472" y="261" type="curve" smooth="yes"/>
      <point x="468.696" y="246.131"/>
      <point x="470.547" y="232.779"/>
      <point x="476.719" y="222.947" type="curve"/>
      <point x="432.06" y="237.943"/>
      <point x="373.883" y="245"/>
      <point x="300" y="245" type="curve" smooth="yes"/>
      <point x="226.138" y="245"/>
      <point x="167.973" y="238.061"/>
      <point x="123.319" y="223.148" type="curve"/>
      <point x="128.796" y="232.72"/>
      <point x="130.657" y="245.654"/>
      <point x="128" y="260" type="curve"/>
      <point x="122" y="288"/>
      <point x="102" y="303"/>
      <point x="81" y="298" type="curve"/>
      <point x="58" y="293"/>
      <point x="47" y="271"/>
      <point x="53" y="244" type="curve" smooth="yes"/>
      <point x="57.5598" y="223.481"/>
      <point x="69.6275" y="209.893"/>
    </contour>
    <contour>
      <point x="35" y="75" type="curve" smooth="yes"/>
      <point x="35" y="153"/>
      <point x="85" y="205"/>
      <point x="160" y="205" type="curve" smooth="yes"/>
      <point x="232" y="205"/>
      <point x="285" y="137"/>
      <point x="285" y="64" type="curve"/>
      <point x="261" y="64"/>
      <point x="245" y="48"/>
      <point x="245" y="24" type="curve" smooth="yes"/>
      <point x="245" y="1"/>
      <point x="263" y="-15"/>
      <point x="289" y="-15" type="curve" smooth="yes"/>
      <point x="435" y="-15" type="line"/>
      <point x="371" y="19" type="line" smooth="yes"/>
      <point x="344" y="33"/>
      <point x="325" y="68"/>
      <point x="325" y="101" type="curve" smooth="yes"/>
      <point x="325" y="163"/>
      <point x="371" y="205"/>
      <point x="440" y="205" type="curve" smooth="yes"/>
      <point x="515" y="205"/>
      <point x="565" y="153"/>
      <point x="565" y="75" type="curve" smooth="yes"/>
      <point x="565" y="-65"/>
      <point x="447" y="-139"/>
      <point x="269" y="-139" type="curve"/>
      <point x="326" y="-102"/>
      <point x="337" y="-67"/>
      <point x="337" y="-67" type="curve"/>
      <point x="337" y="-67"/>
      <point x="310" y="-75"/>
      <point x="250" y="-75" type="curve" smooth="yes"/>
      <point x="121" y="-75"/>
      <point x="35" y="-21"/>
    </contour>
    <contour>
      <point x="385" y="90" type="curve" smooth="yes"/>
      <point x="385" y="60"/>
      <point x="405" y="40"/>
      <point x="435" y="40" type="curve" smooth="yes"/>
      <point x="465" y="40"/>
      <point x="485" y="60"/>
      <point x="485" y="90" type="curve" smooth="yes"/>
      <point x="485" y="120"/>
      <point x="465" y="140"/>
      <point x="435" y="140" type="curve" smooth="yes"/>
      <point x="405" y="140"/>
      <point x="385" y="120"/>
    </contour>
    <contour>
      <point x="165" y="140" type="curve" smooth="yes"/>
      <point x="136" y="140"/>
      <point x="115" y="119"/>
      <point x="115" y="90" type="curve" smooth="yes"/>
      <point x="115" y="60"/>
      <point x="135" y="40"/>
      <point x="165" y="40" type="curve" smooth="yes"/>
      <point x="195" y="40"/>
      <point x="215" y="60"/>
      <point x="215" y="90" type="curve" smooth="yes"/>
      <point x="215" y="120"/>
      <point x="195" y="140"/>
    </contour>
  </outline>
</glyph>
<glyph name="uniE0B1" format="2">
  <advance width="600"/>
  <unicode hex="E0B1"/>
  <outline>
    <contour>
      <point x="118" y="970" type="line"/>
      <point x="600" y="350" type="line"/>
      <point x="118" y="-270" type="line"/>
      <point x="0" y="-270" type="line"/>
      <point x="482" y="348" type="line"/>
      <point x="6" y="970" type="line"/>
    </contour>
  </outline>
</glyph>
<glyph name="uniE0B3" format="2">
  <advance width="600"/>
  <unicode hex="E0B3"/>
  <outline>
    <contour>
      <point x="482" y="970" type="line"/>
      <point x="594" y="970" type="line"/>
      <point x="118" y="348" type="line"/>
      <point x="600" y="-270" type="line"/>
      <point x="482" y="-270" type="line"/>
      <point x="0" y="350" type="line"/>
    </contour>
  </outline>
</glyph>
<glyph name=".notdef" format="2">
  <advance width="600" height="975"/>
  <outline>
    <contour>
      <point x="90" y="0" type="line"/>
      <point x="90" y="720" type="line"/>
      <point x="510" y="720" type="line"/>
      <point x="510" y="0" type="line"/>
    </contour>
    <contour>
      <point x="160" y="50" type="line"/>
      <point x="460" y="50" type="line"/>
      <point x="460" y="611" type="line"/>
    </contour>
    <contour>
      <point x="440" y="670" type="line"/>
      <point x="140" y="670" type="line"/>
      <point x="140" y="109" type="line"/>
    </contour>
  </outline>
</glyph>
<glyph name="a.alt" format="2">
  <advance width="600" height="985"/>
  <note>Need OT feature</note>
  <outline>
    <contour>
      <point x="265" y="560" type="curve" smooth="yes"/>
      <point x="346" y="560"/>
      <point x="402" y="521"/>
      <point x="419" y="455" type="curve"/>
      <point x="427" y="455" type="line"/>
      <point x="427" y="550" type="line"/>
      <point x="512" y="550" type="line"/>
      <point x="512" y="0" type="line"/>
      <point x="427" y="0" type="line"/>
      <point x="427" y="95" type="line"/>
      <point x="419" y="95" type="line"/>
      <point x="402" y="29"/>
      <point x="346" y="-10"/>
      <point x="265" y="-10" type="curve" smooth="yes"/>
      <point x="154" y="-10"/>
      <point x="80" y="72"/>
      <point x="80" y="205" type="curve" smooth="yes"/>
      <point x="80" y="345" type="line" smooth="yes"/>
      <point x="80" y="478"/>
      <point x="154" y="560"/>
    </contour>
    <contour>
      <point x="299" y="482" type="curve" smooth="yes"/>
      <point x="218" y="482"/>
      <point x="170" y="431"/>
      <point x="170" y="345" type="curve" smooth="yes"/>
      <point x="170" y="205" type="line" smooth="yes"/>
      <point x="170" y="121"/>
      <point x="219" y="68"/>
      <point x="299" y="68" type="curve" smooth="yes"/>
      <point x="373" y="68"/>
      <point x="422" y="122"/>
      <point x="422" y="205" type="curve" smooth="yes"/>
      <point x="422" y="345" type="line" smooth="yes"/>
      <point x="422" y="428"/>
      <point x="373" y="482"/>
    </contour>
  </outline>
</glyph>
<glyph name="acute.case" format="2">
  <advance width="600" height="975"/>
  <outline>
    <contour>
      <point x="430" y="936" type="line" name="av01"/>
      <point x="320" y="936" type="line"/>
      <point x="210" y="795" type="line" name="av02"/>
      <point x="300" y="795" type="line"/>
    </contour>
  </outline>
</glyph>
<glyph name="ampersand_ampersand_ampersand.liga" format="2">
  <advance width="600"/>
  <outline>
    <contour>
      <point x="0" y="565.478" type="curve" smooth="yes"/>
      <point x="0" y="662"/>
      <point x="69" y="730"/>
      <point x="180" y="730" type="curve" smooth="yes"/>
      <point x="298" y="730"/>
      <point x="369" y="662"/>
      <point x="369" y="559" type="curve"/>
      <point x="279" y="559" type="line"/>
      <point x="279" y="613"/>
      <point x="241" y="652"/>
      <point x="180" y="652" type="curve" smooth="yes"/>
      <point x="125" y="652"/>
      <point x="90" y="613"/>
      <point x="90" y="563.175" type="curve" smooth="yes"/>
      <point x="90" y="534"/>
      <point x="102" y="502"/>
      <point x="125" y="470" type="curve" smooth="yes"/>
      <point x="466" y="0" type="line"/>
      <point x="367" y="0" type="line"/>
      <point x="54" y="426" type="line" smooth="yes"/>
      <point x="14" y="481"/>
      <point x="0" y="522"/>
    </contour>
    <contour>
      <point x="-45" y="280" type="line" smooth="yes"/>
      <point x="-45" y="371"/>
      <point x="20" y="425"/>
      <point x="130" y="425" type="curve" smooth="yes"/>
      <point x="145" y="425" type="line"/>
      <point x="145" y="370" type="line"/>
      <point x="131" y="370" type="line" smooth="yes"/>
      <point x="77" y="370"/>
      <point x="45" y="337"/>
      <point x="45" y="280" type="curve" smooth="yes"/>
      <point x="45" y="155" type="line" smooth="yes"/>
      <point x="45" y="101"/>
      <point x="78" y="70"/>
      <point x="135" y="70" type="curve" smooth="yes"/>
      <point x="180" y="70"/>
      <point x="225" y="102"/>
      <point x="254" y="155" type="curve" smooth="yes"/>
      <point x="368" y="360" type="line"/>
      <point x="462" y="360" type="line"/>
      <point x="333" y="132" type="line" smooth="yes"/>
      <point x="282" y="41"/>
      <point x="209" y="-10"/>
      <point x="130" y="-10" type="curve" smooth="yes"/>
      <point x="21" y="-10"/>
      <point x="-45" y="52"/>
      <point x="-45" y="155" type="curve" smooth="yes"/>
    </contour>
    <contour>
      <point x="-510" y="565.478" type="curve" smooth="yes"/>
      <point x="-510" y="662"/>
      <point x="-441" y="730"/>
      <point x="-330" y="730" type="curve" smooth="yes"/>
      <point x="-212" y="730"/>
      <point x="-141" y="662"/>
      <point x="-141" y="559" type="curve"/>
      <point x="-231" y="559" type="line"/>
      <point x="-231" y="613"/>
      <point x="-269" y="652"/>
      <point x="-330" y="652" type="curve" smooth="yes"/>
      <point x="-385" y="652"/>
      <point x="-420" y="613"/>
      <point x="-420" y="563.175" type="curve" smooth="yes"/>
      <point x="-420" y="534"/>
      <point x="-408" y="502"/>
      <point x="-385" y="470" type="curve" smooth="yes"/>
      <point x="-44" y="0" type="line"/>
      <point x="-143" y="0" type="line"/>
      <point x="-456" y="426" type="line" smooth="yes"/>
      <point x="-496" y="481"/>
      <point x="-510" y="522"/>
    </contour>
    <contour>
      <point x="-555" y="280" type="line" smooth="yes"/>
      <point x="-555" y="371"/>
      <point x="-490" y="425"/>
      <point x="-380" y="425" type="curve" smooth="yes"/>
      <point x="-365" y="425" type="line"/>
      <point x="-365" y="370" type="line"/>
      <point x="-379" y="370" type="line" smooth="yes"/>
      <point x="-433" y="370"/>
      <point x="-465" y="337"/>
      <point x="-465" y="280" type="curve" smooth="yes"/>
      <point x="-465" y="155" type="line" smooth="yes"/>
      <point x="-465" y="101"/>
      <point x="-432" y="70"/>
      <point x="-375" y="70" type="curve" smooth="yes"/>
      <point x="-330" y="70"/>
      <point x="-285" y="102"/>
      <point x="-256" y="155" type="curve"/>
      <point x="-177" y="132" type="line"/>
      <point x="-228" y="41"/>
      <point x="-301" y="-10"/>
      <point x="-380" y="-10" type="curve" smooth="yes"/>
      <point x="-489" y="-10"/>
      <point x="-555" y="52"/>
      <point x="-555" y="155" type="curve" smooth="yes"/>
    </contour>
    <contour>
      <point x="-1020" y="565.478" type="curve" smooth="yes"/>
      <point x="-1020" y="662"/>
      <point x="-951" y="730"/>
      <point x="-840" y="730" type="curve" smooth="yes"/>
      <point x="-722" y="730"/>
      <point x="-651" y="662"/>
      <point x="-651" y="559" type="curve"/>
      <point x="-741" y="559" type="line"/>
      <point x="-741" y="613"/>
      <point x="-779" y="652"/>
      <point x="-840" y="652" type="curve" smooth="yes"/>
      <point x="-895" y="652"/>
      <point x="-930" y="613"/>
      <point x="-930" y="563.175" type="curve" smooth="yes"/>
      <point x="-930" y="534"/>
      <point x="-918" y="502"/>
      <point x="-895" y="470" type="curve" smooth="yes"/>
      <point x="-554" y="0" type="line"/>
      <point x="-653" y="0" type="line"/>
      <point x="-966" y="426" type="line" smooth="yes"/>
      <point x="-1006" y="481"/>
      <point x="-1020" y="522"/>
    </contour>
    <contour>
      <point x="-1065" y="280" type="line" smooth="yes"/>
      <point x="-1065" y="371"/>
      <point x="-1000" y="425"/>
      <point x="-890" y="425" type="curve" smooth="yes"/>
      <point x="-875" y="425" type="line"/>
      <point x="-875" y="370" type="line"/>
      <point x="-889" y="370" type="line" smooth="yes"/>
      <point x="-943" y="370"/>
      <point x="-975" y="337"/>
      <point x="-975" y="280" type="curve" smooth="yes"/>
      <point x="-975" y="155" type="line" smooth="yes"/>
      <point x="-975" y="101"/>
      <point x="-942" y="70"/>
      <point x="-885" y="70" type="curve" smooth="yes"/>
      <point x="-840" y="70"/>
      <point x="-795" y="102"/>
      <point x="-766" y="155" type="curve"/>
      <point x="-687" y="132" type="line"/>
      <point x="-738" y="41"/>
      <point x="-811" y="-10"/>
      <point x="-890" y="-10" type="curve" smooth="yes"/>
      <point x="-999" y="-10"/>
      <point x="-1065" y="52"/>
      <point x="-1065" y="155" type="curve" smooth="yes"/>
    </contour>
  </outline>
</glyph>
<glyph name="ampersand_equal.liga" format="2">
  <advance width="600" height="985"/>
  <outline>
    <contour>
      <point x="45" y="250" type="line"/>
      <point x="520" y="250" type="line"/>
      <point x="520" y="170" type="line"/>
      <point x="45" y="170" type="line"/>
    </contour>
    <contour>
      <point x="-325" y="425" type="line"/>
      <point x="-325" y="370" type="line"/>
      <point x="-339" y="370" type="line" smooth="yes"/>
      <point x="-393" y="370"/>
      <point x="-425" y="337"/>
      <point x="-425" y="280" type="curve" smooth="yes"/>
      <point x="-425" y="155" type="line" smooth="yes"/>
      <point x="-425" y="101"/>
      <point x="-392" y="70"/>
      <point x="-335" y="70" type="curve" smooth="yes"/>
      <point x="-292" y="70"/>
      <point x="-247" y="102"/>
      <point x="-214" y="155" type="curve" smooth="yes"/>
      <point x="-5" y="490" type="line"/>
      <point x="520" y="490" type="line"/>
      <point x="520" y="410" type="line"/>
      <point x="37" y="410" type="line"/>
      <point x="-135" y="132" type="line" smooth="yes"/>
      <point x="-192" y="39"/>
      <point x="-264" y="-10"/>
      <point x="-340" y="-10" type="curve" smooth="yes"/>
      <point x="-449" y="-10"/>
      <point x="-515" y="52"/>
      <point x="-515" y="155" type="curve" smooth="yes"/>
      <point x="-515" y="280" type="line" smooth="yes"/>
      <point x="-515" y="371"/>
      <point x="-450" y="425"/>
      <point x="-340" y="425" type="curve" smooth="yes"/>
    </contour>
    <contour>
      <point x="-470" y="565" type="curve" smooth="yes"/>
      <point x="-470" y="662"/>
      <point x="-399" y="730"/>
      <point x="-290" y="730" type="curve" smooth="yes"/>
      <point x="-177" y="730"/>
      <point x="-101" y="661"/>
      <point x="-101" y="565" type="curve"/>
      <point x="-191" y="565" type="line"/>
      <point x="-191" y="614"/>
      <point x="-231" y="652"/>
      <point x="-290" y="652" type="curve" smooth="yes"/>
      <point x="-344" y="652"/>
      <point x="-380" y="614"/>
      <point x="-380" y="565" type="curve" smooth="yes"/>
      <point x="-380" y="539"/>
      <point x="-370" y="509"/>
      <point x="-346" y="476" type="curve" smooth="yes"/>
      <point x="-4" y="0" type="line"/>
      <point x="-103" y="0" type="line"/>
      <point x="-416" y="432" type="line" smooth="yes"/>
      <point x="-453" y="483"/>
      <point x="-470" y="528"/>
    </contour>
  </outline>
</glyph>
<glyph name="asciicircum_equal.liga" format="2">
  <advance width="600"/>
  <outline>
    <contour>
      <point x="-255" y="760" type="line"/>
      <point x="-171" y="760" type="line"/>
      <point x="-16" y="490" type="line"/>
      <point x="415" y="490" type="line"/>
      <point x="415" y="410" type="line"/>
      <point x="-70" y="410" type="line"/>
      <point x="-189" y="635" type="line" smooth="yes"/>
      <point x="-207" y="668"/>
      <point x="-211" y="694"/>
      <point x="-211" y="694" type="curve"/>
      <point x="-215" y="694" type="line"/>
      <point x="-215" y="694"/>
      <point x="-220" y="668"/>
      <point x="-238" y="635" type="curve" smooth="yes"/>
      <point x="-362" y="410" type="line"/>
      <point x="-455" y="410" type="line"/>
    </contour>
    <contour>
      <point x="-70" y="170" type="line"/>
      <point x="-70" y="250" type="line"/>
      <point x="415" y="250" type="line"/>
      <point x="415" y="170" type="line"/>
    </contour>
  </outline>
  <guideline angle="90" x="-916" y="0"/>
</glyph>
<glyph name="asciitilde_asciitilde.liga" format="2">
  <advance width="600" height="985"/>
  <outline>
    <contour>
      <point x="-425" y="264" type="line"/>
      <point x="-425" y="304" type="line" smooth="yes"/>
      <point x="-425" y="382"/>
      <point x="-373" y="434"/>
      <point x="-295" y="434" type="curve" smooth="yes"/>
      <point x="-171" y="434"/>
      <point x="-167" y="304"/>
      <point x="-97" y="304" type="curve" smooth="yes"/>
      <point x="-27" y="304"/>
      <point x="-25" y="434"/>
      <point x="100" y="434" type="curve" smooth="yes"/>
      <point x="225" y="434"/>
      <point x="230" y="304"/>
      <point x="298" y="304" type="curve" smooth="yes"/>
      <point x="328" y="304"/>
      <point x="345" y="323"/>
      <point x="345" y="359" type="curve" smooth="yes"/>
      <point x="345" y="399" type="line"/>
      <point x="430" y="399" type="line"/>
      <point x="430" y="359" type="line" smooth="yes"/>
      <point x="430" y="282"/>
      <point x="378" y="229"/>
      <point x="300" y="229" type="curve" smooth="yes"/>
      <point x="175" y="229"/>
      <point x="172" y="359"/>
      <point x="102" y="359" type="curve" smooth="yes"/>
      <point x="32" y="359"/>
      <point x="30" y="229"/>
      <point x="-95" y="229" type="curve" smooth="yes"/>
      <point x="-220" y="229"/>
      <point x="-225" y="359"/>
      <point x="-293" y="359" type="curve" smooth="yes"/>
      <point x="-323" y="359"/>
      <point x="-340" y="340"/>
      <point x="-340" y="304" type="curve" smooth="yes"/>
      <point x="-340" y="264" type="line"/>
    </contour>
  </outline>
</glyph>
<glyph name="asciitilde_asciitilde_greater.liga" format="2">
  <advance width="600" height="985"/>
  <outline>
    <contour>
      <point x="-1130" y="399" type="line"/>
      <point x="-1045" y="399" type="line"/>
      <point x="-1045" y="359" type="line" smooth="yes"/>
      <point x="-1045" y="323"/>
      <point x="-1028" y="304"/>
      <point x="-998" y="304" type="curve" smooth="yes"/>
      <point x="-930" y="304"/>
      <point x="-925" y="434"/>
      <point x="-800" y="434" type="curve" smooth="yes"/>
      <point x="-675" y="434"/>
      <point x="-665" y="304"/>
      <point x="-595" y="304" type="curve" smooth="yes"/>
      <point x="-527" y="304"/>
      <point x="-515" y="434"/>
      <point x="-390" y="434" type="curve" smooth="yes"/>
      <point x="-265" y="434"/>
      <point x="-260" y="304"/>
      <point x="-190" y="304" type="curve" smooth="yes"/>
      <point x="-120" y="304"/>
      <point x="-115" y="434"/>
      <point x="10" y="434" type="curve" smooth="yes"/>
      <point x="135" y="434"/>
      <point x="140" y="304"/>
      <point x="210" y="304" type="curve" smooth="yes"/>
      <point x="280" y="304"/>
      <point x="285" y="424"/>
      <point x="410" y="424" type="curve"/>
      <point x="460" y="424" type="line"/>
      <point x="460" y="349" type="line"/>
      <point x="410" y="349" type="line"/>
      <point x="340" y="349"/>
      <point x="335" y="229"/>
      <point x="210" y="229" type="curve" smooth="yes"/>
      <point x="85" y="229"/>
      <point x="80" y="359"/>
      <point x="10" y="359" type="curve" smooth="yes"/>
      <point x="-60" y="359"/>
      <point x="-65" y="229"/>
      <point x="-190" y="229" type="curve" smooth="yes"/>
      <point x="-315" y="229"/>
      <point x="-320" y="359"/>
      <point x="-390" y="359" type="curve" smooth="yes"/>
      <point x="-460" y="359"/>
      <point x="-470" y="229"/>
      <point x="-595" y="229" type="curve" smooth="yes"/>
      <point x="-720" y="229"/>
      <point x="-732" y="359"/>
      <point x="-802" y="359" type="curve" smooth="yes"/>
      <point x="-872" y="359"/>
      <point x="-875" y="229"/>
      <point x="-1000" y="229" type="curve" smooth="yes"/>
      <point x="-1078" y="229"/>
      <point x="-1130" y="282"/>
      <point x="-1130" y="359" type="curve" smooth="yes"/>
    </contour>
    <contour>
      <point x="446" y="328" type="curve"/>
      <point x="446" y="331" type="line"/>
      <point x="446" y="331"/>
      <point x="427" y="343"/>
      <point x="389" y="390" type="curve" smooth="yes"/>
      <point x="203" y="625" type="line"/>
      <point x="309" y="625" type="line"/>
      <point x="540" y="330" type="line"/>
      <point x="308" y="35" type="line"/>
      <point x="203" y="35" type="line"/>
      <point x="393" y="274" type="line" smooth="yes"/>
      <point x="427" y="316"/>
      <point x="446" y="328"/>
    </contour>
  </outline>
  <guideline angle="90" x="-1200" y="0"/>
</glyph>
<glyph name="asciitilde_equal.liga" format="2">
  <advance width="600" height="985"/>
  <outline>
    <contour>
      <point x="186" y="355" type="curve" smooth="yes"/>
      <point x="41" y="355"/>
      <point x="-80" y="470"/>
      <point x="-188" y="470" type="curve" smooth="yes"/>
      <point x="-246" y="470"/>
      <point x="-285" y="436"/>
      <point x="-285" y="385" type="curve" smooth="yes"/>
      <point x="-285" y="360" type="line"/>
      <point x="-370" y="360" type="line"/>
      <point x="-370" y="385" type="line" smooth="yes"/>
      <point x="-370" y="481"/>
      <point x="-296" y="545"/>
      <point x="-186" y="545" type="curve" smooth="yes"/>
      <point x="-41" y="545"/>
      <point x="80" y="430"/>
      <point x="188" y="430" type="curve" smooth="yes"/>
      <point x="246" y="430"/>
      <point x="285" y="464"/>
      <point x="285" y="515" type="curve" smooth="yes"/>
      <point x="285" y="540" type="line"/>
      <point x="370" y="540" type="line"/>
      <point x="370" y="515" type="line" smooth="yes"/>
      <point x="370" y="419"/>
      <point x="296" y="355"/>
    </contour>
    <contour>
      <point x="-370" y="250" type="line"/>
      <point x="370" y="250" type="line"/>
      <point x="370" y="170" type="line"/>
      <point x="-370" y="170" type="line"/>
    </contour>
  </outline>
  <guideline angle="90" x="-600" y="0"/>
</glyph>
<glyph name="asciitilde_greater.liga" format="2">
  <advance width="600" height="985"/>
  <outline>
    <contour>
      <point x="446" y="328" type="curve"/>
      <point x="446" y="331" type="line"/>
      <point x="446" y="331"/>
      <point x="427" y="343"/>
      <point x="389" y="390" type="curve" smooth="yes"/>
      <point x="203" y="625" type="line"/>
      <point x="309" y="625" type="line"/>
      <point x="540" y="330" type="line"/>
      <point x="308" y="35" type="line"/>
      <point x="203" y="35" type="line"/>
      <point x="393" y="274" type="line" smooth="yes"/>
      <point x="427" y="316"/>
      <point x="446" y="328"/>
    </contour>
    <contour>
      <point x="-530" y="399" type="line"/>
      <point x="-445" y="399" type="line"/>
      <point x="-445" y="359" type="line" smooth="yes"/>
      <point x="-445" y="323"/>
      <point x="-428" y="304"/>
      <point x="-398" y="304" type="curve" smooth="yes"/>
      <point x="-330" y="304"/>
      <point x="-325" y="434"/>
      <point x="-200" y="434" type="curve" smooth="yes"/>
      <point x="-75" y="434"/>
      <point x="-65" y="304"/>
      <point x="5" y="304" type="curve" smooth="yes"/>
      <point x="73" y="304"/>
      <point x="85" y="434"/>
      <point x="210" y="434" type="curve" smooth="yes"/>
      <point x="335" y="434"/>
      <point x="340" y="330"/>
      <point x="410" y="330" type="curve" smooth="yes"/>
      <point x="455" y="330" type="line"/>
      <point x="455" y="260" type="line"/>
      <point x="410" y="260" type="line" smooth="yes"/>
      <point x="295" y="260"/>
      <point x="280" y="359"/>
      <point x="210" y="359" type="curve" smooth="yes"/>
      <point x="140" y="359"/>
      <point x="130" y="229"/>
      <point x="5" y="229" type="curve" smooth="yes"/>
      <point x="-120" y="229"/>
      <point x="-132" y="359"/>
      <point x="-202" y="359" type="curve" smooth="yes"/>
      <point x="-272" y="359"/>
      <point x="-275" y="229"/>
      <point x="-400" y="229" type="curve" smooth="yes"/>
      <point x="-478" y="229"/>
      <point x="-530" y="282"/>
      <point x="-530" y="359" type="curve" smooth="yes"/>
    </contour>
  </outline>
  <guideline angle="90" x="-600" y="0"/>
</glyph>
<glyph name="at_underscore.liga" format="2">
  <advance width="600"/>
  <outline>
    <contour>
      <point x="-545" y="440" type="line" smooth="yes" name="dh01"/>
      <point x="-545" y="620"/>
      <point x="-443" y="730"/>
      <point x="-275" y="730" type="curve" smooth="yes" name="at01"/>
      <point x="-123" y="730"/>
      <point x="-30" y="653"/>
      <point x="-30" y="510" type="curve" smooth="yes" name="dh06"/>
      <point x="-30" y="105" type="line"/>
      <point x="-101" y="105" type="line"/>
      <point x="-102" y="203" type="line" name="ih01"/>
      <point x="-118" y="132"/>
      <point x="-158" y="95"/>
      <point x="-220" y="95" type="curve" smooth="yes" name="dv03"/>
      <point x="-303" y="95"/>
      <point x="-350" y="159"/>
      <point x="-350" y="270" type="curve" smooth="yes" name="dh03"/>
      <point x="-350" y="340" type="line" smooth="yes"/>
      <point x="-350" y="450"/>
      <point x="-302" y="515"/>
      <point x="-220" y="515" type="curve" smooth="yes" name="dv06"/>
      <point x="-163" y="515"/>
      <point x="-119" y="478"/>
      <point x="-106" y="422" type="curve" name="sh01"/>
      <point x="-108" y="455"/>
      <point x="-110" y="477"/>
      <point x="-110" y="510" type="curve" smooth="yes" name="dh05"/>
      <point x="-110" y="611"/>
      <point x="-171" y="660"/>
      <point x="-275" y="660" type="curve" smooth="yes" name="sv01"/>
      <point x="-395" y="660"/>
      <point x="-465" y="579"/>
      <point x="-465" y="440" type="curve" smooth="yes" name="dh02"/>
      <point x="-465" y="195" type="line" smooth="yes"/>
      <point x="-465" y="56"/>
      <point x="-391" y="-25"/>
      <point x="-265" y="-25" type="curve" smooth="yes"/>
      <point x="540" y="-25" type="line"/>
      <point x="540" y="-100" type="line" name="av01"/>
      <point x="-265" y="-100" type="line" smooth="yes"/>
      <point x="-441" y="-100"/>
      <point x="-545" y="10"/>
      <point x="-545" y="195" type="curve" smooth="yes"/>
    </contour>
    <contour>
      <point x="-270" y="340" type="curve" smooth="yes"/>
      <point x="-270" y="270" type="line" smooth="yes" name="dh04"/>
      <point x="-270" y="199"/>
      <point x="-244" y="158"/>
      <point x="-199" y="158" type="curve" smooth="yes" name="dv04"/>
      <point x="-139" y="158"/>
      <point x="-110" y="198"/>
      <point x="-110" y="280" type="curve" smooth="yes" name="sh02"/>
      <point x="-110" y="331" type="line" smooth="yes"/>
      <point x="-110" y="412"/>
      <point x="-139" y="452"/>
      <point x="-199" y="452" type="curve" smooth="yes" name="dv05"/>
      <point x="-244" y="452"/>
      <point x="-270" y="411"/>
    </contour>
  </outline>
</glyph>
<glyph name="bar_bar_bar.liga" format="2">
  <advance width="600" height="985"/>
  <outline>
    <contour>
      <point x="135" y="820" type="line"/>
      <point x="225" y="820" type="line"/>
      <point x="225" y="-120" type="line"/>
      <point x="135" y="-120" type="line"/>
    </contour>
    <contour>
      <point x="-345" y="820" type="line"/>
      <point x="-255" y="820" type="line"/>
      <point x="-255" y="-120" type="line"/>
      <point x="-345" y="-120" type="line"/>
    </contour>
    <contour>
      <point x="-825" y="820" type="line"/>
      <point x="-735" y="820" type="line"/>
      <point x="-735" y="-120" type="line"/>
      <point x="-825" y="-120" type="line"/>
    </contour>
  </outline>
</glyph>
<glyph name="bar_braceright.liga" format="2">
  <advance width="600"/>
  <outline>
    <contour>
      <point x="-60" y="830" type="line"/>
      <point x="60" y="830" type="line" smooth="yes"/>
      <point x="178" y="830"/>
      <point x="245" y="769"/>
      <point x="245" y="664" type="curve" smooth="yes"/>
      <point x="245" y="500" type="line" smooth="yes"/>
      <point x="245" y="429"/>
      <point x="258" y="400"/>
      <point x="345" y="400" type="curve" smooth="yes"/>
      <point x="435" y="400" type="line"/>
      <point x="435" y="320" type="line"/>
      <point x="345" y="320" type="line" smooth="yes"/>
      <point x="259" y="320"/>
      <point x="245" y="291"/>
      <point x="245" y="220" type="curve" smooth="yes"/>
      <point x="245" y="55" type="line" smooth="yes"/>
      <point x="245" y="-50"/>
      <point x="178" y="-111"/>
      <point x="60" y="-111" type="curve" smooth="yes"/>
      <point x="-60" y="-111" type="line"/>
      <point x="-60" y="-31" type="line"/>
      <point x="60" y="-31" type="line" smooth="yes"/>
      <point x="123" y="-31"/>
      <point x="155" y="-2"/>
      <point x="155" y="55" type="curve" smooth="yes"/>
      <point x="155" y="220" type="line" smooth="yes"/>
      <point x="155" y="293"/>
      <point x="191" y="353"/>
      <point x="270" y="356" type="curve"/>
      <point x="270" y="361" type="line"/>
      <point x="190" y="364"/>
      <point x="155" y="427"/>
      <point x="155" y="500" type="curve" smooth="yes"/>
      <point x="155" y="664" type="line" smooth="yes"/>
      <point x="155" y="721"/>
      <point x="123" y="750"/>
      <point x="60" y="750" type="curve" smooth="yes"/>
      <point x="-60" y="750" type="line"/>
    </contour>
    <contour>
      <point x="-325" y="830" type="line"/>
      <point x="-235" y="830" type="line"/>
      <point x="-235" y="-110" type="line"/>
      <point x="-325" y="-110" type="line"/>
    </contour>
  </outline>
  <guideline angle="90" x="-579" y="0"/>
</glyph>
<glyph name="bar_bracketright.liga" format="2">
  <advance width="600"/>
  <outline>
    <contour>
      <point x="-325" y="830" type="line"/>
      <point x="-235" y="830" type="line"/>
      <point x="-235" y="-110" type="line"/>
      <point x="-325" y="-110" type="line"/>
    </contour>
    <contour>
      <point x="325" y="830" type="line"/>
      <point x="325" y="-110" type="line"/>
      <point x="-60" y="-110" type="line"/>
      <point x="-60" y="-30" type="line"/>
      <point x="235" y="-30" type="line"/>
      <point x="235" y="750" type="line"/>
      <point x="-60" y="750" type="line"/>
      <point x="-60" y="830" type="line"/>
    </contour>
  </outline>
  <guideline angle="90" x="-658" y="0"/>
</glyph>
